<svg class="min-w-32 w-auto" xmlns="http://www.w3.org/2000/svg" width="100%" height="100%" viewBox="0 0 135 21" fill="white"><path d="M54.295 1.258A.758.758 0 0155.053.5h2.914a.759.759 0 01.76.758v2.375a.759.759 0 00.759.759h2.297a.76.76 0 01.758.758v10.7a.756.756 0 01-.758.758h-2.297a.759.759 0 00-.759.76v2.373a.758.758 0 01-.76.759h-2.914a.758.758 0 01-.758-.759v-2.916a.758.758 0 01.758-.759h2.3a.759.759 0 00.759-.758V5.69a.757.757 0 00-.759-.76h-2.3a.757.757 0 01-.758-.759V1.258zm-21.147 0A.758.758 0 0032.389.5h-2.918a.76.76 0 00-.758.758v2.375a.759.759 0 01-.759.759h-2.297a.76.76 0 00-.758.758v10.7a.756.756 0 00.758.758h2.297a.759.759 0 01.759.76v2.373a.76.76 0 00.758.759h2.918a.758.758 0 00.759-.759v-2.916a.758.758 0 00-.759-.759h-2.298a.759.759 0 01-.759-.758V5.69a.759.759 0 01.759-.76h2.298a.757.757 0 00.759-.759V1.258zm7.872 4.489a.634.634 0 01.633-.633h6.404a.633.633 0 01.578.382l1.038 2.398a.63.63 0 00.578.383h2.147a.631.631 0 01.633.631v7.079a.633.633 0 01-.633.633h-2.717a.633.633 0 01-.633-.633V9.414a.633.633 0 00-.631-.633h-2.783a.633.633 0 00-.631.633v6.573a.633.633 0 01-.633.633h-2.717a.633.633 0 01-.633-.633V5.747z" class="fill-blue-600 dark:fill-lime-600" clip-rule="evenodd"></path><path d="M34.572 5.747a.635.635 0 01.633-.633h2.718a.634.634 0 01.632.633v10.24a.633.633 0 01-.632.633h-2.718a.633.633 0 01-.633-.633V5.747z" class="fill-blue-600 dark:fill-lime-600"></path><path d="M8.02 10.546v.067c.54.187 1.011.527 1.359.98a2.7 2.7 0 01.531 1.701 3.1 3.1 0 01-1.03 2.388 3.554 3.554 0 01-2.49.928H0V5.1h6.183c.974 0 1.787.281 2.439.843a2.76 2.76 0 01.98 2.198 2.577 2.577 0 01-.434 1.445 2.706 2.706 0 01-1.147.96zm-2.403-2.92H2.834v2.045h2.783a1.011 1.011 0 00.773-.31c.194-.19.305-.45.309-.722 0-.264-.104-.517-.289-.705a1.039 1.039 0 00-.793-.307zm-2.783 6.476h3.023a1.092 1.092 0 00.825-.343c.206-.205.324-.483.326-.774a.897.897 0 00-.326-.686 1.155 1.155 0 00-.825-.31H2.834v2.113zm17.391 2.508h-8.97V5.1h8.97v2.745h-6.137v1.651h5.27v2.578h-5.27v1.787h6.137v2.748zm55.266-4.807h2.901a5.423 5.423 0 01-1.825 3.623c-1.065.95-2.413 1.425-4.045 1.425-1.784 0-3.226-.572-4.325-1.716-1.099-1.145-1.649-2.564-1.65-4.26 0-1.702.55-3.132 1.649-4.29s2.54-1.741 4.326-1.751c1.592 0 2.92.469 3.983 1.407a5.361 5.361 0 011.852 3.52h-2.934A2.786 2.786 0 0074.4 8.198a2.931 2.931 0 00-1.905-.578c-.95.011-1.7.326-2.25.945a3.353 3.353 0 00-.806 2.282 3.378 3.378 0 00.824 2.3c.543.614 1.296.922 2.26.922a3.112 3.112 0 001.94-.601 2.85 2.85 0 001.028-1.666zm6.67 4.789h-2.833v-11.5h5.94c1.236 0 2.22.28 2.952.84.732.56 1.104 1.35 1.115 2.37 0 1.087-.377 1.9-1.132 2.438v.068c.984.24 1.476.978 1.476 2.213v3.571h-2.833V13.52c0-.424-.217-.635-.651-.634H82.16v3.707zm0-8.753v2.54h2.867c.388.02.77-.102 1.074-.344a1.177 1.177 0 00.413-.961 1.088 1.088 0 00-.413-.909 1.656 1.656 0 00-1.063-.326h-2.878zm15.484-2.746h3.142l-4.498 7.311v4.19h-2.832V12.42l-4.514-7.328h3.21l2.744 4.633 2.748-4.633zm9.726 0a3.921 3.921 0 012.889 1.165c.779.766 1.168 1.73 1.167 2.89 0 1.19-.395 2.17-1.184 2.937a3.931 3.931 0 01-2.867 1.148h-3.113v3.365h-2.831V5.093h5.939zm-3.108 5.456h2.851c.373.01.735-.125 1.011-.377a1.296 1.296 0 00.412-1.011 1.176 1.176 0 00-.434-.944 1.42 1.42 0 00-.995-.377h-2.845v2.71zm7.45-5.456h10.284v2.744h-3.726v8.754h-2.832V7.839h-3.726V5.093zm20.627 10.041c-1.121 1.143-2.591 1.715-4.412 1.717-1.82.002-3.29-.57-4.409-1.716-1.122-1.156-1.683-2.576-1.683-4.26 0-1.683.561-3.113 1.683-4.29 1.12-1.167 2.59-1.751 4.409-1.751 1.82 0 3.29.584 4.412 1.75 1.121 1.168 1.682 2.598 1.682 4.292 0 1.693-.561 3.112-1.682 4.258zm-4.412-1.064c.974 0 1.752-.315 2.335-.945a3.235 3.235 0 00.875-2.283 3.191 3.191 0 00-.875-2.282c-.572-.631-1.35-.946-2.335-.945-.984 0-1.768.316-2.352.945a3.232 3.232 0 00-.858 2.282 3.274 3.274 0 00.858 2.283c.584.63 1.368.945 2.352.945z" class="fill-dark-grey-700 dark:fill-white"></path></svg>