<?xml version="1.0" encoding="utf-8"?>
<!-- Generator: Adobe Illustrator 24.0.2, SVG Export Plug-In . SVG Version: 6.00 Build 0)  -->
<svg version="1.1" id="Layer_1" xmlns="http://www.w3.org/2000/svg" xmlns:xlink="http://www.w3.org/1999/xlink" x="0px" y="0px"
	 viewBox="0 0 1920 1080" style="enable-background:new 0 0 1920 1080;" xml:space="preserve">
<style type="text/css">
	.st0{fill:#FFFFFF;}
</style>
<g>
	<g>
		<g>
			<g>
				<g>
					<g>
						<path class="st0" d="M434.99,504.8c4.35-4.34,9.49-7.68,15.43-10c5.94-2.32,12.46-3.48,19.56-3.48
							c7.53,0,14.48,1.49,20.86,4.45c6.37,2.97,12.17,7.43,17.38,13.36l22.6-20.86c-7.25-8.83-16.19-15.54-26.84-20.1
							c-10.65-4.56-22.57-6.84-35.75-6.84c-11.88,0-22.82,1.92-32.81,5.76c-10,3.84-18.72,9.31-26.18,16.41
							c-7.46,7.1-13.26,15.43-17.38,24.99c-4.13,9.56-6.19,20.07-6.19,31.51c0,11.44,2.06,21.95,6.19,31.51
							c4.13,9.56,9.89,17.89,17.28,24.99c7.39,7.1,16.11,12.57,26.18,16.41c10.07,3.84,20.97,5.76,32.7,5.76
							c13.33,0,25.32-2.32,35.96-6.95c10.65-4.64,19.59-11.37,26.84-20.21l-22.6-20.86c-5.22,6.08-11.01,10.61-17.38,13.58
							c-6.38,2.97-13.33,4.45-20.86,4.45c-7.1,0-13.62-1.16-19.56-3.48c-5.94-2.32-11.08-5.65-15.43-10
							c-4.35-4.35-7.71-9.49-10.1-15.43c-2.39-5.94-3.59-12.53-3.59-19.77c0-7.24,1.2-13.83,3.59-19.77
							C427.28,514.29,430.64,509.14,434.99,504.8z"/>
						<path class="st0" d="M727.79,483.72c-7.46-7.1-16.23-12.6-26.29-16.52c-10.07-3.91-21.11-5.87-33.14-5.87
							c-11.88,0-22.89,1.96-33.03,5.87c-10.14,3.91-18.98,9.42-26.51,16.52c-7.53,7.1-13.36,15.43-17.49,24.99
							c-4.13,9.56-6.19,19.99-6.19,31.29c0,11.3,2.06,21.73,6.19,31.29c4.13,9.56,9.92,17.89,17.38,24.99
							c7.46,7.1,16.3,12.6,26.51,16.51c10.21,3.91,21.33,5.87,33.36,5.87c11.88,0,22.85-1.96,32.92-5.87
							c10.07-3.91,18.83-9.38,26.29-16.41c7.46-7.03,13.29-15.35,17.49-24.99c4.2-9.63,6.3-20.1,6.3-31.4
							c0-11.44-2.1-21.91-6.3-31.4C741.08,499.11,735.25,490.82,727.79,483.72z M712.37,559.77c-2.39,5.94-5.76,11.08-10.1,15.43
							c-4.35,4.35-9.38,7.68-15.1,10c-5.72,2.32-11.99,3.48-18.8,3.48c-6.81,0-13.11-1.16-18.9-3.48c-5.8-2.32-10.83-5.65-15.1-10
							c-4.27-4.35-7.61-9.52-10-15.54c-2.39-6.01-3.59-12.57-3.59-19.67c0-7.24,1.2-13.83,3.59-19.77
							c2.39-5.94,5.76-11.08,10.1-15.43c4.35-4.34,9.38-7.68,15.1-10c5.72-2.32,11.99-3.48,18.8-3.48c6.81,0,13.11,1.16,18.9,3.48
							c5.79,2.32,10.83,5.65,15.1,10c4.27,4.35,7.61,9.49,10,15.43c2.39,5.94,3.59,12.53,3.59,19.77
							C715.95,547.25,714.76,553.84,712.37,559.77z"/>
						<path class="st0" d="M861.43,504.8c4.42-4.34,9.67-7.68,15.75-10c6.08-2.32,12.82-3.48,20.21-3.48
							c7.68,0,14.78,1.41,21.3,4.24c6.52,2.82,12.53,7.14,18.04,12.93l22.6-20.86c-7.39-8.55-16.48-15.07-27.27-19.56
							c-10.79-4.49-22.92-6.74-36.4-6.74c-12.17,0-23.33,1.92-33.46,5.76c-10.14,3.84-18.98,9.31-26.51,16.41
							c-7.53,7.1-13.36,15.43-17.49,24.99c-4.13,9.56-6.19,20.07-6.19,31.51c0,11.44,2.06,21.95,6.19,31.51
							c4.13,9.56,9.92,17.89,17.38,24.99c7.46,7.1,16.22,12.57,26.29,16.41c10.07,3.84,21.11,5.76,33.14,5.76
							c10.87,0,21.76-1.67,32.7-5c10.94-3.33,20.53-8.11,28.79-14.34v-61.71h-32.16v44.65c-2.33,1.22-4.68,2.24-7.06,3.04
							c-6.59,2.25-13.36,3.37-20.32,3.37c-7.25,0-13.87-1.16-19.88-3.48c-6.01-2.32-11.23-5.68-15.65-10.1
							c-4.42-4.42-7.82-9.6-10.21-15.54c-2.39-5.94-3.59-12.46-3.59-19.56c0-7.24,1.2-13.83,3.59-19.77
							C853.61,514.29,857.01,509.14,861.43,504.8z"/>
						<polygon class="st0" points="1137.29,556.23 1061.67,463.95 1032.55,463.95 1032.55,616.05 1067.32,616.05 1067.32,523.73 
							1143.15,616.05 1172.05,616.05 1172.05,463.95 1137.29,463.95 						"/>
						<rect x="1251.58" y="463.95" class="st0" width="35.2" height="152.11"/>
						<polygon class="st0" points="1349.15,492.63 1397.82,492.63 1397.82,616.05 1433.02,616.05 1433.02,492.63 1481.7,492.63 
							1481.7,463.95 1349.15,463.95 						"/>
						<path class="st0" d="M1674.98,483.72c-7.46-7.1-16.23-12.6-26.29-16.52c-10.07-3.91-21.12-5.87-33.14-5.87
							c-11.88,0-22.89,1.96-33.03,5.87c-10.14,3.91-18.98,9.42-26.51,16.52c-7.53,7.1-13.36,15.43-17.49,24.99
							c-4.13,9.56-6.19,19.99-6.19,31.29c0,11.3,2.07,21.73,6.19,31.29c4.13,9.56,9.92,17.89,17.38,24.99
							c7.46,7.1,16.3,12.6,26.51,16.51c10.21,3.91,21.33,5.87,33.36,5.87c11.88,0,22.85-1.96,32.92-5.87
							c10.07-3.91,18.83-9.38,26.29-16.41c7.46-7.03,13.29-15.35,17.49-24.99c4.2-9.63,6.3-20.1,6.3-31.4
							c0-11.44-2.1-21.91-6.3-31.4C1688.27,499.11,1682.44,490.82,1674.98,483.72z M1659.56,559.77
							c-2.39,5.94-5.76,11.08-10.1,15.43c-4.35,4.35-9.38,7.68-15.1,10c-5.73,2.32-11.99,3.48-18.8,3.48
							c-6.81,0-13.11-1.16-18.91-3.48c-5.8-2.32-10.83-5.65-15.1-10c-4.27-4.35-7.6-9.52-10-15.54c-2.39-6.01-3.59-12.57-3.59-19.67
							c0-7.24,1.2-13.83,3.59-19.77c2.39-5.94,5.76-11.08,10.11-15.43c4.34-4.34,9.38-7.68,15.1-10c5.72-2.32,11.99-3.48,18.8-3.48
							c6.81,0,13.11,1.16,18.91,3.48c5.79,2.32,10.83,5.65,15.1,10c4.27,4.35,7.6,9.49,10,15.43c2.39,5.94,3.59,12.53,3.59,19.77
							C1663.14,547.25,1661.95,553.84,1659.56,559.77z"/>
						<path class="st0" d="M1878.37,551.73c-3.26-5.21-7.5-9.41-12.71-12.6c-5.22-3.19-10.97-5.72-17.28-7.61
							c-6.3-1.88-12.6-3.55-18.91-5c-6.3-1.45-12.06-2.9-17.27-4.35c-5.22-1.45-9.42-3.37-12.6-5.76c-3.19-2.39-4.78-5.54-4.78-9.45
							c0-3.33,0.94-6.26,2.83-8.8c1.88-2.53,5-4.6,9.34-6.19c4.35-1.59,9.92-2.39,16.73-2.39c6.81,0,13.76,0.98,20.86,2.93
							c7.1,1.96,14.2,4.96,21.3,9.02l10.86-26.73c-7.1-4.49-15.28-7.86-24.55-10.1c-9.27-2.24-18.69-3.37-28.25-3.37
							c-14.34,0-26.26,2.14-35.74,6.41c-9.49,4.27-16.59,10-21.29,17.17c-4.71,7.17-7.06,15.1-7.06,23.79
							c0,8.12,1.63,14.78,4.89,19.99c3.26,5.22,7.5,9.42,12.71,12.6c5.22,3.19,10.97,5.8,17.27,7.82c6.3,2.03,12.6,3.73,18.91,5.11
							c6.3,1.38,12.06,2.82,17.28,4.34c5.21,1.52,9.41,3.48,12.6,5.87c3.18,2.39,4.78,5.62,4.78,9.67c0,3.19-1.02,6.01-3.04,8.47
							c-2.03,2.46-5.18,4.38-9.45,5.76c-4.27,1.38-9.89,2.06-16.84,2.06c-9.13,0-18.14-1.48-27.05-4.45
							c-8.91-2.97-16.62-6.77-23.14-11.41l-11.95,26.51c6.81,5.21,15.79,9.45,26.94,12.71c11.15,3.26,22.82,4.89,34.99,4.89
							c14.48,0,26.47-2.17,35.96-6.52c9.49-4.35,16.62-10.07,21.4-17.17c4.78-7.1,7.17-14.92,7.17-23.47
							C1883.26,563.54,1881.63,556.95,1878.37,551.73z"/>
					</g>
				</g>
			</g>
		</g>
	</g>
	<g>
		<g>
			<g>
				<g>
					<path class="st0" d="M121.95,558.57c-1.01-6.03-1.53-12.24-1.53-18.57s0.53-12.54,1.53-18.57
						c8.84-53.07,55.01-93.53,110.59-93.53c2.61,0,5.2,0.1,7.76,0.28c-20.55-13.07-44.93-20.66-71.09-20.66
						c-73.15,0-132.48,59.3-132.48,132.48c0,73.17,59.33,132.48,132.48,132.48c26.16,0,50.53-7.59,71.09-20.66
						c-2.56,0.18-5.15,0.28-7.76,0.28C176.95,652.1,130.79,611.64,121.95,558.57z"/>
					<path class="st0" d="M232.54,470.82c-19.2,0-36.56,7.81-49.1,20.43c21.16,6.13,36.59,25.66,36.59,48.75
						s-15.43,42.62-36.59,48.75c12.54,12.61,29.9,20.43,49.1,20.43c38.19,0,69.18-30.96,69.18-69.18S270.73,470.82,232.54,470.82z"
						/>
				</g>
			</g>
		</g>
	</g>
</g>
</svg>
