<?xml version="1.0" encoding="UTF-8" standalone="no"?>
<!DOCTYPE svg PUBLIC "-//W3C//DTD SVG 1.1//EN" "http://www.w3.org/Graphics/SVG/1.1/DTD/svg11.dtd">
<svg xmlns="http://www.w3.org/2000/svg" version="1.1" viewBox="0.00 0.00 512.00 512.00">
<g stroke-width="2.00" fill="none" stroke-linecap="butt">
<path stroke="#939393" vector-effect="non-scaling-stroke" d="
  M 157.1995 198.3838
  A 14.19 13.90 0.5 0 0 143.1313 184.3605
  A 14.19 13.90 0.5 0 0 128.8205 198.1362
  A 14.19 13.90 0.5 0 0 142.8887 212.1595
  A 14.19 13.90 0.5 0 0 157.1995 198.3838"
/>
<path stroke="#939393" vector-effect="non-scaling-stroke" d="
  M 247.69 324.90
  C 295.94 312.34 300.06 234.72 272.94 202.92
  C 256.40 183.51 226.19 180.69 205.08 193.14
  C 166.95 215.63 164.49 288.74 198.04 315.71
  C 211.87 326.82 230.85 329.29 247.69 324.90"
/>
<path stroke="#939393" vector-effect="non-scaling-stroke" d="
  M 345.03 208.30
  C 355.49 205.83 367.11 208.53 376.64 213.13
  Q 377.19 213.40 377.34 212.81
  L 382.48 192.70
  Q 382.64 192.05 382.03 191.78
  C 360.48 182.00 327.33 182.44 312.31 204.03
  C 304.86 214.74 303.94 229.90 309.90 241.51
  C 317.39 256.11 333.14 262.60 348.19 269.55
  C 358.44 274.29 364.61 285.65 358.38 295.97
  C 349.36 310.91 321.46 303.42 309.50 297.13
  Q 308.91 296.82 308.76 297.48
  L 304.22 318.73
  Q 304.11 319.23 304.58 319.45
  C 335.74 334.50 391.44 327.10 387.02 280.42
  C 384.74 256.28 363.46 248.78 345.37 239.34
  C 338.82 235.92 332.56 231.51 332.50 223.61
  C 332.45 215.87 337.53 210.08 345.03 208.30"
/>
<path stroke="#939393" vector-effect="non-scaling-stroke" d="
  M 156.50 225.79
  A 0.29 0.29 0.0 0 0 156.21 225.50
  L 130.29 225.50
  A 0.29 0.29 0.0 0 0 130.00 225.79
  L 130.00 324.21
  A 0.29 0.29 0.0 0 0 130.29 324.50
  L 156.21 324.50
  A 0.29 0.29 0.0 0 0 156.50 324.21
  L 156.50 225.79"
/>
<path stroke="#939393" vector-effect="non-scaling-stroke" d="
  M 203.10 246.20
  C 201.87 258.73 202.73 271.26 206.81 283.26
  C 211.65 297.48 223.44 309.00 239.25 304.00
  C 263.19 296.42 264.45 257.19 260.69 237.71
  C 258.10 224.25 249.60 208.71 235.00 207.49
  C 213.10 205.65 204.85 228.50 203.10 246.20"
/>
</g>
<path fill="#eee6dc" d="
  M 462.39 255.69
  A 206.69 206.69 0.0 0 1 255.70 462.38
  A 206.69 206.69 0.0 0 1 49.01 255.69
  A 206.69 206.69 0.0 0 1 255.70 49.00
  A 206.69 206.69 0.0 0 1 462.39 255.69
  Z
  M 157.1995 198.3838
  A 14.19 13.90 0.5 0 0 143.1313 184.3605
  A 14.19 13.90 0.5 0 0 128.8205 198.1362
  A 14.19 13.90 0.5 0 0 142.8887 212.1595
  A 14.19 13.90 0.5 0 0 157.1995 198.3838
  Z
  M 247.69 324.90
  C 295.94 312.34 300.06 234.72 272.94 202.92
  C 256.40 183.51 226.19 180.69 205.08 193.14
  C 166.95 215.63 164.49 288.74 198.04 315.71
  C 211.87 326.82 230.85 329.29 247.69 324.90
  Z
  M 345.03 208.30
  C 355.49 205.83 367.11 208.53 376.64 213.13
  Q 377.19 213.40 377.34 212.81
  L 382.48 192.70
  Q 382.64 192.05 382.03 191.78
  C 360.48 182.00 327.33 182.44 312.31 204.03
  C 304.86 214.74 303.94 229.90 309.90 241.51
  C 317.39 256.11 333.14 262.60 348.19 269.55
  C 358.44 274.29 364.61 285.65 358.38 295.97
  C 349.36 310.91 321.46 303.42 309.50 297.13
  Q 308.91 296.82 308.76 297.48
  L 304.22 318.73
  Q 304.11 319.23 304.58 319.45
  C 335.74 334.50 391.44 327.10 387.02 280.42
  C 384.74 256.28 363.46 248.78 345.37 239.34
  C 338.82 235.92 332.56 231.51 332.50 223.61
  C 332.45 215.87 337.53 210.08 345.03 208.30
  Z
  M 156.50 225.79
  A 0.29 0.29 0.0 0 0 156.21 225.50
  L 130.29 225.50
  A 0.29 0.29 0.0 0 0 130.00 225.79
  L 130.00 324.21
  A 0.29 0.29 0.0 0 0 130.29 324.50
  L 156.21 324.50
  A 0.29 0.29 0.0 0 0 156.50 324.21
  L 156.50 225.79
  Z"
/>
<ellipse fill="transparent" cx="0.00" cy="0.00" transform="translate(143.01,198.26) rotate(0.5)" rx="14.19" ry="13.90"/>
<path fill="transparent" d="
  M 272.94 202.92
  C 300.06 234.72 295.94 312.34 247.69 324.90
  C 230.85 329.29 211.87 326.82 198.04 315.71
  C 164.49 288.74 166.95 215.63 205.08 193.14
  C 226.19 180.69 256.40 183.51 272.94 202.92
  Z
  M 203.10 246.20
  C 201.87 258.73 202.73 271.26 206.81 283.26
  C 211.65 297.48 223.44 309.00 239.25 304.00
  C 263.19 296.42 264.45 257.19 260.69 237.71
  C 258.10 224.25 249.60 208.71 235.00 207.49
  C 213.10 205.65 204.85 228.50 203.10 246.20
  Z"
/>
<path fill="transparent" d="
  M 376.64 213.13
  C 367.11 208.53 355.49 205.83 345.03 208.30
  C 337.53 210.08 332.45 215.87 332.50 223.61
  C 332.56 231.51 338.82 235.92 345.37 239.34
  C 363.46 248.78 384.74 256.28 387.02 280.42
  C 391.44 327.10 335.74 334.50 304.58 319.45
  Q 304.11 319.23 304.22 318.73
  L 308.76 297.48
  Q 308.91 296.82 309.50 297.13
  C 321.46 303.42 349.36 310.91 358.38 295.97
  C 364.61 285.65 358.44 274.29 348.19 269.55
  C 333.14 262.60 317.39 256.11 309.90 241.51
  C 303.94 229.90 304.86 214.74 312.31 204.03
  C 327.33 182.44 360.48 182.00 382.03 191.78
  Q 382.64 192.05 382.48 192.70
  L 377.34 212.81
  Q 377.19 213.40 376.64 213.13
  Z"
/>
<path fill="#eee6dc" d="
  M 203.10 246.20
  C 204.85 228.50 213.10 205.65 235.00 207.49
  C 249.60 208.71 258.10 224.25 260.69 237.71
  C 264.45 257.19 263.19 296.42 239.25 304.00
  C 223.44 309.00 211.65 297.48 206.81 283.26
  C 202.73 271.26 201.87 258.73 203.10 246.20
  Z"
/>
<rect fill="transparent" x="130.00" y="225.50" width="26.50" height="99.00" rx="0.29"/>
</svg>
