<?xml version="1.0" encoding="utf-8"?>
<!-- Generator: Adobe Illustrator 27.7.0, SVG Export Plug-In . SVG Version: 6.00 Build 0)  -->
<svg version="1.1" id="Layer_1" xmlns="http://www.w3.org/2000/svg" xmlns:xlink="http://www.w3.org/1999/xlink" x="0px" y="0px"
	 viewBox="0 0 480 480" style="enable-background:new 0 0 480 480;" xml:space="preserve">
<style type="text/css">
	.st0{fill:url(#SVGID_1_);}
	.st1{opacity:0.15;}
	.st2{fill:#A0334B;}
	.st3{fill:#400342;}
	.st4{fill:#5B155B;}
	.st5{fill:#8C2A83;}
	.st6{opacity:0.66;fill:url(#SVGID_00000052795316236460532550000009376040313441328015_);}
</style>
<g>
	<radialGradient id="SVGID_1_" cx="109.7127" cy="108.4982" r="437.314" gradientUnits="userSpaceOnUse">
		<stop  offset="0.1175" style="stop-color:#FDD6A6"/>
		<stop  offset="0.3771" style="stop-color:#FA9694"/>
		<stop  offset="0.4074" style="stop-color:#EE8D92"/>
		<stop  offset="0.6466" style="stop-color:#914A82"/>
		<stop  offset="0.7253" style="stop-color:#733A7D"/>
		<stop  offset="0.8201" style="stop-color:#522978"/>
	</radialGradient>
	<path class="st0" d="M479.64,239.94c0,0.99,0,2.02-0.03,3.01c-0.03,2.09-0.08,4.19-0.16,6.28c-0.13,3.87-0.39,7.75-0.71,11.57
		c-0.03,0.34-0.05,0.65-0.1,0.97c-0.05,0.55-0.08,1.1-0.16,1.65c-1.75,18.06-5.5,35.52-11.05,52.19
		c-6.86,20.63-16.44,40.02-28.32,57.71c-1.99,2.96-4.03,5.86-6.15,8.74c-2.8,3.82-5.73,7.54-8.79,11.18
		c-3.27,3.98-6.7,7.83-10.29,11.57c-5.5,5.84-11.33,11.41-17.43,16.65c-12.82,11.07-26.85,20.81-41.83,28.97
		c-3.79,2.09-7.64,4.06-11.57,5.92c-16.46,7.85-33.97,13.9-52.27,17.82c-4.55,0.99-9.16,1.86-13.82,2.56
		c-1.15,0.18-2.3,0.34-3.46,0.5c-3.85,0.55-7.75,0.99-11.67,1.36c-3.4,0.31-6.86,0.55-10.31,0.71h-0.13
		c-3.77,0.18-7.59,0.29-11.41,0.29c-6.8,0-13.53-0.29-20.18-0.84c-2.93-0.24-5.84-0.55-8.74-0.89c-0.16-0.03-0.34-0.03-0.5-0.08
		h-0.03c-7.51-0.89-14.89-2.17-22.2-3.77c-1.91-0.42-3.82-0.86-5.73-1.33c-0.44-0.1-0.89-0.21-1.33-0.34
		c-11.73-2.93-23.09-6.75-34.05-11.36c0-0.03,0-0.03,0-0.03c-5.89-2.43-11.65-5.13-17.27-8.06c-0.03,0-0.05-0.03-0.05-0.03
		c-2.09-1.07-4.16-2.2-6.23-3.35c-0.34-0.18-0.68-0.37-0.99-0.58c-16.73-9.4-32.22-20.76-46.14-33.79c-0.03,0-0.03,0-0.05-0.03
		c-9.66-9-18.56-18.82-26.62-29.31c-0.99-1.31-1.99-2.62-2.98-3.95c-1.86-2.54-3.66-5.08-5.42-7.7c-0.29-0.42-0.58-0.86-0.86-1.31
		h-0.03c-0.55-0.84-1.1-1.68-1.65-2.54c-0.24-0.34-0.47-0.68-0.68-1.05c-1.47-2.25-2.85-4.53-4.21-6.83
		c-0.24-0.37-0.47-0.73-0.68-1.1c-1.94-3.3-3.8-6.65-5.58-10.05c-0.03-0.03-0.05-0.05-0.05-0.1c-8.09-15.36-14.53-31.7-19.13-48.81
		c-2.33-8.64-4.19-17.46-5.55-26.44c-0.05-0.42-0.1-0.81-0.16-1.23c-0.03-0.08-0.03-0.16-0.05-0.24c-0.34-2.41-0.65-4.84-0.94-7.28
		c0-0.08,0-0.16-0.03-0.24c-0.16-1.36-0.29-2.72-0.42-4.11c-0.03-0.21-0.03-0.45-0.05-0.65c-0.18-1.88-0.34-3.8-0.47-5.71
		c-0.37-5.47-0.55-10.97-0.55-16.54c0-1.96,0.03-3.93,0.08-5.86c0.24-9.89,1.07-19.63,2.49-29.18c0.03-0.18,0.05-0.37,0.08-0.55
		c0.03-0.13,0.03-0.29,0.08-0.44c0.71-4.82,1.57-9.61,2.59-14.32c0.1-0.45,0.18-0.89,0.29-1.33c0.16-0.76,0.34-1.49,0.5-2.22
		c0.11-0.39,0.18-0.79,0.29-1.18c0.16-0.73,0.34-1.49,0.52-2.22c3.43-13.92,8.06-27.35,13.79-40.2c0.34-0.81,0.71-1.62,1.1-2.41
		c2.3-5.08,4.82-10.08,7.51-14.95c0.05-0.13,0.13-0.26,0.21-0.39c1.13-2.09,2.3-4.14,3.48-6.18c3.95-6.67,8.19-13.14,12.72-19.37
		c4.37-6.02,9.03-11.83,13.95-17.41c1.26-1.44,2.51-2.83,3.8-4.21c10.16-11.02,21.31-21.04,33.35-29.97c0-0.03,0.03-0.03,0.03-0.03
		c0.03-0.03,0.03-0.03,0.03-0.03l0.03-0.03c39.86-29.63,89.25-47.14,142.73-47.14c2.3,0,4.58,0.03,6.86,0.1
		c1.86,0.05,3.72,0.1,5.57,0.24c5.73,0.26,11.39,0.76,16.99,1.47c1.78,0.21,3.56,0.44,5.34,0.71h0.03c0.97,0.13,1.96,0.29,2.93,0.47
		c0.94,0.1,1.88,0.26,2.8,0.44c1.05,0.16,2.07,0.34,3.09,0.55c0.08,0,0.13,0,0.21,0.05c1.1,0.16,2.22,0.39,3.32,0.63h0.08
		c15.42,3.06,30.31,7.62,44.5,13.56c3.01,1.23,5.99,2.54,8.95,3.9c1.23,0.58,2.49,1.15,3.69,1.75c0.89,0.42,1.75,0.84,2.59,1.28
		c0.18,0.1,0.39,0.18,0.58,0.29c0.86,0.42,1.73,0.86,2.59,1.33c1.39,0.68,2.72,1.41,4.08,2.17c2.64,1.41,5.26,2.91,7.85,4.42
		c7.33,4.34,14.42,9.08,21.23,14.19c1.39,0.99,2.75,2.04,4.08,3.11c1.54,1.18,3.06,2.41,4.58,3.66c1.13,0.92,2.25,1.86,3.38,2.83
		c4.4,3.72,8.66,7.62,12.77,11.7c1.33,1.28,2.64,2.62,3.95,3.98c3.04,3.11,5.97,6.31,8.82,9.58c0.18,0.18,0.34,0.39,0.5,0.6
		c1.18,1.31,2.3,2.64,3.4,4c1.02,1.2,2.02,2.43,2.98,3.66c0.1,0.13,0.18,0.24,0.29,0.37c0.52,0.65,1.02,1.31,1.52,1.96
		c0.05,0.05,0.1,0.1,0.1,0.16c16.8,21.65,29.92,46.28,38.5,72.92c0.42,1.31,0.81,2.62,1.2,3.93c2.56,8.43,4.66,17.07,6.28,25.86
		c0.45,2.43,0.86,4.87,1.23,7.33c0.5,3.09,0.92,6.2,1.26,9.32c0.94,8.43,1.47,16.99,1.49,25.68
		C479.64,238.99,479.64,239.46,479.64,239.94z"/>
	<g class="st1">
		<path class="st2" d="M308.33,240.51c5.63-4.86,9.51-10.21,21.34-17.56C281.09,235.9,300.98,237.04,308.33,240.51z"/>
		<path class="st2" d="M405.69,279.23c-2.24,0.56-4.82,1.34-7.65,2.28C400.44,280.77,402.98,280.01,405.69,279.23z"/>
		<path class="st2" d="M357.76,192.31c1.41-0.35,3.89-0.65,7.1-0.89C363.06,191.06,360.8,191.23,357.76,192.31z"/>
		<path class="st2" d="M478.48,263.41c0.08-0.55,0.1-1.1,0.16-1.65c-0.97,0.55-2.04,1.13-3.27,1.75
			C476.68,263.91,477.78,263.81,478.48,263.41z"/>
		<path class="st2" d="M253.85,293.47c-31.6,8.54-2.42,10.09,13.92,4.07C254.66,297.86,250.34,296.42,253.85,293.47z"/>
		<path class="st2" d="M364.29,304.25c-7.63,8.22-5.86,14.16-9.09,14.78C372.93,314.79,366.66,310,364.29,304.25z"/>
		<path class="st2" d="M388.33,288.63c0.26,1.35,1.63,2.5,3.75,3.47c11.35-7.02,27.28-14.86,34.56-17.27
			C410.27,279.69,397.76,284.31,388.33,288.63z"/>
		<path class="st2" d="M436.85,296.08c-7.88,1.5-34.41,0.65-44.77-3.98C372.21,304.01,366.54,315.5,436.85,296.08z"/>
		<path class="st2" d="M306.07,324.21c1.21,0.06,3.54-0.31,7.25-1.24C310.71,323.47,308.31,323.87,306.07,324.21z"/>
		<path class="st2" d="M375.88,204.65c2.62,2.75,6.6,4.32,14.08,2.36c2.8-0.79,5.65-1.7,8.53-2.67c-0.86,1.2-1.28,2.28-1.28,3.22
			c9.13-1.96,20.83-5.31,35.07-10.47c2.98-1.67,0.37-3.06-5.47-4.11c16.12-7.41,31.62-16.02,42.53-22.64
			c-0.39-1.31-0.79-2.62-1.2-3.93c-22.9,9.68-40.75,18.22-52.74,25.21c-4.11-0.31-8.69-0.55-13.45-0.71
			c12.77-4.82,27.48-10.21,44.42-16.33c-18.58,6.1-33.5,11.57-44.84,16.31c-13.17-0.39-27.72-0.16-36.67,0.52
			c4.89,0.94,6.28,6.12,8.93,10.47c7.04-2.88,15-5.99,23.92-9.37C386.04,197.59,378.87,201.7,375.88,204.65z"/>
		<path class="st3" d="M181.28,472.33c0.44,0.13,0.89,0.24,1.33,0.34c-0.68-1.86-0.76-4.14,0.47-6.41
			c-3.11-0.97-6.33-1.86-9.66-2.67C174.87,466.39,178.35,469.74,181.28,472.33z"/>
		<path class="st4" d="M202.89,354.41c-0.51,0.04,0.14,0.49,1.81,1.19C204.78,354.71,204.34,354.23,202.89,354.41z"/>
		<path class="st3" d="M247.7,403.9c-9.31-2.31-17.08-5.02-20.91-7.41c-10,3.74-29.51,8.09-54.13,10.39
			C193.74,407.6,199.16,406.78,247.7,403.9z"/>
		<path class="st3" d="M188.79,461.12c-3.57-1.89-5.93-3.13-4.32-3.18c-9.19-0.53-11.99,1.21-11.65,3.85
			c4.79,0.48,8.97,1.01,12.59,1.59C186.3,462.59,187.43,461.83,188.79,461.12z"/>
		<path class="st3" d="M203.08,474.11c-2.77-1.31-5.73-2.59-8.82-3.85c-5.84,0.6-7.28,1.99-5.92,3.74c7.3,1.6,14.68,2.88,22.2,3.77
			c-1.99-1.02-4-2.02-6.18-3.06c0.29-0.65,0.26-1.36-0.03-2.12C204.1,473.12,203.66,473.64,203.08,474.11z"/>
		<path class="st3" d="M154.23,460.36c6.66,0.63,13.1,1.77,19.19,3.23c-0.33-0.63-0.53-1.24-0.6-1.8
			C167.39,461.25,161.21,460.79,154.23,460.36z"/>
		<path class="st3" d="M253.74,403.51c-2.09,0.14-4.09,0.27-6.04,0.39c0.58,0.14,1.15,0.29,1.74,0.43
			C250.73,404.08,252.15,403.81,253.74,403.51z"/>
		<path class="st2" d="M228.92,190.04c-1.64,1.95-3.97,4.65-7.06,7.61c6.1-1.76,12.75-3.55,19.29-5.24
			c1.88-0.94,4.27-2.08,7.09-3.37C239.08,190.09,232.44,190.32,228.92,190.04z"/>
		<path class="st2" d="M324.11,100.41c-3.62,1.38-7.39,2.79-11.43,4.26c4.66-1.48,9.07-2.89,13.28-4.25
			C326.36,100.09,325.84,100.05,324.11,100.41z"/>
		<path class="st2" d="M305.48,88.35c-19.93,9.35-40.55,17.94-53.65,22.28c9.32-2.81,20.57-6.9,32.09-11.54
			c4.88-1.82,8.8-3.46,11.94-4.95c-0.39,0.16-0.78,0.32-1.16,0.48c0.46-0.19,0.91-0.39,1.37-0.58
			C300.65,91.85,303.58,89.99,305.48,88.35z"/>
		<path class="st2" d="M231.45,187.19c-6.44,1.37-6.92,2.5-2.53,2.85C230.09,188.65,230.93,187.63,231.45,187.19z"/>
		<path class="st2" d="M283.36,103.83c57.27-16.1,81.95-20.26,30.39-0.73c5.13-1.44,8.48-2.3,10.37-2.7
			c70.59-27.74,64.15-34.47,71.19-42.93c-1.13-0.97-2.25-1.91-3.38-2.83c-14.97,7.2-32.38,16.44-36.3,19.66
			c-5.94,0.68-11.33,0.6-13.98-0.55l-8.4,3.93C317.83,86.63,292.99,98.86,283.36,103.83z"/>
		<path class="st2" d="M220.01,199.37c0.65-0.58,1.26-1.15,1.85-1.72c-4.89,1.41-9.42,2.81-13.25,4.13
			C212.52,200.91,216.29,200.13,220.01,199.37z"/>
		<path class="st2" d="M215.64,205.84c-2.95,0.9-5.59,1.71-8.06,2.47c-0.99,0.56-2,1.11-3.06,1.64c-1.01,0.07-1.97,0.14-2.8,0.18
			c-35.89,11.06-6.88,5.5,6.42,3.96c-4.37,1.86-6.02,4.67-2.85,6.63c-23.04,10.49-20,16.38-8.04,13.32
			c23.12-5.6,36.05-9.94,42.8-13.16c3.93-0.64,8.23-1.45,12.93-2.46c-18.45,2.74,33.88-24.18,15.04-19.01
			c-13.61,3.81-25.22,7.37-35.01,10.66c-3.49-1.15-4.2-2.48,4.51-5.13c18.49-6.21,85.67-11.96,109.22-21.74
			c-27.63,6.05-61.94,2.64-126.74,16.18c-2.9,2.6-6.36,5.31-10.51,7.84C211.29,206.81,213.27,206.36,215.64,205.84z"/>
		<path class="st2" d="M400.18,129.35c-0.9,0.67-1.63,1.3-2.26,1.88C399.01,130.5,399.75,129.88,400.18,129.35z"/>
		<path class="st2" d="M275.84,105.93c-4.09-0.09-16.25,2.55-54.67,15.43C241.03,115.7,259.55,110.46,275.84,105.93z"/>
		<path class="st2" d="M437.16,113.86c-19.41,6.19-28.9,10.39-34.11,13.57C412.23,123.57,423.53,119.09,437.16,113.86z"/>
		<path class="st2" d="M279.39,106.09c0.31-0.29,1.77-1.1,3.98-2.25c-2.45,0.68-4.97,1.37-7.53,2.09
			C279.1,105.94,277.27,107.47,279.39,106.09z"/>
		<path class="st2" d="M400.18,129.35c0.79-0.6,1.74-1.24,2.86-1.92c-0.82,0.34-1.61,0.68-2.39,1.01
			C400.61,128.71,400.45,129.02,400.18,129.35z"/>
		<path class="st2" d="M397.92,131.23c-2.64,1.75-7.33,4.11-15.06,7.31C393.68,136.25,394.57,134.28,397.92,131.23z"/>
		<path class="st2" d="M209.5,207.21c-12.06,2.72-11.46,3.08-7.77,2.91c1.78-0.56,3.75-1.17,5.86-1.82
			C208.23,207.95,208.88,207.59,209.5,207.21z"/>
		<path class="st2" d="M252.98,218.41c2.3-0.31,5.64-1.06,10.45-2.43C259.74,216.89,256.27,217.7,252.98,218.41z"/>
		<path class="st2" d="M429.54,93.34c-2.54,1.23-5.03,2.38-7.43,3.46c2.7-1.13,5.21-2.22,7.54-3.3
			C429.64,93.44,429.59,93.39,429.54,93.34z"/>
		<path class="st2" d="M247.36,141.29c-18.83,5.03-31.41,9.26-42.09,13.1c0.93,0.2,2,0.36,3.19,0.48
			C216.96,151.64,229.55,147.28,247.36,141.29z"/>
		<path class="st2" d="M202.7,139.82c-1.15,0.46-2.36,0.94-3.71,1.45c-0.33,0.16-0.58,0.28-0.88,0.43c3.02-1,6.18-2.03,9.66-3.15
			C206.06,138.96,204.38,139.39,202.7,139.82z"/>
		<path class="st2" d="M304.18,58.04c-0.16,0.08-0.36,0.17-0.62,0.28C312.67,54.76,316.36,53.32,304.18,58.04z"/>
		<path class="st2" d="M213.77,77.41c2.44-1.23,5.88-2.63,10.41-4.15C217.27,75.45,214.24,76.72,213.77,77.41z"/>
		<path class="st2" d="M213.77,77.41c-0.59,0.3-1.12,0.59-1.59,0.86c0.61-0.13,1.22-0.25,1.84-0.37
			C213.69,77.8,213.62,77.63,213.77,77.41z"/>
		<path class="st2" d="M237.11,88.19c4.3,0.02,7.7,0.44,13.13-0.06C249.25,87.23,244.17,87.35,237.11,88.19z"/>
		<path class="st2" d="M208.28,146.05c35.6-13.51-29.3,4.98-10.17-4.37c-68.57,22.12-21.33,19.05-49.32,29.08
			c27.05-5.09,39.27-10.24,56.49-16.38C199.93,153.23,199.17,150.71,208.28,146.05z"/>
		<path class="st2" d="M160.48,95.89c1.17-0.34,2.18-0.62,3.25-0.92C162.22,95.35,161.06,95.66,160.48,95.89z"/>
		<path class="st2" d="M146.16,157.01c3.86-1.39,6.19-2.54,7.48-3.52C126.78,161.58,118.05,165.87,146.16,157.01z"/>
		<path class="st2" d="M290.76,148.43C291.28,148.31,291.39,148.28,290.76,148.43L290.76,148.43z"/>
		<path class="st2" d="M305.47,88.34c12.54-5.86,24.79-11.99,34.63-17.33c-0.26,0.73-0.13,1.33,0.26,1.83
			c-10.13,5.63-26.85,13.74-44.29,21.2c11.12-4.61,24.05-10.29,37.17-16.36c2.85-1.68,5.39-3.19,7.43-4.53
			c0.26,0.24,0.58,0.42,0.97,0.6c16.8-7.9,33.27-16.18,45.7-22.77c-1.33-1.07-2.7-2.12-4.08-3.11c-8.82,3.61-16.04,6.75-21.88,9.5
			c0.79-1.75-4.74-0.65-19.81,4.71C297.52,77.53,315.37,79.7,305.47,88.34z M345.18,68.23c1.39-0.79,2.7-1.54,3.95-2.25
			c2.28-0.16,0.16,1.65-4.95,4.69C345.94,69.26,346.41,68.37,345.18,68.23z M341.91,68.63c-2.62,0.58-6.52,1.7-12.17,3.56
			c5.89-2.2,10.34-3.77,13.58-4.76C342.77,67.84,342.3,68.23,341.91,68.63z"/>
		<path class="st2" d="M421.35,83.34c-0.16-0.21-0.31-0.42-0.5-0.6c-3.48,1.31-7.49,2.85-12.07,4.66
			C413.28,85.88,417.47,84.51,421.35,83.34z"/>
		<path class="st2" d="M288.88,117.57c62.9-17.51,38.21-5.29,50.49-6.33c-70.54,26.36-47.43,21.15-112.52,43.29
			c-6.81,0.65-13.53,0.81-18.37,0.34c-33.79,12.62-2.88,8.14,18.48,2.07c31.72-5.81,106.53-25.18,49.02-5
			c5.34-1.26,8.93-2.12,11.25-2.72c-3.61,0.71-4.58,0.6,24.34-7.17c-76.06,25.21-47.17,23.03-34.89,24.66
			c-29.21,9.4-31.83,13.19-22.72,14.24c3.61-4,15.44-10.65,23.37-14.16c5.05,0.6,6.78,1.78-4.03,5.55
			c1.6,0.47,19.63-8.87,33.42-16.59c0.71-0.03,1.31,0.03,1.83,0.08c-1.28,0.57-2.59,1.14-4,1.7c-0.02,0.4,1.2,0.16,3.16-0.48
			c-1.51,2.25-2.67,4.57-3.97,6.9c3.09-1.47,6.1-2.88,8.92-4.27c0.5,1.54,1.57,2.77,6.96,2.12c-5.55,1.75-11.61,3.71-18.26,5.81
			c0.89-1.2,1.66-2.43,2.36-3.67c-12.18,5.72-25.9,11.86-37.74,17.13c-4.9,0.23-9.09,0.22-12.05-0.11c-2.23,2.45-1.4,3.94,4.98,3.27
			c-3.96,1.77-7.57,3.4-10.69,4.83c4.74-0.54,10.15-1.31,16.16-2.36c-6.64,1.55-14.84,3.56-23.25,5.73
			c-2.61,1.31-4.27,2.27-4.57,2.74c30.62-7.34,42.09-10.84,42.74-11.4c11.53-2.53,24.58-5.95,38.93-10.63
			c-11.01,3.03-26.98,5.69-40.91,7.08c2.92-0.81,6.06-1.72,9.62-2.81c6.94-2.37,10.84-5.4,13.54-8.66
			c-4.68,1.15-9.6,2.41-14.84,3.83c5.58-1.75,10.74-3.38,15.69-4.95c-0.26,0.39-0.55,0.75-0.86,1.12
			c59.57-14.92,74.91-6.94,87.53-11.07c13.01-4.42,8.98-6.23,0.84-7.2c10.1-2.7,26.04-7.75,50.52-16.91
			c-28.05,9.71-52.52,14.55-63.41,14.37c5.09-4.75,13.54-10.39-4.55-4.24c-2.8,2.79-0.84,4.15,4.53,4.26
			c-0.49,0.47-0.93,0.91-1.32,1.32c-3.82-0.31-7.09-0.68-8.74-1.28c2.33-0.94,2.25-1.15-0.73-0.37c-0.94-0.63-0.29-1.52,2.88-2.77
			c1.23-0.42,2.33-0.81,3.38-1.15c3.14-3.14,12.3-8.04,29.24-15.23c1.05-5.5-43.74,2.75-4.06-14.42c0.05-2.3,3.82-6.2,13.4-12.3
			c3.64-1.28,7.72-2.93,12.12-4.92c-3.61,1.54-7.56,3.11-11.88,4.79c4.55-2.88,10.42-6.26,17.8-10.21c-0.1-0.13-0.18-0.24-0.29-0.37
			c-0.97-1.23-1.96-2.46-2.98-3.66c-41.67,14.06-85.04,30.2-52.37,15.57c-39.6,10.89-5.68-9.13,33.74-29.52
			c-0.58,1.15,1.91,0.84,5.92-0.24c-1.31-1.36-2.62-2.7-3.95-3.98c-1.99,2.3-10.81,7.22-82.11,31.25
			C322.2,103.99,233.63,132.94,288.88,117.57z M280.43,165.5c1.05-0.39,1.99-0.68,2.7-0.84
			C282.18,164.95,281.29,165.24,280.43,165.5z M307.73,157.01c0.27-0.4,0.55-0.81,0.85-1.2c0,0,0.01,0,0.01,0
			c0.65,0.05,1.18,0.18,1.62,0.34C309.3,156.49,308.46,156.78,307.73,157.01z M393.76,108.15c-6.18,2.22-12.07,4.48-17.59,6.67
			C381.38,112.68,387.19,110.45,393.76,108.15z"/>
		<path class="st3" d="M413.13,371.98c-3.77,1.18-7.49,2.72-10.94,4.37c25.34-14.06,23.56-19.05-16.33-4.61
			c1.68-0.76,3.85-1.81,6.73-3.25c-3.45,0.39,3.8-4.97,10.21-10.16l0.02-0.02c4.16-0.97,9.25-2.32,15.76-4.32
			c-4.08,0.45-7.86,0.64-11.33,0.65c0.01-0.01,0.01-0.01,0.02-0.02c23.54-12.15,22.39-23.6-2.27-18.3
			c-15.67,3.19-22.23,7.4-21.91,10.98c-2.56,0.52-5.51,1.36-8.7,2.53c-14.92,4.92,38.84-6.94-44.73,26.07
			c2.62-1.6,36.3-21.99,27.98-22.64c0.34,1.91-7.8,7.72-10.13,9.61c-4.76-0.47-52.85,10.1-42.72,8.32
			c-5.72,3.27,0.64,3.09,6.44,3.53c-2.19,0.44-7.26,1.53-16.3,3.53c7.54-1.49,14.12-2.93,16.58-3.51h0.01
			c4.34,0.31,8.27,1.02,6.52,3.77c-31.28,4.06-41.54,5.76-42.24,5.76c0.63-0.29,10.81-2.38,17.33-5.63c0.63-0.13,1.2-0.26,1.81-0.39
			c-12.14,2.36-26.72,4.58-30.83,3.95c30.73-7.2,43.97-26.2,58.52-31.49c-32.51,5-48.16,9.45-52.9,12.93
			c1.26-5.37,9.34-13.14-9.92-13.48c4.58-1.81,8.59-3.22,11.46-3.87c-4.63,0.94-9.79,2.28-15.05,3.87
			c-8.35,0.18-20.73,1.44-38.89,3.87c-2.09,0.08-3.32,2.51-0.94,5.34c-5.42-1.49-9.45-2.85-11.67-3.8c-0.1,1.05-0.92,2.7-1.75,4.58
			c5.26,0.45,8.77,3.09,9.42,6.57c-4.13-0.6-7.9-1.2-11.04-1.8c0.3-1.63,0.96-3.27,1.62-4.77c-1.1-0.1-2.26-0.11-3.5,0
			c-11.2,1.24-7.71,2.95,1.87,4.78c-0.7,3.87,0.69,7.66,8.48,9.26c-1.07,1.23-2.49,2.46-4.27,3.61c-7.64,0.78-21.99,2.54-45.36,4.95
			c0.26,0.08,0.58,0.18,0.92,0.29c-1.81,0.13-3.61,0.24-5.47,0.37c10.78-4.21,12.33-9.27,17.64-10.44
			c-58.11,4.53-12.82,8.77-29.79,9.92c-28.16,1.54-26.3-6.65,6.83-10.08c-13.11,1.31-21.31,2.75-26.41,4.19
			c0.21-0.03,0.39-0.03,0.6-0.05c-0.24,0.03-0.47,0.05-0.71,0.08c-12.75,3.59-6.44,7.54-11.94,8.09c-1.6,0.13-2.98,0.13-4.21,0.03
			c-0.73-0.31-2.02-0.58-3.8-0.76c-1.23-0.5-1.73-1.2-1.47-1.96c-0.86,0.58-1.62,1.15-2.41,1.73c-3.9-0.13-9.06,0-15.26,0.47
			c-9.47,1.18-8.32,3.01-4.24,4.87c-0.92,0.05-1.88,0.13-2.91,0.18c1.1-0.03,2.17-0.05,3.19-0.05c4.37,1.86,11.57,3.66,13.95,4.4
			c-4.95,1.39,11.6,0.76-9.84,2.8c18.82,0.97-11.28,3.17-3.17,4.42c8.82,1.2,19.66,3.93,6.33,5.39c0.24,1.18-5.84-0.16,36.25,0.34
			c-3.45,0.84-2.02,3.43-12.01,5.6c2.41-0.16,5.44-0.18,9.55-0.08c-6.6,0.5-14.16,2.22-17.3,4h-3.35c1,0.03,2.02,0.1,3.01,0.18
			c-2.77,1.75-1.13,3.64,9.53,4.66c-0.71-0.55,2.17-1.44,4.11-2.36c1.96,0.55,3.72,1.13,5.08,1.7c4.19-0.65,10.89-1.13,21.33-1.31
			c-1.17,0.87-1.29,1.78-0.69,2.65c-12.67,0.81-15.47,2.88-11.05,4.66c1.25-0.59,2.75-1.15,4.57-1.64c1.54-0.87,3.94-1.68,7.14-2.29
			c0.05,0.05,0.12,0.09,0.17,0.14c0-0.06-0.01-0.11-0.01-0.17c2.85-0.54,6.32-0.92,10.35-1.06c-3.9,0.02-7.28,0.13-10.19,0.3
			c0.49-1.36,2.16-2.45,5.14-2.67c-1.93,0.01-3.7,0.04-5.42,0.07c1.63-1.2,5.24-2.35,11.77-3.32c2.8-0.13,5.97-0.34,9.45-0.68
			c-0.73-0.05-1.47-0.13-2.17-0.21c1.65-0.18,3.38-0.34,5.26-0.5c-3.4-0.05-6.41-0.08-9.11-0.08c-13.95-2.59-19.34-8.06,10.42-11.2
			c1.73-2.7,10.68-0.92,28.92-4.29c-4.95-0.76-11.46-1.2-18.61-1.52c45.38-2.75,49.02-6.36,45.54-7.38
			c2.25,0.03,4.03,0.16,5.31,0.39c-7.83,1.16-8.31,3.35-4.25,5.9c3.15-1.18,5.33-2.28,6.37-3.22c-2.07-1.26-2.9-2.21-1.91-2.63
			c-0.07-0.01-0.13-0.03-0.2-0.04c0.16-0.03,0.31-0.05,0.47-0.08c-0.13,0.03-0.18,0.08-0.26,0.1c2.7,0.52,3.22,1.44,1.91,2.64
			c9.03,5.1,37.14,16.41,48.06,15.21c6.12-0.79,10.29-1.96,13.17-3.43c-2.36,1.28-4.19,2.33-5.5,3.19c-2.93,0.18-5.71,0.37-8.3,0.52
			c-10.55-0.37-21.54-2.17-31.15-4.42c-19.92,3.19-8.51,3.51-91.48,8.79c34.88-0.37,48.34,1.54,55.98,4.24
			c-2.58-0.15-5.58-0.2-9.11-0.14c-11.25-0.21,2.27,1.36,15.81,2.97c-1.95-0.9-3.96-1.89-6.68-2.82c7.74,0.45,11.43,1.78,12.66,3.53
			c-1.96-0.24-3.95-0.47-5.97-0.71c1.96,0.92,3.9,1.73,6.46,2.33c-0.08,3.09-4.89,6.73-8.3,8.82c-47.39,0.76-37.27,3.84-2.89,1.64
			c0.62-0.31,1.67-0.88,2.89-1.64c6.31-0.16,13.58-0.31,21.99-0.5c-40.05,3.95-67.92,6.91-56.35,9.06c-6.75,1.7-10.39,5.1-6.88,7.15
			c2.96,1.94,38.32,1.33,3.93,2.36c27.33,1.94,25.78,4.4,34.24,6.2c-0.05,0.18-0.1,0.39-0.16,0.57c-11.9-0.29-15.14,0.17-13.64,1.12
			c3.84-0.58,8.38-0.95,13.64-1.05c-0.39,1.25-1.02,2.56-2.51,4.07c-5.39-1.13-9.84-2.23-11.12-3.01
			c-5.84,0.86-10.13,2.22-13.14,3.82c2.7,1.41,6.05,3.19,8.95,5.1c-3.01-1.05-7.07-2.02-12.33-2.85c-1.07,0.94-1.81,1.91-2.33,2.88
			c3.9,1.26,7.64,2.59,11.18,4c2.12-0.21,4.82-0.34,8.14-0.37c0.92,0.92,1.6,1.83,1.94,2.7c0.39-0.86,0.31-1.78-0.37-2.7
			c4.19,0,9.29,0.18,15.44,0.5c0,0.5-3.17,3.77-8.35,7.46c2.91,0.34,5.81,0.65,8.74,0.89c6.65,0.55,13.38,0.84,20.18,0.84
			c3.82,0,7.64-0.1,11.41-0.29h0.13c3.45-0.16,6.91-0.39,10.31-0.71c-0.55-0.29-0.65-0.73-0.37-1.33
			c22.85-5.73,40.05-17.61,39.34-21.17c-0.71-0.47-2.64-0.68-5.37-0.68c5.47-2.96,11.28-6.05,17.25-9.13
			c-2.7,5.5,63.97-22.09,30.99-6.46c31.85-10.71,14.19,1.36,2.77,9.53c-3.82,0.68-12.8,3.74-31.07,10.97
			c10.84-3.72,19.92-6.36,26.91-7.98c-3.06,2.3-4.61,3.77-2.54,3.43c-2.23,1.75,4.61-1.94,7.7-4.5c2.96-0.55,5.39-0.81,7.17-0.81
			c14.97-8.17,29-17.9,41.83-28.97c-3.77-1.41-12.9-1.57-2.28-7.49c7.09-3.25,13.69-6.31,19.71-9.16
			c3.59-3.74,7.01-7.59,10.29-11.57c-0.58,0.24-1.2,0.5-1.81,0.73c-9.63,4.24-20.76,8.77-27.82,10.89
			c2.7-1.81,21.54-12.64,38.42-22.8c2.12-2.88,4.16-5.78,6.15-8.74c-12.8,6.62-31.91,15.94-59.49,26.15
			C406.16,386.9,449.3,358.53,413.13,371.98z M153.17,384.31c3.11-0.21,6.26-0.45,9.4-0.71c0.84,0.31,1.78,0.71,2.77,1.18
			c-6.28,1.52-16.15,3.14-30.18,3.19C142.96,387.11,148.74,385.8,153.17,384.31z M173.45,397.29c-9.82-0.34-20.28-0.63-29.37-1.23
			c-7.3-0.97,9.79-7.04,21.54-11.15C172.75,388.16,181.72,394.36,173.45,397.29z M196.43,381.88c-4.42-0.1-11.23,0.03-19.34,0.34
			c10.55-1.1,20.05-2.33,26.59-3.32C201.67,379.99,199.26,380.99,196.43,381.88z M317.49,379.29c-1.47,1.65-4.71,3.95-10.5,7.17
			c19.5-3.98-12.2,12.96-4.71,14.53c-2.75,1.36-5.13,2.59-7.15,3.64C306.76,397.92,295.08,385.88,317.49,379.29z M227.97,420.64
			c67.79-8.64,49.18-8.35,59.6-11.52c-6.36,4.84,13.9-0.86,55.52-14.11c-14.11,6.96-24.08,12.54-29.84,16.57
			c-0.89,0.31-1.96,0.68-3.48,1.28c-11.1,4.32-20.44,8.06-28.27,11.39C280.74,421.03,267.39,418.94,227.97,420.64z M221.9,456.58
			c0.94,0.1,1.96,0.21,3.06,0.29c-2.83,1.36-5.78,2.72-8.82,4.08c-0.81-0.16-1.62-0.31-2.41-0.5
			C216.48,459.17,219.23,457.86,221.9,456.58z M216.54,461.03c3.04-1.31,6.12-2.67,9.27-4.08c0.18,0.03,0.37,0.03,0.55,0.05
			c11.15,2.25,26.64,6.28,10.13,7.7C233,464.04,224.36,462.57,216.54,461.03z M326.57,435.93c-24.92,8.61,7.83,1.26-44.21,20.1
			c-3.14,0.26-6.39,0.52-9.5,0.81c-25.7-2.88,26.93-19.87,10.71-23.35c3.3-1.2-0.81-1.05-7.56-0.39
			c13.4-6.7,24.89-12.83,31.96-16.91c-2.56,3.8,4.89,3.85,23.14-1.2c-22.85,12.9,7.8,1.13,6.39,5.5
			C361.28,413.86,341.7,426.29,326.57,435.93z M392.82,381.22c-5.89,3.3-9.61,5.71-9.06,4.35
			C387.01,384.08,390.02,382.61,392.82,381.22z M407.21,354.66L407.21,354.66c-0.01,0.01-0.04,0.02-0.06,0.03l0,0
			C407.19,354.68,407.19,354.66,407.21,354.66z M355.68,372.11c19.5-8.79,30.1-15.31,34.47-19.53c0.01-0.01,0.01-0.01,0.02-0.02
			c2.32,0.7,5.16,1.26,8.47,1.62c0,0,0,0-0.01,0h-0.05C388.65,358.74,374.63,364.76,355.68,372.11z M380.93,373.53
			c-3.51,1.28-7.25,2.7-11.28,4.21C385.88,369.47,380.49,373.03,380.93,373.53z"/>
		<path class="st3" d="M276.97,476.73c0.63-0.29,1.31-0.6,2.02-0.92c-2.02,0.55-3.82,1.02-5.47,1.41
			C274.67,477.07,275.82,476.91,276.97,476.73z"/>
		<path class="st3" d="M343.06,456.34c-17.88,5.86-37.51,12.75-52.27,17.82C309.09,470.24,326.6,464.19,343.06,456.34z"/>
		<path class="st2" d="M250.24,88.13c0.96,0.87-2.01,2.71-10.95,5.74c10.37-2.39,27.31-6.9,42.77-13.44
			C265.6,85.73,256.54,87.53,250.24,88.13z"/>
		<path class="st2" d="M235.59,94.69c0.1-0.05,0.18-0.09,0.28-0.14C226.85,96.25,228.44,96.22,235.59,94.69z"/>
		<path class="st2" d="M234.46,95.43c1.8-0.56,3.36-1.07,4.82-1.57c-1.35,0.31-2.59,0.59-3.69,0.82c-0.63,0.31-1.18,0.6-1.67,0.88
			C234.1,95.52,234.28,95.48,234.46,95.43z"/>
		<path class="st2" d="M214.02,77.91c3.88,1.27,36.43-4.19,40.02-3.51c1.01-0.32,2.02-0.63,3.03-0.95
			C259.43,70.81,235.3,73.67,214.02,77.91z"/>
		<path class="st2" d="M284.71,57.5c26.96-8.98,17.04-10.58,11.25-9.04C285.7,54.2,283,57.8,284.71,57.5z"/>
		<path class="st2" d="M300.68,46.86c-0.1,0.03-0.2,0.06-0.3,0.1C300.9,46.83,301.08,46.77,300.68,46.86z"/>
		<path class="st2" d="M341.91,35.14c1.43-0.4,1.68-0.54,1.24-0.52C342.72,34.8,342.36,34.96,341.91,35.14z"/>
		<path class="st2" d="M294.76,48.84c0.37-0.14,0.77-0.27,1.2-0.38c0.05-0.03,0.11-0.06,0.16-0.08
			C295.66,48.53,295.22,48.68,294.76,48.84z"/>
		<path class="st2" d="M320.89,41.48c3.36,0.69,3.43,3.17-26.97,13.88C326.28,44.09,330.37,39.88,320.89,41.48z"/>
		<path class="st2" d="M31.91,256.71c-0.69,0.11-1.41,0.23-2.11,0.34c0.69-0.11,1.43-0.23,2.08-0.33
			C31.89,256.72,31.9,256.72,31.91,256.71z"/>
		<path class="st2" d="M65.11,251.8c-2.7,0.49-5.5,1-8.4,1.53c0.03,0.01,0.06,0.01,0.09,0.02c39.19-6.97,15.56,2.32-3.12,8.53
			c1.51,0.04,3.56-0.07,6.34-0.38c-2.92,0.39-5.59,0.7-8.03,0.94c-7.73,2.53-14.32,4.46-15.06,4.67c14.86-2.49,27-5.16,36.12-7.64
			c0.38-0.07,0.7-0.12,1.09-0.2c-0.34,0.06-0.65,0.11-0.98,0.17C98.98,252.3,100.44,247.22,65.11,251.8z"/>
		<path class="st2" d="M55.93,193.22c-3.82,0.92-7.98,1.91-12.59,3.06c0.63,0,1.26,0,1.94-0.03c20.15-3.9,35.78-6.75,48-8.69
			c-1.83-0.76-8.11-0.63-24.37,2.77c-11.52,0.37-2.77-7.3,9.66-10.99c-13.45,3.38-23.53,6.18-30.57,8.51
			c8.27-3.9,10.97-6.18,0.08-3.69c3.85-0.76-2.07,2.54-5.21,5.47c-3.82,1.44-6.23,2.64-7.38,3.61c2.3-0.92,4.48-1.83,6.49-2.7
			C39.65,193.22,40.96,195.28,55.93,193.22z M83.15,187.95c-1.47,0.37-2.85,0.68-4.14,0.94C80.35,188.58,81.69,188.29,83.15,187.95z
			"/>
		<path class="st2" d="M208.81,241.06c1.49-0.42,3.08-0.86,4.77-1.31C218.83,237.78,215.92,238.7,208.81,241.06z"/>
		<path class="st2" d="M208.81,241.06c-6.21,1.76-10.68,3.26-14.01,4.62C200.25,243.9,205.1,242.29,208.81,241.06z"/>
		<path class="st2" d="M92.62,319.97c1.91-0.23,3.64-0.41,5.29-0.57C96.02,319.51,94.22,319.68,92.62,319.97z"/>
		<path class="st2" d="M118.36,320.7c-2.13-1.71-7.08-2.62-20.45-1.3C104.44,319.05,112.17,319.74,118.36,320.7z"/>
		<path class="st2" d="M77.7,292.37c-0.01,0-0.01,0-0.01,0C77.57,292.43,77.59,292.42,77.7,292.37z"/>
		<path class="st3" d="M164.04,425.06c2.59-0.15,5.41-0.3,8.48-0.43C169.12,423.95,166.37,424.39,164.04,425.06z"/>
		<path class="st3" d="M122.92,420.7c-1.95,0.31-3.36,0.65-4.39,1.02c-1.78-0.1-3.37-0.22-4.81-0.36c0.35,0.28,1.61,0.48,4.28,0.56
			c-3.79,1.59-0.84,3.52-2.04,3.86C128.4,425.61,128.4,423.03,122.92,420.7z"/>
		<path class="st3" d="M155.23,429.1c-0.46-0.02-0.88-0.07-1.31-0.11c0,0.04-0.03,0.08-0.03,0.12
			C154.34,429.11,154.78,429.11,155.23,429.1z"/>
		<path class="st3" d="M154.96,426.73c2.79,1,5.41-0.62,9.08-1.67c-4.5,0.27-8.28,0.57-11.49,0.9c0.1,0.12,0.19,0.25,0.29,0.37
			C153.54,426.48,154.25,426.62,154.96,426.73z"/>
		<path class="st3" d="M137.07,425.06c-1.38,0.78-2.09,1.61-2.07,2.41c-1-0.24-1.82-0.51-2.49-0.78c-5.35,2.53-5.57,5.68-0.93,5.88
			c3.3,0.22,1.56-1.46,4.89-3.25c1.87,1.07,5.52,1.9,11.12,2.03c4.48,0.15,6.1-0.88,6.31-2.24c-5.98,0.04-10.95-0.31-14.75-0.86
			c1.78-0.56,4.24-1.1,7.68-1.6c1.62,1.15,4.01,2.06,7.1,2.35c0.07-0.84-0.4-1.8-1.09-2.67c-0.39-0.09-0.79-0.18-1.17-0.28
			c0.29-0.03,0.59-0.06,0.88-0.09c-1.24-1.43-2.99-2.54-3.64-2.45c-1.18,0.03-2.32,0.09-3.41,0.17c-0.43-0.25-0.8-0.51-1.12-0.77
			c0,0.29,0.05,0.58,0.14,0.87C141.68,424.05,139.17,424.49,137.07,425.06z"/>
		<path class="st3" d="M103.63,413.92c3.59-0.39,6.41-0.85,8.66-1.34C108.37,412.83,106.13,413.37,103.63,413.92z"/>
		<path class="st3" d="M76.48,415.12c0.03,0.03,0.03,0.03,0.05,0.03c17.35,0.84,22.64-0.26,27.09-1.23
			C97.29,414.59,88.6,415.09,76.48,415.12z"/>
		<path class="st3" d="M102.38,382.42c3.13-2.13,7.8-4.1,21.43-5.38c0.03-0.01,0.06-0.02,0.1-0.03
			C109.54,377.84,103.05,380.37,102.38,382.42z"/>
		<path class="st3" d="M115.96,425.78c-0.36,0-0.71,0.01-1.1,0.01C115.4,425.85,115.75,425.84,115.96,425.78z"/>
		<path class="st2" d="M46.88,381.85c1,1.33,1.99,2.64,2.98,3.95C50.75,384.76,49.1,383.34,46.88,381.85z"/>
		<path class="st5" d="M427.13,245.51c57.58-24.73,0.5-9.42,50.99-32.67c-0.34-3.11-0.76-6.23-1.26-9.32
			c-14.81,3.19-16.33,2.28-19.6-0.45c-40.52,10.84-59.91,10.52-60.04,4.48c-18.87,4.03-26.64,2.3-21.33-2.91
			c-0.81-0.84-1.49-1.78-2.09-2.77c-21.91,8.87-35.26,15.55-44.13,21.07c1.41-0.39,2.83-0.79,4.34-1.18
			c31.43-7.51-2.17,19.13-17.72,30.26c-0.92-2.04-6.26-3.61-20.02-2.56c16.57-4.69,16.18-7.12,12.07-8.95
			c-3.77,3.25-8.35,6.28-16.54,9.34c-15.63,1.54-40.31,6.1-77.81,14.42c-1.39,0.03-2.64,0.03-3.64-0.05
			c-47.9,8.22-11.25-7.49-2.85-11.23c-26.96,3.56,8.74,4.58-70.25,18.69c20.31-4.53,31.15-8.17,37.38-11.18
			c-14.58,2.88-18.14,2.59-17.17,1.26c5.55-0.5,12.06-1.28,19.47-2.43c-0.69,0.39-1.45,0.78-2.29,1.19
			c4.69-0.93,10.52-2.19,17.7-3.88c-5.5,1.06-10.6,1.94-15.39,2.69c9.41-5.28,5.05-8.45,17.87-13.66
			c-10.16,3.32-22.35,7.2-33.11,10.44c-9.37,2.15-16.86,4.06-22.77,5.76c0.5,0.1,1.05,0.18,1.65,0.24c-2.7,0.71-4.69,1.18-5.63,1.28
			c-0.52,0.08-1.06,0.13-1.58,0.16c1.67-0.54,3.54-1.1,5.55-1.68c-10.66-2.15,7.11-9.8,65.49-24.02
			c-93.32,19.55-82.49,25.97-71.07,25.7c-11.89,3.82-15.35,6.64-15.35,8.84c-6.62,0.55-13.64,1.47-19.71,2.72
			c5.65-0.26,50.59,1.18,8.95,11.54c-4.71,0.29-10.44,0.45-16.59,0.47c-0.03-0.29,0.05-0.6,0.16-0.94c3.95-2.2,7.04-4.42,6.1-5.52
			c3.11-1.88,6.81-3.48,9.55-4.06c-6.86,1.15-13.06,2.41-18.4,3.69c-2.46,0.26-5.44,0.71-9.13,1.33
			c-9.45,1.65-13.69,3.59-13.64,5.26c-7.22-0.16-13.85-0.34-18.79-0.5c0.52-0.58,0.89-0.99,0.94-1.23c-1.39,0.13-2.8,0.26-4.21,0.45
			c6.54-5.55,0.52-9.74-17.51-7.62c-3.53,0.39-6.57,0.84-9.11,1.28c2.17-3.22,1.28-5.68-11.62-4.74c0.37,0.24-0.37,0.71-1.91,1.39
			c1.36,8.98,3.22,17.8,5.55,26.44c4.61,17.12,11.05,33.45,19.13,48.81c5.57-0.71,10.13-1.2,13.85-1.49
			c8.51-5.1,32.59-15.52,51.3-19.53c-40.33,3.56-52.3,6.33-53.81,8.38c-2.22-3.19,7.38-9.71,23.06-15
			c-4.29,0.42-9.11,0.84-14.5,1.28c-7.25-1.18,34.71-9.58,28.5-11.99c9.16-0.84,22.48-2.22,41.46-4.66
			c-52.48,10.1-27.27,5.23,6.62,2.41c4.4,0.26,5.44,3.82,5.44,7.2c-5.89,1.39-7.09,2.64-6.07,3.87c-1.54-0.34-3.3-0.65-5.21-0.94
			c2.83,2.28,0.84,5.78,6.83,6.88c-6.62,4.66-3.82,8.53,4.37,7.96c21.86-2.51,37.06-5.84,45.41-8.69c3.92,0.47,7.58,0.97,10.77,1.49
			c-6.99,3.8-10.53,7.02,12.7,2.88c0.33-0.37-4.78-1.62-12.69-2.88c6.05-3.32,14.65-7.25,9.99-6.99c38.95-5.65-24.42,13.3,60.33-5
			c-21.57,2.25-28.48,1.67-74.12,5.81c-1.44-1.2-7.9-1.44-19.92-0.24c21.65-5.97,28.29-11.86,41.28-15.97
			c47.98-11.18-45.73,6.28,5.63-5.42c-2.46-1.99,39.21-11.8-44.29,1.47c45.1-10.31,61.04-17.9,7.2-9.5
			c-28.4,3.32,77.47-15.5,4.06-3.25c17.69-5.6-5.21-8.35-31.25-5.26c24.26-5.88,46.38-8.68,53.63-9.37
			c-0.17,0.05-0.34,0.09-0.52,0.13c4.14-0.37,3.94-0.47,0.63-0.16c5.94-1.56,11-2.92,15.2-4.12c9.89,4.63,19.53,16.12,121.53-6.81
			c-46.07,15.18-75.3,24.66-81.27,29.76c10.31-2.85,27.22-6.6,52.74-11.62c28.42-5.05-2.49,10.86-17.38,21.28
			c-7.88-0.45-19.21,0.65-35.94,4.58c48.81-8.17-2.56,24.58,52.79,16.52c-7.93-0.26,32.06-18.61,66.93-33.16
			c-10.02,5.31-10.21,9.45-8.72,13.19c4.21-4.55,11.39-9.82,24.03-15.63c-0.24-1.36,0.63-2.93,3.04-4.76
			c2.36-0.86,4.58-1.65,6.7-2.36c-2.2,0.68-4.29,1.36-6.23,1.99c5.47-3.95,17.93-9.06,40.54-16.1c31.57-11.36,43.79-9.5,46.38-6.6
			c0.31-3.82,0.58-7.7,0.71-11.57C467.73,245.35,441.6,245.14,427.13,245.51z M9.5,288.8c1.6,0.58,3.32,0.94,4.76,1.05
			C11.31,289.95,9.89,289.56,9.5,288.8z M62.45,309.53c4.84,0.39-1.52,2.09-3.98,3.22c-15.55,0.45,0.86-5.52,0.26-9.08
			C78.65,303.01,107.1,301.55,62.45,309.53z M87.86,290.66c-0.52,0.08-1.02,0.16-1.54,0.26h0.79c-7.04,2.43-22.04,6.12-32.17,8.82
			c-2.96-0.42-10.21-0.26-20.05,0.89c-0.13,0.47-0.16,0.92-0.05,1.28c5.97-0.37,10.57-0.52,14.03-0.47
			c-1.2,0.37-2.17,0.68-2.88,0.97c-2.59,0.26-5.68,0.5-9.37,0.73c-1.05-0.16-1.6-0.6-1.78-1.23c-4.66,0.26-10.16,0.71-16.65,1.26
			c6.07-1.13,11.7-1.96,16.7-2.54c0.86-3.38,6.94-9.42,10.36-12.96c3.87,0.79,10.1,1.6,21.15,1.62c0.86,0.97,4.24,1.49,10.5,1.31
			c1.33,0.1,2.77,0.21,4.31,0.26c-1.84,0.82-3.18,1.37-3.5,1.5c3.06-0.49,5.91-0.98,8.62-1.45c-1.79,0.01-3.49-0.01-5.08-0.06
			c0.39-0.18,0.8-0.36,1.23-0.57c2.38-0.16,5.03-0.42,7.96-0.76C89.91,289.85,89.02,290.22,87.86,290.66z M94.07,289.48
			c-0.39-0.08-0.76-0.16-1.07-0.24c2.2-0.29,4.53-0.6,7.04-0.97C98.15,288.67,96.16,289.09,94.07,289.48z M129.32,325.18
			c0.08-0.1,0.18-0.24,0.29-0.34c0.08,0.03,0.13,0.05,0.21,0.1C129.66,325.03,129.48,325.11,129.32,325.18z M131.73,327.88
			c0.94-0.03,1.96-0.1,3.09-0.18c0.03,0.03,0.05,0.05,0.08,0.08C133.62,327.88,132.57,327.91,131.73,327.88z M158.8,316.7
			c-0.92,0.18-1.81,0.34-2.7,0.52C156.91,316.99,157.77,316.81,158.8,316.7z M149.03,325.05h0.13c-0.08,0-0.16,0-0.24,0.03
			C148.98,325.05,149.01,325.05,149.03,325.05z M311.73,310.45c1.49-0.29,3.01-0.55,4.61-0.86
			C314.5,310.37,313.04,310.58,311.73,310.45z"/>
		<path class="st2" d="M93.47,367.8c-53.87,2.54-58.47-2.09-46.82-5.78c-0.29-0.24-0.44-0.55-0.5-0.92
			c0.94,0.05,1.91,0.13,2.85,0.18c5-1.44,11.91-2.83,18.82-3.8c-9.82,0.58-16.67,0.99-21.25,1.36c0.57-2.01,1.17-4.41-2.54-5.98
			c12.41-0.68,18.21-4.97-2.45-3.18c-1.26,0.76-2.21,1.42-2.81,1.96c-2.75-0.31-6.31-0.47-10.99-0.37c1.78,3.4,3.64,6.75,5.58,10.05
			c3.51-0.1,7.49-0.21,12.01-0.29c-4.19,0.45-7.98,0.92-11.33,1.39c1.36,2.3,2.75,4.58,4.21,6.83
			C63.86,367.48,53.26,372.09,93.47,367.8z M38.11,352.9c-0.24-0.26,0.02-0.68,0.65-1.25c2.31,0.28,4,0.69,5.22,1.2
			C42.15,352.95,40.17,352.98,38.11,352.9z"/>
		<path class="st2" d="M479.61,238.52c-5.86,3.27-3.95,4.21,0,4.42c0.03-0.99,0.03-2.02,0.03-3.01
			C479.64,239.46,479.64,238.99,479.61,238.52z"/>
		<path class="st2" d="M89.25,376.62c-14.79-0.29-32.93-4.55-50.33-6.31c0.55,0.86,1.1,1.7,1.65,2.54h0.03
			c0.29,0.44,0.58,0.89,0.86,1.31c1.91-0.71,5.42-1.23,11.23-1.52C55.09,372.17,71.51,380.1,89.25,376.62z"/>
		<path class="st2" d="M80.1,318.79c-6.46,1.24-12.57,2.91-17.99,4.74C126.19,316.8,76.03,316.83,80.1,318.79z"/>
		<path class="st2" d="M46.65,362.01c0.34,0.26,0.85,0.45,1.64,0.54c16.14-0.34,8.78-0.72,0.71-1.26
			C48.15,361.53,47.37,361.77,46.65,362.01z"/>
		<path class="st2" d="M2.83,274.46c0.03,0.08,0.03,0.16,0.05,0.24c0.71-0.05,1.41-0.1,2.07-0.16
			C4.71,274.41,4.03,274.35,2.83,274.46z"/>
		<path class="st3" d="M164.11,451.63c0.24-3.4-20.91-7.15-20.05-9.29c9.74-3.09,12.9-8.61,5.86-7.93
			c-19.19,0.08-3.87,6.99-8.09,9.19c-16.28,0.47-5.34-2.62-12.54-1.83c-4.55,0.81,7.41,6.67-6.62,7.17
			c0.31,0.21,0.65,0.39,0.99,0.58c1.15,0.1,2.12,0.16,2.93,0.18c-0.21,0.79,1.78,1.99,3.3,3.17c0,0,0.03,0.03,0.05,0.03
			c5.63,2.93,11.39,5.63,17.27,8.06c0.26-1.33,2.49-2.43,6.41-3.14C154.66,454.93,145.97,453.36,164.11,451.63z"/>
		<path class="st2" d="M209.57,17.38c18.9-7.35,33.9-13.11,42.85-16.73c-1.86-0.13-3.72-0.18-5.57-0.24
			c-21.49,6.44-68.08,21.23-149.58,47.03l-0.03,0.03c0,0,0,0-0.03,0.03C172.72,24.6,203.26,15.91,209.57,17.38z"/>
		<path class="st2" d="M5.97,188.24c-0.1,0.44-0.18,0.89-0.29,1.33c18.43-4.16,40.23-9,65.93-14.63
			C46.8,179.94,24.65,184.45,5.97,188.24z"/>
		<path class="st2" d="M6.75,184.84c-0.1,0.39-0.18,0.78-0.29,1.18c17.64-4,39.16-8.87,64.94-14.71
			C47.58,176.41,26.09,180.89,6.75,184.84z"/>
		<path class="st2" d="M61.27,165.08c2.02-0.5,3.93-0.94,6.02-1.47c4.69-1.33,10.91-4.95,17.82-9.63
			c-20.63,4.21-35.36,6.02-45.36,6.33c9.13-1.23,19.03-3.11,29.16-5.76c5.57-1.41,10.68-2.77,15.44-4.08
			c1.73,0.1,3.53,0.21,5.42,0.29c-1.57,1.13-3.11,2.2-4.66,3.22c4.34-0.89,8.92-1.86,13.79-2.96c3.06,0.03,6.05,0.03,8.85,0
			c3.14-0.47,4.89-0.73,5.78-0.89c-2.62,0.21-9.47,0.65,27.67-7.43c-15,6.05,20.63,4.63,12.43,10.78
			c12.93-3.93,30.07-8.85,49.05-13.66c31.51-12.8-7.98-8.69,6.36-16.46c29.5-12.12-19.58,5.1-18.24,1.28
			c62.37-21.62,29.6-21.57,43.11-29.08c-10.81,3.04-25.91,1.07-26.54-1.94c10.05-2.43,21.31-4.45,29.73-5.44
			c-5.78-0.03-13.24,0.71-29.76,5.26c0-0.89,1.15-1.83,4.08-2.83c13.09-4.69,28.4,2.38,110.72-26.41
			c-6.73,2.22-14.81,2.91-24.68,3.87c1.05-1.88-7.93-0.94-23.58,2.59c2.98-1.05,6.52-2.3,10.73-3.82
			c-5.81,1.91-11.25,3.61-16.39,5.13c-0.01,0-0.01,0-0.01,0c8.9-3.45,24.11-9.27,34.03-13.15c-6.41,2.41-25.5,8.47-45.18,14.62
			c-0.45,0.51-1.95,1.23-4.62,2.18c1.94-0.72,2.33-1.09,1.59-1.23c-6.14,1.92-12.25,3.83-17.98,5.64c2.12-0.41,4.39-0.89,6.76-1.42
			c9.32-2.61,17.78-4.81,25.12-6.57c-0.71,0.22-1.43,0.45-2.14,0.63c-2.67,0.58-5.42,1.23-8.27,1.99c-0.42,0.1-0.84,0.21-1.26,0.31
			c-2.83,0.76-5.73,1.6-8.72,2.54c-1.62,0.39-3.22,0.76-4.74,1.1c-5.68,1.6-11.67,3.32-17.93,5.21c-0.29,0.03-0.6,0.05-0.94,0.1
			c3.69-1.23,7.8-2.54,12.12-3.9c-23.09,4.48-31.41,2.67-23.87-1.75c-7.12,1.44-13.74,3.04-18.61,4.63
			c8.38-2.51,6.44,0.89,6.28,3.93c-4.24-0.89-13.61-0.21-30.57,3.32c4.63,0.58,9.89,0.39,16.7-1.31c-2.36,0.81-5.23,1.67-8.51,2.56
			c0.26-0.03,0.52-0.05,0.76-0.08c-0.73,0.13-1.54,0.31-2.43,0.5c0.58-0.13,1.13-0.29,1.68-0.42c-7.49,0.65-16.02,1.54-24.45,2.38
			c6.07-1.44,11.46-2.67,16.25-3.64c-9.76-1.23-16.67-5.89-29.08-7.7c33.27-15.99,50.1-28.14,14.84-20.13
			c1.13-0.55,1.75-0.97,1.99-1.26c41.46-10,45.41-2.43,99.67-16.52c-13.77,6.54-7.09,6.2-2.64,6.05
			c-26.07,11.05,25.07-7.09,38.89-10.34c-16.28,7.41-10.81,11.1,4.53,7.36c-0.44,0.24-0.94,0.5-1.36,0.73
			c1.33-0.47,2.67-0.92,3.95-1.33c-0.31,0.08-0.73,0.16-1.2,0.26c0.18-0.05,0.37-0.1,0.55-0.16c0.63-0.13,1.02-0.24,1.26-0.29
			c8.69-2.8,15.86-4.66,20.21-5.37c-2.22-0.47-5.89-0.26-3.27-1.33c1.18-0.79,23.32-5.42,25.52-5.52c5.26-2.2,8.95-4.03,11.05-5.37
			c-1.36-0.76-2.7-1.49-4.08-2.17c-6.28,1.1-17.46,4.14-33.76,9.66c21.7-8.56,25.76-9.71,30.6-11.28c-0.84-0.44-1.7-0.86-2.59-1.28
			c-6.33,1.36-4.69-0.42-3.69-1.75C323.8,14.6,305.89,8.69,287.2,4.97h-0.08c-1.47-0.08-2.59-0.26-3.3-0.55
			c0.29,0.81,0.73,1.6,1.1,2.38c8.66-1.33,11.1-0.6,3.32,3.32c-0.84,0.18-1.91,0.42-3.11,0.71c0.71-1.54,0.37-2.83-0.21-4.03
			c-2.28,0.34-5,0.84-8.06,1.44c-0.73,1.52-0.94,2.88-1.26,4.24c-6.49,2.15-4.5,1.75-0.16,0.71c-0.05,0.16-0.1,0.31-0.16,0.5
			c-4.95,2.36-5.92,3.53-4.58,3.95c-4.84,1.88-10.57,4.03-17.25,6.44c29.45-11.07,13.98-10.34,7.67-12.48
			c5.86-1.31,11.2-2.46,15.73-3.35c0.65-1.36,1.73-2.83,3.64-4.5c-0.92-0.18-1.86-0.34-2.8-0.44c-6.73,2.7-12.77,5.21-18.14,7.51
			c-0.37-0.29-0.58-0.63-0.63-1.02c-3.48,1.6-6.73,3.09-9.71,4.53c1.68-0.39,3.35-0.78,5-1.15c-18.11,8.09-27.25,13.72-29.29,17.2
			c1.28,2.07,11.46,1.15,32.12-4.08c-2.51,0.94-5.23,1.94-8.17,2.98c-6.36,1.62-13.03,3.32-19.92,5.08
			c8.64,0.94,28.74-2.43,54.62-10.71c0.03,0.52,0.37,0.99,0,1.81c-34.78,14.61-31.23,15.89,14.11,2.04
			c-11.39,4.53-20.28,8.11-27.22,11.02c-70.1,18.27-95.65,14.84-134.51,21.62c3.18-1.51,6.46-3.07,9.78-4.66
			c-20.95,5.38-38.31,9.98-47.1,12.95c14.4-3.87,26.37-6.44,37.27-8.28c-3.68,1.75-7.24,3.42-10.58,5.02
			c-17.27,3.45-39.89,7.98-61.51,12.35c-1.28,1.39-2.54,2.77-3.8,4.21c23.98-2.38,41.51-1.75,45.8,2.7
			c-4.92,0.97-10.34,2.2-16.31,3.8c-40.8,10.84-11.2,6.49,14.47,3.82c-1.83,1.78-4.53,3.74-8.19,5.92
			c-4.63,1.75-6.94,3.06-7.38,3.95c-10.73,5.34-26.51,11.59-48.42,18.56c8.74-4.14,13.51-7.04-6.65-1.96
			c-1.18,2.04-2.36,4.08-3.48,6.18c18.69-5.47,40.47-12.98,61.48-21.2c3.14,0.37,8.56,0.21,15.26-0.34
			c-15.81,5.31-40.31,12.62-76.95,21.93c-2.7,4.87-5.21,9.87-7.51,14.95c8.87-1.6,16.57-2.85,23.48-3.85
			c-6.62,1.81-12.56,3.51-17.77,5.1c-2.25,0.37-4.5,0.76-6.81,1.15c-5.73,12.85-10.36,26.28-13.79,40.2
			c20.83-3.8,49.65-10.16,110.14-25.36C106.74,159.74,86.4,162.38,61.27,165.08z M272.63,17.85c1.1,0.03,2.54-0.08,4.16-0.24
			c-4.11,2.25-10.05,4.92-18.51,8.19C266.16,22.59,270.35,20.07,272.63,17.85z M288.78,19.26c-10.03,2.43-23.79,5.92-39.52,9.92
			c2.98-1.05,5.65-2.04,7.98-2.96c10.39-2.64,23.43-6.41,39.26-11.52c0.58-0.08,1.13-0.16,1.65-0.24
			C293.91,16.54,290.92,18.06,288.78,19.26z M322.38,36.46c-10.78,4.14-18.87,7.93-24.79,11.12
			C291.5,48.76,282.62,50.1,322.38,36.46z M118.15,129.87c-0.39,0-0.78,0-1.2,0.03c0.84-0.68,1.73-1.36,2.54-2.02
			c1.07-0.18,2.17-0.37,3.3-0.55C121.45,128.12,119.9,128.96,118.15,129.87z M122.65,90.51c9.21-0.29,12.75,0.97,2.25,5.76
			c-8.06,0.45-13.4,0.31-13.35-0.97C115.32,93.7,119.04,92.11,122.65,90.51z M123.72,101.32c15.29-1.94,32.56-4.89,45.99-7.98
			c-1.78,0.47-3.8,1.02-5.97,1.62c4.03-0.99,10.99-2.43,18.92-3.98c0.42-0.03,0.79-0.05,1.18-0.08c6.91,1.65-31.57,20.47,2.93,10.76
			c-23.48,7.3-39.81,11.31-51.51,13.61c-1.07,0.63-2.28,1.26-3.61,1.94c-2.12,0.6-4.19,1.18-6.18,1.75
			c-2.36-0.31-4.37-0.73-6.18-1.23c4.11-0.42,9.27-1.15,15.97-2.46c9.89-5.68,8.61-7.98-23.11-0.13
			c-7.17-3.17-12.35-6.18-29.73-2.36C98.02,108.36,111.68,104.56,123.72,101.32z M52.22,135.24c11.6-1.54,20.83-2.36,29.55-3.09
			c-1.62,0.55-3.14,1.1-4.48,1.6c-10,1.33-21.12,2.98-33.08,4.87C46.8,137.44,49.49,136.29,52.22,135.24z"/>
		<path class="st2" d="M31.09,261.95c-4.37,2.36-9.66,4.45-14.87,5.39c9.61-1.49,17.22-2.93,23.35-4.27
			c3.22,0.05,7.3-0.13,12.41-0.63c0.58-0.18,1.13-0.37,1.7-0.55c-2.67-0.08-3.66-0.63-3.85-1.36c12.56-3.69,12.17-6.2,6.96-7.17
			c-0.29,0.05-0.58,0.1-0.86,0.13c0.26-0.05,0.52-0.1,0.78-0.16c-0.44-0.08-0.92-0.16-1.41-0.21c3.53-0.5,6.81-0.94,9.82-1.33
			c12.9-2.33,23.45-4.06,31.79-5.23c0.72,2.9,2.21,5.42-6.98,7.98c37.03-5.92,46.16-13.73,6.98-7.99
			c-0.84-3.45-0.59-7.38,20.44-13.4c34.42-10.44,59.18-13.69,7.83-5.76c0.71-3.98-47.79,0.92,25.13-19.92
			c-6.57-2.41,3.11-9.27-32.59-4.63c-7.22-2.57-69.6,12.83,40.57-17.38c-20.76,2.33-13.61-6.26-65.02,2.09
			c1.78,0.73-0.52,2.2-2.04,2.09c-19.47,4.27-35.86,6.31-45.96,6.6c-2.62,0.5-5.26,1.02-8.06,1.54c2.12-0.52,4.16-1.05,6.12-1.52
			c-2.54,0-4.58-0.13-6.05-0.39c1.47-0.34,2.91-0.68,4.42-1.02c-1.94,0.31-3.61,0.63-5.13,0.89c-2.02-0.5-2.49-1.33-1.1-2.51
			c-6.99,2.83-14.87,5.76-21.99,8.22c-3.61,0.84-7.09,1.65-10.42,2.43c-0.05,0.16-0.05,0.31-0.08,0.44
			c1.47-0.26,2.85-0.52,4.21-0.79c-1.52,0.5-2.96,0.94-4.29,1.33c-1.41,9.55-2.25,19.29-2.49,29.18c-0.05,1.94-0.08,3.9-0.08,5.86
			c0,5.58,0.18,11.07,0.55,16.54c17.07-1.62,23.48-0.65,23.09,1.52c-0.26,0.05-0.52,0.1-0.78,0.13c0.26-0.03,0.52-0.05,0.78-0.1
			c-0.08,0.39-0.37,0.81-0.86,1.26c-7.54,1.13-14.79,2.07-21.75,2.91c0.03,0.21,0.03,0.44,0.05,0.65
			c6.81-0.99,13.98-2.09,21.46-3.32c-2.88,2.33-10.78,5.26-21.04,7.43c0.03,0.08,0.03,0.16,0.03,0.24
			c16.96-2.7,24.63-4.76,27.64-6.31C29.81,261.27,30.33,261.63,31.09,261.95z M28.53,257.26c-3.35-1.47-7.17-2.51,7.2-4.87
			c3.66-0.55,5.18,0,5.16,1.15c-0.58,0.08-1.15,0.18-1.73,0.29c-2.59,0.55-5.29,1.62-7.25,2.88c2.8-0.44,5.5-0.89,8.09-1.28
			c-0.05,0.08-0.16,0.18-0.24,0.26c-2.2,0.24-4.76,0.58-7.88,1.05c-0.68,0.42-1.26,0.89-1.7,1.33c-0.47-0.29-1.05-0.55-1.62-0.81
			H28.53z"/>
		<path class="st2" d="M209.58,17.38c-18.34,6.63-40.47,14.24-64.7,22.01c2.05-0.49,28.6-6.85,58.33-14.06
			C209.83,21.02,212.74,18.04,209.58,17.38z"/>
		<path class="st2" d="M283.59,4.29c0.05,0.05,0.16,0.1,0.24,0.13c0-0.03-0.03-0.05-0.03-0.08C283.72,4.29,283.67,4.29,283.59,4.29z
			"/>
		<path class="st2" d="M269.41,2.12c-7.98,3.9-10.63,6.15-10.47,7.67c4.82-2.2,10.1-4.53,15.81-6.96
			C272.97,2.56,271.19,2.33,269.41,2.12z"/>
		<path class="st2" d="M224.92,30.36c-1.41-2.24,7.43-7.94,24.29-16.03c-14.34,3.35-30.6,7.28-46.01,11.01
			c-11.97,7.82-35.76,19.76-57.45,30.12c25.36-6.5,55.87-14.17,83.22-21.13C225.12,33.89,223.6,32.57,224.92,30.36z"/>
	</g>
	
		<radialGradient id="SVGID_00000045577774310570442810000008405408815165720474_" cx="100.1135" cy="27.6391" r="510.6197" gradientUnits="userSpaceOnUse">
		<stop  offset="0.1175" style="stop-color:#F9EADB"/>
		<stop  offset="0.3619" style="stop-color:#C4B0C4"/>
		<stop  offset="0.5564" style="stop-color:#A088B4"/>
		<stop  offset="0.6573" style="stop-color:#9279AE"/>
	</radialGradient>
	<path style="opacity:0.66;fill:url(#SVGID_00000045577774310570442810000008405408815165720474_);" d="M319.37,28.4
		c-7.12,9.47-4.27,10.57,1.52,6.23c5.78-4.37,6.49,0.86,0,6.86c-6.49,5.99-24.92,11.02-31.83,11.25c-6.91,0.24,0.26-3.72-18.82,0
		c-19.08,3.69-9.61,5-33.63,9.79c-24.05,4.82-5.18,6.54,17.17,4.89c22.35-1.65,6.39,5.05-10.97,11.2
		c-17.35,6.12-42.95,8.22-68,10.55c-25.05,2.33-30.65,4.34-26.02-4.11c4.61-8.45,2.57-8.14-31.85,0
		c-34.42,8.14-19,14.55-58.26,14.42c-5-0.03-9.16-0.13-12.59-0.37c4.37-6.02,9.03-11.83,13.95-17.41c1.26-1.44,2.51-2.83,3.8-4.21
		c10.16-11.02,21.31-21.04,33.35-29.97c0-0.03,0.03-0.03,0.03-0.03c0.03-0.03,0.03-0.03,0.03-0.03l0.03-0.03
		c39.86-29.63,89.25-47.14,142.73-47.14c2.3,0,4.58,0.03,6.86,0.1c1.86,0.05,3.72,0.1,5.57,0.24c5.73,0.26,11.39,0.76,16.99,1.47
		c1.78,0.21,3.56,0.44,5.34,0.71h0.03c0.97,0.13,1.96,0.29,2.93,0.47c0.94,0.1,1.88,0.26,2.8,0.44c1.05,0.16,2.07,0.34,3.09,0.55
		c0.08,0,0.13,0,0.21,0.05c1.1,0.16,2.22,0.39,3.32,0.63h0.08c15.42,3.06,30.31,7.62,44.5,13.56
		C326.31,21.8,321.6,25.44,319.37,28.4z"/>
</g>
</svg>
