<?xml version="1.0" encoding="utf-8"?>
<!-- Generator: Adobe Illustrator 27.7.0, SVG Export Plug-In . SVG Version: 6.00 Build 0)  -->
<svg version="1.1" id="Layer_1" xmlns="http://www.w3.org/2000/svg" xmlns:xlink="http://www.w3.org/1999/xlink" x="0px" y="0px"
	 viewBox="0 0 480 480" style="enable-background:new 0 0 480 480;" xml:space="preserve">
<style type="text/css">
	.st0{display:none;}
	.st1{display:inline;fill:url(#SVGID_1_);}
	.st2{display:inline;opacity:0.15;}
	.st3{fill:#A0334B;}
	.st4{fill:#400342;}
	.st5{fill:#5B155B;}
	.st6{fill:#8C2A83;}
	
		.st7{display:inline;opacity:0.66;fill:url(#SVGID_00000084520492029002821390000010413017744349391792_);enable-background:new    ;}
	.st8{display:inline;fill:url(#SVGID_00000124121967629723586290000009214286042097385125_);}
	.st9{display:inline;opacity:0.15;fill:#FFF3C0;enable-background:new    ;}
	.st10{display:inline;}
	.st11{fill:url(#SVGID_00000005964112289539328560000008140371448849656211_);}
	.st12{fill:url(#SVGID_00000160890625556169978850000015851355919128252079_);}
	.st13{fill:url(#SVGID_00000080196226090744994740000005593625711291083919_);}
	.st14{display:inline;opacity:0.25;fill:#754A27;enable-background:new    ;}
	.st15{display:inline;opacity:0.25;fill:#D38953;enable-background:new    ;}
	.st16{display:inline;opacity:0.25;fill:#BC723F;enable-background:new    ;}
	.st17{display:inline;opacity:0.1;fill:#99FFFA;enable-background:new    ;}
	.st18{display:inline;opacity:0.15;fill:#A9FFF7;enable-background:new    ;}
	.st19{display:inline;opacity:0.25;fill:#0A2933;enable-background:new    ;}
	.st20{display:inline;opacity:0.25;fill:#55A59D;enable-background:new    ;}
	.st21{display:inline;opacity:0.33;fill:#D4FFFA;enable-background:new    ;}
	.st22{display:inline;opacity:0.5;fill:#E9FFFC;enable-background:new    ;}
	.st23{display:inline;opacity:0.4;fill:#FFE97D;enable-background:new    ;}
	.st24{fill:url(#SVGID_00000034768201276085071460000011884304414389506689_);}
	.st25{fill:url(#SVGID_00000043449158014129669460000010490333186518324895_);}
	.st26{fill:url(#SVGID_00000166675821663752646920000000902645198563193223_);}
	.st27{fill:url(#SVGID_00000050637074559143342230000005697465479483748776_);}
	.st28{fill:url(#SVGID_00000091005814495112126780000011825147563856049066_);}
	.st29{fill:url(#SVGID_00000054264089732106576620000008111593435173794454_);}
	.st30{fill:url(#SVGID_00000142140465916019126000000017976386734678286009_);}
	.st31{fill:url(#SVGID_00000054236195560807056070000006596230379687727004_);}
	.st32{fill:url(#SVGID_00000038372785912058412400000010979661251031883943_);}
	.st33{fill:url(#SVGID_00000055684797729355200240000007921416751035350459_);}
	.st34{fill:url(#SVGID_00000176028527907585268440000009649138773113425024_);}
	.st35{opacity:0.4;fill:#FFF46B;enable-background:new    ;}
	.st36{fill:#FFF46B;}
	.st37{opacity:0.3;fill:#FFE69F;enable-background:new    ;}
	.st38{opacity:0.5;fill:#FFDB45;enable-background:new    ;}
	.st39{opacity:0.5;fill:#AB153B;enable-background:new    ;}
	.st40{opacity:0.5;fill:#FF4551;enable-background:new    ;}
	.st41{opacity:0.25;fill:#600035;enable-background:new    ;}
	.st42{fill:url(#SVGID_00000074421563302750262470000002498497147739112357_);}
	.st43{fill:url(#SVGID_00000096747353922151052590000012928579395462512770_);}
</style>
<g class="st0">
	
		<radialGradient id="SVGID_1_" cx="109.7127" cy="373.5018" r="437.314" gradientTransform="matrix(1 0 0 -1 0 482)" gradientUnits="userSpaceOnUse">
		<stop  offset="0.1175" style="stop-color:#FDD6A6"/>
		<stop  offset="0.3771" style="stop-color:#FA9694"/>
		<stop  offset="0.4074" style="stop-color:#EE8D92"/>
		<stop  offset="0.6466" style="stop-color:#914A82"/>
		<stop  offset="0.7253" style="stop-color:#733A7D"/>
		<stop  offset="0.8201" style="stop-color:#522978"/>
	</radialGradient>
	<path class="st1" d="M479.6,239.9c0,1,0,2,0,3c0,2.1-0.1,4.2-0.2,6.3c-0.1,3.9-0.4,7.7-0.7,11.6c0,0.3,0,0.6-0.1,1
		c0,0.5-0.1,1.1-0.2,1.6c-1.8,18.1-5.5,35.5-11,52.2c-6.9,20.6-16.4,40-28.3,57.7c-2,3-4,5.9-6.1,8.7c-2.8,3.8-5.7,7.5-8.8,11.2
		c-3.3,4-6.7,7.8-10.3,11.6c-5.5,5.8-11.3,11.4-17.4,16.6c-12.8,11.1-26.9,20.8-41.8,29c-3.8,2.1-7.6,4.1-11.6,5.9
		c-16.5,7.9-34,13.9-52.3,17.8c-4.5,1-9.2,1.9-13.8,2.6c-1.1,0.2-2.3,0.3-3.5,0.5c-3.9,0.5-7.8,1-11.7,1.4
		c-3.4,0.3-6.9,0.5-10.3,0.7h-0.1c-3.8,0.2-7.6,0.3-11.4,0.3c-6.8,0-13.5-0.3-20.2-0.8c-2.9-0.2-5.8-0.5-8.7-0.9
		c-0.2,0-0.3,0-0.5-0.1h0c-7.5-0.9-14.9-2.2-22.2-3.8c-1.9-0.4-3.8-0.9-5.7-1.3c-0.4-0.1-0.9-0.2-1.3-0.3
		c-11.7-2.9-23.1-6.8-34.1-11.4c0,0,0,0,0,0c-5.9-2.4-11.6-5.1-17.3-8.1c0,0-0.1,0-0.1,0c-2.1-1.1-4.2-2.2-6.2-3.4
		c-0.3-0.2-0.7-0.4-1-0.6c-16.7-9.4-32.2-20.8-46.1-33.8c0,0,0,0-0.1,0c-9.7-9-18.6-18.8-26.6-29.3c-1-1.3-2-2.6-3-4
		c-1.9-2.5-3.7-5.1-5.4-7.7c-0.3-0.4-0.6-0.9-0.9-1.3h0c-0.5-0.8-1.1-1.7-1.7-2.5c-0.2-0.3-0.5-0.7-0.7-1c-1.5-2.2-2.8-4.5-4.2-6.8
		c-0.2-0.4-0.5-0.7-0.7-1.1c-1.9-3.3-3.8-6.6-5.6-10c0,0,0,0,0-0.1c-8.1-15.4-14.5-31.7-19.1-48.8c-2.3-8.6-4.2-17.5-5.6-26.4
		c0-0.4-0.1-0.8-0.2-1.2c0-0.1,0-0.2,0-0.2c-0.3-2.4-0.7-4.8-0.9-7.3c0-0.1,0-0.2,0-0.2c-0.2-1.4-0.3-2.7-0.4-4.1c0-0.2,0-0.5,0-0.6
		c-0.2-1.9-0.3-3.8-0.5-5.7c-0.4-5.5-0.6-11-0.6-16.5c0-2,0-3.9,0.1-5.9c0.2-9.9,1.1-19.6,2.5-29.2c0-0.2,0-0.4,0.1-0.6
		c0-0.1,0-0.3,0.1-0.4c0.7-4.8,1.6-9.6,2.6-14.3c0.1-0.4,0.2-0.9,0.3-1.3c0.2-0.8,0.3-1.5,0.5-2.2c0.1-0.4,0.2-0.8,0.3-1.2
		c0.2-0.7,0.3-1.5,0.5-2.2c3.4-13.9,8.1-27.4,13.8-40.2c0.3-0.8,0.7-1.6,1.1-2.4c2.3-5.1,4.8-10.1,7.5-14.9c0-0.1,0.1-0.3,0.2-0.4
		c1.1-2.1,2.3-4.1,3.5-6.2c4-6.7,8.2-13.1,12.7-19.4c4.4-6,9-11.8,14-17.4c1.3-1.4,2.5-2.8,3.8-4.2c10.2-11,21.3-21,33.4-30
		c0,0,0,0,0,0c0,0,0,0,0,0l0,0C137.2,17.8,186.5,0.3,240,0.3c2.3,0,4.6,0,6.9,0.1c1.9,0.1,3.7,0.1,5.6,0.2c5.7,0.3,11.4,0.8,17,1.5
		c1.8,0.2,3.6,0.4,5.3,0.7h0c1,0.1,2,0.3,2.9,0.5c0.9,0.1,1.9,0.3,2.8,0.4c1,0.2,2.1,0.3,3.1,0.5c0.1,0,0.1,0,0.2,0.1
		c1.1,0.2,2.2,0.4,3.3,0.6h0.1c15.4,3.1,30.3,7.6,44.5,13.6c3,1.2,6,2.5,9,3.9c1.2,0.6,2.5,1.1,3.7,1.8c0.9,0.4,1.8,0.8,2.6,1.3
		c0.2,0.1,0.4,0.2,0.6,0.3c0.9,0.4,1.7,0.9,2.6,1.3c1.4,0.7,2.7,1.4,4.1,2.2c2.6,1.4,5.3,2.9,7.9,4.4c7.3,4.3,14.4,9.1,21.2,14.2
		c1.4,1,2.8,2,4.1,3.1c1.5,1.2,3.1,2.4,4.6,3.7c1.1,0.9,2.2,1.9,3.4,2.8c4.4,3.7,8.7,7.6,12.8,11.7c1.3,1.3,2.6,2.6,4,4
		c3,3.1,6,6.3,8.8,9.6c0.2,0.2,0.3,0.4,0.5,0.6c1.2,1.3,2.3,2.6,3.4,4c1,1.2,2,2.4,3,3.7c0.1,0.1,0.2,0.2,0.3,0.4
		c0.5,0.7,1,1.3,1.5,2c0,0.1,0.1,0.1,0.1,0.2c16.8,21.7,29.9,46.3,38.5,72.9c0.4,1.3,0.8,2.6,1.2,3.9c2.6,8.4,4.7,17.1,6.3,25.9
		c0.5,2.4,0.9,4.9,1.2,7.3c0.5,3.1,0.9,6.2,1.3,9.3c0.9,8.4,1.5,17,1.5,25.7C479.6,239,479.6,239.5,479.6,239.9z"/>
	<g class="st2">
		<path class="st3" d="M308.3,240.5c5.6-4.9,9.5-10.2,21.3-17.6C281.1,235.9,301,237,308.3,240.5z"/>
		<path class="st3" d="M405.7,279.2c-2.2,0.6-4.8,1.3-7.6,2.3C400.4,280.8,403,280,405.7,279.2z"/>
		<path class="st3" d="M357.8,192.3c1.4-0.4,3.9-0.6,7.1-0.9C363.1,191.1,360.8,191.2,357.8,192.3z"/>
		<path class="st3" d="M478.5,263.4c0.1-0.5,0.1-1.1,0.2-1.6c-1,0.5-2,1.1-3.3,1.8C476.7,263.9,477.8,263.8,478.5,263.4z"/>
		<path class="st3" d="M253.9,293.5c-31.6,8.5-2.4,10.1,13.9,4.1C254.7,297.9,250.3,296.4,253.9,293.5z"/>
		<path class="st3" d="M364.3,304.2c-7.6,8.2-5.9,14.2-9.1,14.8C372.9,314.8,366.7,310,364.3,304.2z"/>
		<path class="st3" d="M388.3,288.6c0.3,1.4,1.6,2.5,3.8,3.5c11.4-7,27.3-14.9,34.6-17.3C410.3,279.7,397.8,284.3,388.3,288.6z"/>
		<path class="st3" d="M436.9,296.1c-7.9,1.5-34.4,0.6-44.8-4C372.2,304,366.5,315.5,436.9,296.1z"/>
		<path class="st3" d="M306.1,324.2c1.2,0.1,3.5-0.3,7.2-1.2C310.7,323.5,308.3,323.9,306.1,324.2z"/>
		<path class="st3" d="M375.9,204.6c2.6,2.8,6.6,4.3,14.1,2.4c2.8-0.8,5.6-1.7,8.5-2.7c-0.9,1.2-1.3,2.3-1.3,3.2
			c9.1-2,20.8-5.3,35.1-10.5c3-1.7,0.4-3.1-5.5-4.1c16.1-7.4,31.6-16,42.5-22.6c-0.4-1.3-0.8-2.6-1.2-3.9
			c-22.9,9.7-40.8,18.2-52.7,25.2c-4.1-0.3-8.7-0.6-13.5-0.7c12.8-4.8,27.5-10.2,44.4-16.3c-18.6,6.1-33.5,11.6-44.8,16.3
			c-13.2-0.4-27.7-0.2-36.7,0.5c4.9,0.9,6.3,6.1,8.9,10.5c7-2.9,15-6,23.9-9.4C386,197.6,378.9,201.7,375.9,204.6z"/>
		<path class="st4" d="M181.3,472.3c0.4,0.1,0.9,0.2,1.3,0.3c-0.7-1.9-0.8-4.1,0.5-6.4c-3.1-1-6.3-1.9-9.7-2.7
			C174.9,466.4,178.4,469.7,181.3,472.3z"/>
		<path class="st5" d="M202.9,354.4c-0.5,0,0.1,0.5,1.8,1.2C204.8,354.7,204.3,354.2,202.9,354.4z"/>
		<path class="st4" d="M247.7,403.9c-9.3-2.3-17.1-5-20.9-7.4c-10,3.7-29.5,8.1-54.1,10.4C193.7,407.6,199.2,406.8,247.7,403.9z"/>
		<path class="st4" d="M188.8,461.1c-3.6-1.9-5.9-3.1-4.3-3.2c-9.2-0.5-12,1.2-11.6,3.9c4.8,0.5,9,1,12.6,1.6
			C186.3,462.6,187.4,461.8,188.8,461.1z"/>
		<path class="st4" d="M203.1,474.1c-2.8-1.3-5.7-2.6-8.8-3.9c-5.8,0.6-7.3,2-5.9,3.7c7.3,1.6,14.7,2.9,22.2,3.8c-2-1-4-2-6.2-3.1
			c0.3-0.6,0.3-1.4,0-2.1C204.1,473.1,203.7,473.6,203.1,474.1z"/>
		<path class="st4" d="M154.2,460.4c6.7,0.6,13.1,1.8,19.2,3.2c-0.3-0.6-0.5-1.2-0.6-1.8C167.4,461.2,161.2,460.8,154.2,460.4z"/>
		<path class="st4" d="M253.7,403.5c-2.1,0.1-4.1,0.3-6,0.4c0.6,0.1,1.1,0.3,1.7,0.4C250.7,404.1,252.1,403.8,253.7,403.5z"/>
		<path class="st3" d="M228.9,190c-1.6,1.9-4,4.6-7.1,7.6c6.1-1.8,12.8-3.6,19.3-5.2c1.9-0.9,4.3-2.1,7.1-3.4
			C239.1,190.1,232.4,190.3,228.9,190z"/>
		<path class="st3" d="M324.1,100.4c-3.6,1.4-7.4,2.8-11.4,4.3c4.7-1.5,9.1-2.9,13.3-4.2C326.4,100.1,325.8,100.1,324.1,100.4z"/>
		<path class="st3" d="M305.5,88.3c-19.9,9.3-40.5,17.9-53.6,22.3c9.3-2.8,20.6-6.9,32.1-11.5c4.9-1.8,8.8-3.5,11.9-4.9
			c-0.4,0.2-0.8,0.3-1.2,0.5c0.5-0.2,0.9-0.4,1.4-0.6C300.6,91.8,303.6,90,305.5,88.3z"/>
		<path class="st3" d="M231.4,187.2c-6.4,1.4-6.9,2.5-2.5,2.9C230.1,188.6,230.9,187.6,231.4,187.2z"/>
		<path class="st3" d="M283.4,103.8c57.3-16.1,82-20.3,30.4-0.7c5.1-1.4,8.5-2.3,10.4-2.7c70.6-27.7,64.1-34.5,71.2-42.9
			c-1.1-1-2.2-1.9-3.4-2.8c-15,7.2-32.4,16.4-36.3,19.7c-5.9,0.7-11.3,0.6-14-0.6l-8.4,3.9C317.8,86.6,293,98.9,283.4,103.8z"/>
		<path class="st3" d="M220,199.4c0.6-0.6,1.3-1.1,1.9-1.7c-4.9,1.4-9.4,2.8-13.2,4.1C212.5,200.9,216.3,200.1,220,199.4z"/>
		<path class="st3" d="M215.6,205.8c-2.9,0.9-5.6,1.7-8.1,2.5c-1,0.6-2,1.1-3.1,1.6c-1,0.1-2,0.1-2.8,0.2c-35.9,11.1-6.9,5.5,6.4,4
			c-4.4,1.9-6,4.7-2.9,6.6c-23,10.5-20,16.4-8,13.3c23.1-5.6,36.1-9.9,42.8-13.2c3.9-0.6,8.2-1.4,12.9-2.5
			c-18.4,2.7,33.9-24.2,15-19c-13.6,3.8-25.2,7.4-35,10.7c-3.5-1.1-4.2-2.5,4.5-5.1c18.5-6.2,85.7-12,109.2-21.7
			c-27.6,6.1-61.9,2.6-126.7,16.2c-2.9,2.6-6.4,5.3-10.5,7.8C211.3,206.8,213.3,206.4,215.6,205.8z"/>
		<path class="st3" d="M400.2,129.4c-0.9,0.7-1.6,1.3-2.3,1.9C399,130.5,399.8,129.9,400.2,129.4z"/>
		<path class="st3" d="M275.8,105.9c-4.1-0.1-16.2,2.6-54.7,15.4C241,115.7,259.5,110.5,275.8,105.9z"/>
		<path class="st3" d="M437.2,113.9c-19.4,6.2-28.9,10.4-34.1,13.6C412.2,123.6,423.5,119.1,437.2,113.9z"/>
		<path class="st3" d="M279.4,106.1c0.3-0.3,1.8-1.1,4-2.2c-2.5,0.7-5,1.4-7.5,2.1C279.1,105.9,277.3,107.5,279.4,106.1z"/>
		<path class="st3" d="M400.2,129.4c0.8-0.6,1.7-1.2,2.9-1.9c-0.8,0.3-1.6,0.7-2.4,1C400.6,128.7,400.5,129,400.2,129.4z"/>
		<path class="st3" d="M397.9,131.2c-2.6,1.8-7.3,4.1-15.1,7.3C393.7,136.2,394.6,134.3,397.9,131.2z"/>
		<path class="st3" d="M209.5,207.2c-12.1,2.7-11.5,3.1-7.8,2.9c1.8-0.6,3.8-1.2,5.9-1.8C208.2,207.9,208.9,207.6,209.5,207.2z"/>
		<path class="st3" d="M253,218.4c2.3-0.3,5.6-1.1,10.4-2.4C259.7,216.9,256.3,217.7,253,218.4z"/>
		<path class="st3" d="M429.5,93.3c-2.5,1.2-5,2.4-7.4,3.5c2.7-1.1,5.2-2.2,7.5-3.3C429.6,93.4,429.6,93.4,429.5,93.3z"/>
		<path class="st3" d="M247.4,141.3c-18.8,5-31.4,9.3-42.1,13.1c0.9,0.2,2,0.4,3.2,0.5C217,151.6,229.6,147.3,247.4,141.3z"/>
		<path class="st3" d="M202.7,139.8c-1.1,0.5-2.4,0.9-3.7,1.4c-0.3,0.2-0.6,0.3-0.9,0.4c3-1,6.2-2,9.7-3.1
			C206.1,139,204.4,139.4,202.7,139.8z"/>
		<path class="st3" d="M304.2,58c-0.2,0.1-0.4,0.2-0.6,0.3C312.7,54.8,316.4,53.3,304.2,58z"/>
		<path class="st3" d="M213.8,77.4c2.4-1.2,5.9-2.6,10.4-4.2C217.3,75.4,214.2,76.7,213.8,77.4z"/>
		<path class="st3" d="M213.8,77.4c-0.6,0.3-1.1,0.6-1.6,0.9c0.6-0.1,1.2-0.2,1.8-0.4C213.7,77.8,213.6,77.6,213.8,77.4z"/>
		<path class="st3" d="M237.1,88.2c4.3,0,7.7,0.4,13.1-0.1C249.2,87.2,244.2,87.3,237.1,88.2z"/>
		<path class="st3" d="M208.3,146.1c35.6-13.5-29.3,5-10.2-4.4c-68.6,22.1-21.3,19.1-49.3,29.1c27.1-5.1,39.3-10.2,56.5-16.4
			C199.9,153.2,199.2,150.7,208.3,146.1z"/>
		<path class="st3" d="M160.5,95.9c1.2-0.3,2.2-0.6,3.2-0.9C162.2,95.3,161.1,95.7,160.5,95.9z"/>
		<path class="st3" d="M146.2,157c3.9-1.4,6.2-2.5,7.5-3.5C126.8,161.6,118.1,165.9,146.2,157z"/>
		<path class="st3" d="M290.8,148.4C291.3,148.3,291.4,148.3,290.8,148.4L290.8,148.4z"/>
		<path class="st3" d="M305.5,88.3c12.5-5.9,24.8-12,34.6-17.3c-0.3,0.7-0.1,1.3,0.3,1.8c-10.1,5.6-26.9,13.7-44.3,21.2
			c11.1-4.6,24-10.3,37.2-16.4c2.9-1.7,5.4-3.2,7.4-4.5c0.3,0.2,0.6,0.4,1,0.6c16.8-7.9,33.3-16.2,45.7-22.8
			c-1.3-1.1-2.7-2.1-4.1-3.1c-8.8,3.6-16,6.8-21.9,9.5c0.8-1.8-4.7-0.7-19.8,4.7C297.5,77.5,315.4,79.7,305.5,88.3z M345.2,68.2
			c1.4-0.8,2.7-1.5,4-2.2c2.3-0.2,0.2,1.7-5,4.7C345.9,69.3,346.4,68.4,345.2,68.2z M341.9,68.6c-2.6,0.6-6.5,1.7-12.2,3.6
			c5.9-2.2,10.3-3.8,13.6-4.8C342.8,67.8,342.3,68.2,341.9,68.6z"/>
		<path class="st3" d="M421.4,83.3c-0.2-0.2-0.3-0.4-0.5-0.6c-3.5,1.3-7.5,2.8-12.1,4.7C413.3,85.9,417.5,84.5,421.4,83.3z"/>
		<path class="st3" d="M288.9,117.6c62.9-17.5,38.2-5.3,50.5-6.3c-70.5,26.4-47.4,21.2-112.5,43.3c-6.8,0.6-13.5,0.8-18.4,0.3
			c-33.8,12.6-2.9,8.1,18.5,2.1c31.7-5.8,106.5-25.2,49-5c5.3-1.3,8.9-2.1,11.2-2.7c-3.6,0.7-4.6,0.6,24.3-7.2
			c-76.1,25.2-47.2,23-34.9,24.7c-29.2,9.4-31.8,13.2-22.7,14.2c3.6-4,15.4-10.6,23.4-14.2c5,0.6,6.8,1.8-4,5.6
			c1.6,0.5,19.6-8.9,33.4-16.6c0.7,0,1.3,0,1.8,0.1c-1.3,0.6-2.6,1.1-4,1.7c0,0.4,1.2,0.2,3.2-0.5c-1.5,2.2-2.7,4.6-4,6.9
			c3.1-1.5,6.1-2.9,8.9-4.3c0.5,1.5,1.6,2.8,7,2.1c-5.5,1.8-11.6,3.7-18.3,5.8c0.9-1.2,1.7-2.4,2.4-3.7
			c-12.2,5.7-25.9,11.9-37.7,17.1c-4.9,0.2-9.1,0.2-12.1-0.1c-2.2,2.4-1.4,3.9,5,3.3c-4,1.8-7.6,3.4-10.7,4.8
			c4.7-0.5,10.1-1.3,16.2-2.4c-6.6,1.6-14.8,3.6-23.2,5.7c-2.6,1.3-4.3,2.3-4.6,2.7c30.6-7.3,42.1-10.8,42.7-11.4
			c11.5-2.5,24.6-5.9,38.9-10.6c-11,3-27,5.7-40.9,7.1c2.9-0.8,6.1-1.7,9.6-2.8c6.9-2.4,10.8-5.4,13.5-8.7
			c-4.7,1.1-9.6,2.4-14.8,3.8c5.6-1.8,10.7-3.4,15.7-4.9c-0.3,0.4-0.5,0.8-0.9,1.1c59.6-14.9,74.9-6.9,87.5-11.1
			c13-4.4,9-6.2,0.8-7.2c10.1-2.7,26-7.8,50.5-16.9c-28,9.7-52.5,14.6-63.4,14.4c5.1-4.8,13.5-10.4-4.5-4.2
			c-2.8,2.8-0.8,4.1,4.5,4.3c-0.5,0.5-0.9,0.9-1.3,1.3c-3.8-0.3-7.1-0.7-8.7-1.3c2.3-0.9,2.2-1.1-0.7-0.4c-0.9-0.6-0.3-1.5,2.9-2.8
			c1.2-0.4,2.3-0.8,3.4-1.1c3.1-3.1,12.3-8,29.2-15.2c1-5.5-43.7,2.8-4.1-14.4c0-2.3,3.8-6.2,13.4-12.3c3.6-1.3,7.7-2.9,12.1-4.9
			c-3.6,1.5-7.6,3.1-11.9,4.8c4.5-2.9,10.4-6.3,17.8-10.2c-0.1-0.1-0.2-0.2-0.3-0.4c-1-1.2-2-2.5-3-3.7
			c-41.7,14.1-85,30.2-52.4,15.6c-39.6,10.9-5.7-9.1,33.7-29.5c-0.6,1.2,1.9,0.8,5.9-0.2c-1.3-1.4-2.6-2.7-4-4
			c-2,2.3-10.8,7.2-82.1,31.2C322.2,104,233.6,132.9,288.9,117.6z M280.4,165.5c1-0.4,2-0.7,2.7-0.8
			C282.2,164.9,281.3,165.2,280.4,165.5z M307.7,157c0.3-0.4,0.5-0.8,0.9-1.2h0c0.6,0.1,1.2,0.2,1.6,0.3
			C309.3,156.5,308.5,156.8,307.7,157z M393.8,108.2c-6.2,2.2-12.1,4.5-17.6,6.7C381.4,112.7,387.2,110.4,393.8,108.2z"/>
		<path class="st4" d="M413.1,372c-3.8,1.2-7.5,2.7-10.9,4.4c25.3-14.1,23.6-19-16.3-4.6c1.7-0.8,3.9-1.8,6.7-3.2
			c-3.5,0.4,3.8-5,10.2-10.2l0,0c4.2-1,9.2-2.3,15.8-4.3c-4.1,0.5-7.9,0.6-11.3,0.6c0,0,0,0,0,0c23.5-12.1,22.4-23.6-2.3-18.3
			c-15.7,3.2-22.2,7.4-21.9,11c-2.6,0.5-5.5,1.4-8.7,2.5c-14.9,4.9,38.8-6.9-44.7,26.1c2.6-1.6,36.3-22,28-22.6
			c0.3,1.9-7.8,7.7-10.1,9.6c-4.8-0.5-52.9,10.1-42.7,8.3c-5.7,3.3,0.6,3.1,6.4,3.5c-2.2,0.4-7.3,1.5-16.3,3.5
			c7.5-1.5,14.1-2.9,16.6-3.5h0c4.3,0.3,8.3,1,6.5,3.8c-31.3,4.1-41.5,5.8-42.2,5.8c0.6-0.3,10.8-2.4,17.3-5.6
			c0.6-0.1,1.2-0.3,1.8-0.4c-12.1,2.4-26.7,4.6-30.8,4c30.7-7.2,44-26.2,58.5-31.5c-32.5,5-48.2,9.5-52.9,12.9
			c1.3-5.4,9.3-13.1-9.9-13.5c4.6-1.8,8.6-3.2,11.5-3.9c-4.6,0.9-9.8,2.3-15,3.9c-8.4,0.2-20.7,1.4-38.9,3.9
			c-2.1,0.1-3.3,2.5-0.9,5.3c-5.4-1.5-9.4-2.9-11.7-3.8c-0.1,1-0.9,2.7-1.8,4.6c5.3,0.5,8.8,3.1,9.4,6.6c-4.1-0.6-7.9-1.2-11-1.8
			c0.3-1.6,1-3.3,1.6-4.8c-1.1-0.1-2.3-0.1-3.5,0c-11.2,1.2-7.7,3,1.9,4.8c-0.7,3.9,0.7,7.7,8.5,9.3c-1.1,1.2-2.5,2.5-4.3,3.6
			c-7.6,0.8-22,2.5-45.4,5c0.3,0.1,0.6,0.2,0.9,0.3c-1.8,0.1-3.6,0.2-5.5,0.4c10.8-4.2,12.3-9.3,17.6-10.4
			c-58.1,4.5-12.8,8.8-29.8,9.9c-28.2,1.5-26.3-6.6,6.8-10.1c-13.1,1.3-21.3,2.8-26.4,4.2c0.2,0,0.4,0,0.6,0c-0.2,0-0.5,0-0.7,0.1
			c-12.8,3.6-6.4,7.5-11.9,8.1c-1.6,0.1-3,0.1-4.2,0c-0.7-0.3-2-0.6-3.8-0.8c-1.2-0.5-1.7-1.2-1.5-2c-0.9,0.6-1.6,1.1-2.4,1.7
			c-3.9-0.1-9.1,0-15.3,0.5c-9.5,1.2-8.3,3-4.2,4.9c-0.9,0-1.9,0.1-2.9,0.2c1.1,0,2.2,0,3.2,0c4.4,1.9,11.6,3.7,13.9,4.4
			c-4.9,1.4,11.6,0.8-9.8,2.8c18.8,1-11.3,3.2-3.2,4.4c8.8,1.2,19.7,3.9,6.3,5.4c0.2,1.2-5.8-0.2,36.2,0.3c-3.4,0.8-2,3.4-12,5.6
			c2.4-0.2,5.4-0.2,9.6-0.1c-6.6,0.5-14.2,2.2-17.3,4h-3.3c1,0,2,0.1,3,0.2c-2.8,1.8-1.1,3.6,9.5,4.7c-0.7-0.5,2.2-1.4,4.1-2.4
			c2,0.5,3.7,1.1,5.1,1.7c4.2-0.6,10.9-1.1,21.3-1.3c-1.2,0.9-1.3,1.8-0.7,2.6c-12.7,0.8-15.5,2.9-11.1,4.7c1.2-0.6,2.8-1.1,4.6-1.6
			c1.5-0.9,3.9-1.7,7.1-2.3c0.1,0,0.1,0.1,0.2,0.1c0-0.1,0-0.1,0-0.2c2.9-0.5,6.3-0.9,10.4-1.1c-3.9,0-7.3,0.1-10.2,0.3
			c0.5-1.4,2.2-2.5,5.1-2.7c-1.9,0-3.7,0-5.4,0.1c1.6-1.2,5.2-2.4,11.8-3.3c2.8-0.1,6-0.3,9.4-0.7c-0.7,0-1.5-0.1-2.2-0.2
			c1.6-0.2,3.4-0.3,5.3-0.5c-3.4,0-6.4-0.1-9.1-0.1c-13.9-2.6-19.3-8.1,10.4-11.2c1.7-2.7,10.7-0.9,28.9-4.3
			c-4.9-0.8-11.5-1.2-18.6-1.5c45.4-2.8,49-6.4,45.5-7.4c2.2,0,4,0.2,5.3,0.4c-7.8,1.2-8.3,3.4-4.2,5.9c3.1-1.2,5.3-2.3,6.4-3.2
			c-2.1-1.3-2.9-2.2-1.9-2.6c-0.1,0-0.1,0-0.2,0c0.2,0,0.3,0,0.5-0.1c-0.1,0-0.2,0.1-0.3,0.1c2.7,0.5,3.2,1.4,1.9,2.6
			c9,5.1,37.1,16.4,48.1,15.2c6.1-0.8,10.3-2,13.2-3.4c-2.4,1.3-4.2,2.3-5.5,3.2c-2.9,0.2-5.7,0.4-8.3,0.5
			c-10.5-0.4-21.5-2.2-31.1-4.4c-19.9,3.2-8.5,3.5-91.5,8.8c34.9-0.4,48.3,1.5,56,4.2c-2.6-0.1-5.6-0.2-9.1-0.1
			c-11.2-0.2,2.3,1.4,15.8,3c-1.9-0.9-4-1.9-6.7-2.8c7.7,0.5,11.4,1.8,12.7,3.5c-2-0.2-3.9-0.5-6-0.7c2,0.9,3.9,1.7,6.5,2.3
			c-0.1,3.1-4.9,6.7-8.3,8.8c-47.4,0.8-37.3,3.8-2.9,1.6c0.6-0.3,1.7-0.9,2.9-1.6c6.3-0.2,13.6-0.3,22-0.5
			c-40.1,4-67.9,6.9-56.3,9.1c-6.8,1.7-10.4,5.1-6.9,7.1c3,1.9,38.3,1.3,3.9,2.4c27.3,1.9,25.8,4.4,34.2,6.2
			c-0.1,0.2-0.1,0.4-0.2,0.6c-11.9-0.3-15.1,0.2-13.6,1.1c3.8-0.6,8.4-1,13.6-1c-0.4,1.2-1,2.6-2.5,4.1c-5.4-1.1-9.8-2.2-11.1-3
			c-5.8,0.9-10.1,2.2-13.1,3.8c2.7,1.4,6.1,3.2,8.9,5.1c-3-1-7.1-2-12.3-2.9c-1.1,0.9-1.8,1.9-2.3,2.9c3.9,1.3,7.6,2.6,11.2,4
			c2.1-0.2,4.8-0.3,8.1-0.4c0.9,0.9,1.6,1.8,1.9,2.7c0.4-0.9,0.3-1.8-0.4-2.7c4.2,0,9.3,0.2,15.4,0.5c0,0.5-3.2,3.8-8.4,7.5
			c2.9,0.3,5.8,0.6,8.7,0.9c6.6,0.5,13.4,0.8,20.2,0.8c3.8,0,7.6-0.1,11.4-0.3h0.1c3.4-0.2,6.9-0.4,10.3-0.7
			c-0.5-0.3-0.6-0.7-0.4-1.3c22.9-5.7,40-17.6,39.3-21.2c-0.7-0.5-2.6-0.7-5.4-0.7c5.5-3,11.3-6,17.2-9.1c-2.7,5.5,64-22.1,31-6.5
			c31.9-10.7,14.2,1.4,2.8,9.5c-3.8,0.7-12.8,3.7-31.1,11c10.8-3.7,19.9-6.4,26.9-8c-3.1,2.3-4.6,3.8-2.5,3.4
			c-2.2,1.8,4.6-1.9,7.7-4.5c3-0.5,5.4-0.8,7.2-0.8c15-8.2,29-17.9,41.8-29c-3.8-1.4-12.9-1.6-2.3-7.5c7.1-3.2,13.7-6.3,19.7-9.2
			c3.6-3.7,7-7.6,10.3-11.6c-0.6,0.2-1.2,0.5-1.8,0.7c-9.6,4.2-20.8,8.8-27.8,10.9c2.7-1.8,21.5-12.6,38.4-22.8
			c2.1-2.9,4.2-5.8,6.1-8.7c-12.8,6.6-31.9,15.9-59.5,26.1C406.2,386.9,449.3,358.5,413.1,372z M153.2,384.3
			c3.1-0.2,6.3-0.5,9.4-0.7c0.8,0.3,1.8,0.7,2.8,1.2c-6.3,1.5-16.1,3.1-30.2,3.2C143,387.1,148.7,385.8,153.2,384.3z M173.4,397.3
			c-9.8-0.3-20.3-0.6-29.4-1.2c-7.3-1,9.8-7,21.5-11.1C172.8,388.2,181.7,394.4,173.4,397.3z M196.4,381.9c-4.4-0.1-11.2,0-19.3,0.3
			c10.6-1.1,20.1-2.3,26.6-3.3C201.7,380,199.3,381,196.4,381.9z M317.5,379.3c-1.5,1.6-4.7,4-10.5,7.2c19.5-4-12.2,13-4.7,14.5
			c-2.8,1.4-5.1,2.6-7.1,3.6C306.8,397.9,295.1,385.9,317.5,379.3z M228,420.6c67.8-8.6,49.2-8.4,59.6-11.5
			c-6.4,4.8,13.9-0.9,55.5-14.1c-14.1,7-24.1,12.5-29.8,16.6c-0.9,0.3-2,0.7-3.5,1.3c-11.1,4.3-20.4,8.1-28.3,11.4
			C280.7,421,267.4,418.9,228,420.6z M221.9,456.6c0.9,0.1,2,0.2,3.1,0.3c-2.8,1.4-5.8,2.7-8.8,4.1c-0.8-0.2-1.6-0.3-2.4-0.5
			C216.5,459.2,219.2,457.9,221.9,456.6z M216.5,461c3-1.3,6.1-2.7,9.3-4.1c0.2,0,0.4,0,0.6,0c11.1,2.2,26.6,6.3,10.1,7.7
			C233,464,224.4,462.6,216.5,461z M326.6,435.9c-24.9,8.6,7.8,1.3-44.2,20.1c-3.1,0.3-6.4,0.5-9.5,0.8
			c-25.7-2.9,26.9-19.9,10.7-23.4c3.3-1.2-0.8-1-7.6-0.4c13.4-6.7,24.9-12.8,32-16.9c-2.6,3.8,4.9,3.9,23.1-1.2
			c-22.9,12.9,7.8,1.1,6.4,5.5C361.3,413.9,341.7,426.3,326.6,435.9z M392.8,381.2c-5.9,3.3-9.6,5.7-9.1,4.4
			C387,384.1,390,382.6,392.8,381.2z M407.2,354.7L407.2,354.7C407.2,354.7,407.2,354.7,407.2,354.7L407.2,354.7
			C407.2,354.7,407.2,354.7,407.2,354.7z M355.7,372.1c19.5-8.8,30.1-15.3,34.5-19.5c0,0,0,0,0,0c2.3,0.7,5.2,1.3,8.5,1.6
			c0,0,0,0,0,0h0C388.6,358.7,374.6,364.8,355.7,372.1z M380.9,373.5c-3.5,1.3-7.2,2.7-11.3,4.2C385.9,369.5,380.5,373,380.9,373.5z
			"/>
		<path class="st4" d="M277,476.7c0.6-0.3,1.3-0.6,2-0.9c-2,0.5-3.8,1-5.5,1.4C274.7,477.1,275.8,476.9,277,476.7z"/>
		<path class="st4" d="M343.1,456.3c-17.9,5.9-37.5,12.8-52.3,17.8C309.1,470.2,326.6,464.2,343.1,456.3z"/>
		<path class="st3" d="M250.2,88.1c1,0.9-2,2.7-10.9,5.7c10.4-2.4,27.3-6.9,42.8-13.4C265.6,85.7,256.5,87.5,250.2,88.1z"/>
		<path class="st3" d="M235.6,94.7c0.1-0.1,0.2-0.1,0.3-0.1C226.9,96.2,228.4,96.2,235.6,94.7z"/>
		<path class="st3" d="M234.5,95.4c1.8-0.6,3.4-1.1,4.8-1.6c-1.4,0.3-2.6,0.6-3.7,0.8c-0.6,0.3-1.2,0.6-1.7,0.9
			C234.1,95.5,234.3,95.5,234.5,95.4z"/>
		<path class="st3" d="M214,77.9c3.9,1.3,36.4-4.2,40-3.5c1-0.3,2-0.6,3-0.9C259.4,70.8,235.3,73.7,214,77.9z"/>
		<path class="st3" d="M284.7,57.5c27-9,17-10.6,11.2-9C285.7,54.2,283,57.8,284.7,57.5z"/>
		<path class="st3" d="M300.7,46.9c-0.1,0-0.2,0.1-0.3,0.1C300.9,46.8,301.1,46.8,300.7,46.9z"/>
		<path class="st3" d="M341.9,35.1c1.4-0.4,1.7-0.5,1.2-0.5C342.7,34.8,342.4,35,341.9,35.1z"/>
		<path class="st3" d="M294.8,48.8c0.4-0.1,0.8-0.3,1.2-0.4c0,0,0.1-0.1,0.2-0.1C295.7,48.5,295.2,48.7,294.8,48.8z"/>
		<path class="st3" d="M320.9,41.5c3.4,0.7,3.4,3.2-27,13.9C326.3,44.1,330.4,39.9,320.9,41.5z"/>
		<path class="st3" d="M31.9,256.7c-0.7,0.1-1.4,0.2-2.1,0.3C30.5,256.9,31.2,256.8,31.9,256.7C31.9,256.7,31.9,256.7,31.9,256.7z"
			/>
		<path class="st3" d="M65.1,251.8c-2.7,0.5-5.5,1-8.4,1.5c0,0,0.1,0,0.1,0c39.2-7,15.6,2.3-3.1,8.5c1.5,0,3.6-0.1,6.3-0.4
			c-2.9,0.4-5.6,0.7-8,0.9c-7.7,2.5-14.3,4.5-15.1,4.7c14.9-2.5,27-5.2,36.1-7.6c0.4-0.1,0.7-0.1,1.1-0.2c-0.3,0.1-0.7,0.1-1,0.2
			C99,252.3,100.4,247.2,65.1,251.8z"/>
		<path class="st3" d="M55.9,193.2c-3.8,0.9-8,1.9-12.6,3.1c0.6,0,1.3,0,1.9,0c20.2-3.9,35.8-6.8,48-8.7c-1.8-0.8-8.1-0.6-24.4,2.8
			c-11.5,0.4-2.8-7.3,9.7-11c-13.4,3.4-23.5,6.2-30.6,8.5c8.3-3.9,11-6.2,0.1-3.7c3.8-0.8-2.1,2.5-5.2,5.5c-3.8,1.4-6.2,2.6-7.4,3.6
			c2.3-0.9,4.5-1.8,6.5-2.7C39.7,193.2,41,195.3,55.9,193.2z M83.2,187.9c-1.5,0.4-2.8,0.7-4.1,0.9
			C80.3,188.6,81.7,188.3,83.2,187.9z"/>
		<path class="st3" d="M208.8,241.1c1.5-0.4,3.1-0.9,4.8-1.3C218.8,237.8,215.9,238.7,208.8,241.1z"/>
		<path class="st3" d="M208.8,241.1c-6.2,1.8-10.7,3.3-14,4.6C200.2,243.9,205.1,242.3,208.8,241.1z"/>
		<path class="st3" d="M92.6,320c1.9-0.2,3.6-0.4,5.3-0.6C96,319.5,94.2,319.7,92.6,320z"/>
		<path class="st3" d="M118.4,320.7c-2.1-1.7-7.1-2.6-20.4-1.3C104.4,319,112.2,319.7,118.4,320.7z"/>
		<path class="st3" d="M77.7,292.4C77.7,292.4,77.7,292.4,77.7,292.4C77.6,292.4,77.6,292.4,77.7,292.4z"/>
		<path class="st4" d="M164,425.1c2.6-0.1,5.4-0.3,8.5-0.4C169.1,424,166.4,424.4,164,425.1z"/>
		<path class="st4" d="M122.9,420.7c-1.9,0.3-3.4,0.6-4.4,1c-1.8-0.1-3.4-0.2-4.8-0.4c0.3,0.3,1.6,0.5,4.3,0.6
			c-3.8,1.6-0.8,3.5-2,3.9C128.4,425.6,128.4,423,122.9,420.7z"/>
		<path class="st4" d="M155.2,429.1c-0.5,0-0.9-0.1-1.3-0.1c0,0,0,0.1,0,0.1C154.3,429.1,154.8,429.1,155.2,429.1z"/>
		<path class="st4" d="M155,426.7c2.8,1,5.4-0.6,9.1-1.7c-4.5,0.3-8.3,0.6-11.5,0.9c0.1,0.1,0.2,0.2,0.3,0.4
			C153.5,426.5,154.2,426.6,155,426.7z"/>
		<path class="st4" d="M137.1,425.1c-1.4,0.8-2.1,1.6-2.1,2.4c-1-0.2-1.8-0.5-2.5-0.8c-5.3,2.5-5.6,5.7-0.9,5.9
			c3.3,0.2,1.6-1.5,4.9-3.2c1.9,1.1,5.5,1.9,11.1,2c4.5,0.1,6.1-0.9,6.3-2.2c-6,0-10.9-0.3-14.8-0.9c1.8-0.6,4.2-1.1,7.7-1.6
			c1.6,1.1,4,2.1,7.1,2.4c0.1-0.8-0.4-1.8-1.1-2.7c-0.4-0.1-0.8-0.2-1.2-0.3c0.3,0,0.6-0.1,0.9-0.1c-1.2-1.4-3-2.5-3.6-2.5
			c-1.2,0-2.3,0.1-3.4,0.2c-0.4-0.2-0.8-0.5-1.1-0.8c0,0.3,0.1,0.6,0.1,0.9C141.7,424,139.2,424.5,137.1,425.1z"/>
		<path class="st4" d="M103.6,413.9c3.6-0.4,6.4-0.9,8.7-1.3C108.4,412.8,106.1,413.4,103.6,413.9z"/>
		<path class="st4" d="M76.5,415.1C76.5,415.1,76.5,415.1,76.5,415.1c17.4,0.9,22.7-0.2,27.1-1.2C97.3,414.6,88.6,415.1,76.5,415.1z
			"/>
		<path class="st4" d="M102.4,382.4c3.1-2.1,7.8-4.1,21.4-5.4c0,0,0.1,0,0.1,0C109.5,377.8,103.1,380.4,102.4,382.4z"/>
		<path class="st4" d="M116,425.8c-0.4,0-0.7,0-1.1,0C115.4,425.9,115.8,425.8,116,425.8z"/>
		<path class="st3" d="M46.9,381.9c1,1.3,2,2.6,3,4C50.8,384.8,49.1,383.3,46.9,381.9z"/>
		<path class="st6" d="M427.1,245.5c57.6-24.7,0.5-9.4,51-32.7c-0.3-3.1-0.8-6.2-1.3-9.3c-14.8,3.2-16.3,2.3-19.6-0.4
			c-40.5,10.8-59.9,10.5-60,4.5c-18.9,4-26.6,2.3-21.3-2.9c-0.8-0.8-1.5-1.8-2.1-2.8c-21.9,8.9-35.3,15.6-44.1,21.1
			c1.4-0.4,2.8-0.8,4.3-1.2c31.4-7.5-2.2,19.1-17.7,30.3c-0.9-2-6.3-3.6-20-2.6c16.6-4.7,16.2-7.1,12.1-8.9
			c-3.8,3.2-8.4,6.3-16.5,9.3c-15.6,1.5-40.3,6.1-77.8,14.4c-1.4,0-2.6,0-3.6,0c-47.9,8.2-11.2-7.5-2.9-11.2
			c-27,3.6,8.7,4.6-70.2,18.7c20.3-4.5,31.1-8.2,37.4-11.2c-14.6,2.9-18.1,2.6-17.2,1.3c5.6-0.5,12.1-1.3,19.5-2.4
			c-0.7,0.4-1.4,0.8-2.3,1.2c4.7-0.9,10.5-2.2,17.7-3.9c-5.5,1.1-10.6,1.9-15.4,2.7c9.4-5.3,5.1-8.4,17.9-13.7
			c-10.2,3.3-22.4,7.2-33.1,10.4c-9.4,2.1-16.9,4.1-22.8,5.8c0.5,0.1,1.1,0.2,1.6,0.2c-2.7,0.7-4.7,1.2-5.6,1.3
			c-0.5,0.1-1.1,0.1-1.6,0.2c1.7-0.5,3.5-1.1,5.6-1.7c-10.7-2.1,7.1-9.8,65.5-24c-93.3,19.6-82.5,26-71.1,25.7
			c-11.9,3.8-15.3,6.6-15.3,8.8c-6.6,0.5-13.6,1.5-19.7,2.7c5.7-0.3,50.6,1.2,8.9,11.5c-4.7,0.3-10.4,0.5-16.6,0.5
			c0-0.3,0.1-0.6,0.2-0.9c3.9-2.2,7-4.4,6.1-5.5c3.1-1.9,6.8-3.5,9.6-4.1c-6.9,1.1-13.1,2.4-18.4,3.7c-2.5,0.3-5.4,0.7-9.1,1.3
			c-9.4,1.6-13.7,3.6-13.6,5.3c-7.2-0.2-13.8-0.3-18.8-0.5c0.5-0.6,0.9-1,0.9-1.2c-1.4,0.1-2.8,0.3-4.2,0.5
			c6.5-5.5,0.5-9.7-17.5-7.6c-3.5,0.4-6.6,0.8-9.1,1.3c2.2-3.2,1.3-5.7-11.6-4.7c0.4,0.2-0.4,0.7-1.9,1.4c1.4,9,3.2,17.8,5.6,26.4
			c4.6,17.1,11,33.5,19.1,48.8c5.6-0.7,10.1-1.2,13.9-1.5c8.5-5.1,32.6-15.5,51.3-19.5c-40.3,3.6-52.3,6.3-53.8,8.4
			c-2.2-3.2,7.4-9.7,23.1-15c-4.3,0.4-9.1,0.8-14.5,1.3c-7.2-1.2,34.7-9.6,28.5-12c9.2-0.8,22.5-2.2,41.5-4.7
			c-52.5,10.1-27.3,5.2,6.6,2.4c4.4,0.3,5.4,3.8,5.4,7.2c-5.9,1.4-7.1,2.6-6.1,3.9c-1.5-0.3-3.3-0.6-5.2-0.9
			c2.8,2.3,0.8,5.8,6.8,6.9c-6.6,4.7-3.8,8.5,4.4,8c21.9-2.5,37.1-5.8,45.4-8.7c3.9,0.5,7.6,1,10.8,1.5c-7,3.8-10.5,7,12.7,2.9
			c0.3-0.4-4.8-1.6-12.7-2.9c6.1-3.3,14.6-7.2,10-7c38.9-5.6-24.4,13.3,60.3-5c-21.6,2.2-28.5,1.7-74.1,5.8
			c-1.4-1.2-7.9-1.4-19.9-0.2c21.6-6,28.3-11.9,41.3-16c48-11.2-45.7,6.3,5.6-5.4c-2.5-2,39.2-11.8-44.3,1.5
			c45.1-10.3,61-17.9,7.2-9.5c-28.4,3.3,77.5-15.5,4.1-3.2c17.7-5.6-5.2-8.4-31.2-5.3c24.3-5.9,46.4-8.7,53.6-9.4
			c-0.2,0-0.3,0.1-0.5,0.1c4.1-0.4,3.9-0.5,0.6-0.2c5.9-1.6,11-2.9,15.2-4.1c9.9,4.6,19.5,16.1,121.5-6.8
			c-46.1,15.2-75.3,24.7-81.3,29.8c10.3-2.9,27.2-6.6,52.7-11.6c28.4-5-2.5,10.9-17.4,21.3c-7.9-0.5-19.2,0.6-35.9,4.6
			c48.8-8.2-2.6,24.6,52.8,16.5c-7.9-0.3,32.1-18.6,66.9-33.2c-10,5.3-10.2,9.5-8.7,13.2c4.2-4.5,11.4-9.8,24-15.6
			c-0.2-1.4,0.6-2.9,3-4.8c2.4-0.9,4.6-1.6,6.7-2.4c-2.2,0.7-4.3,1.4-6.2,2c5.5-4,17.9-9.1,40.5-16.1c31.6-11.4,43.8-9.5,46.4-6.6
			c0.3-3.8,0.6-7.7,0.7-11.6C467.7,245.4,441.6,245.1,427.1,245.5z M9.5,288.8c1.6,0.6,3.3,0.9,4.8,1C11.3,290,9.9,289.6,9.5,288.8z
			 M62.5,309.5c4.8,0.4-1.5,2.1-4,3.2c-15.5,0.5,0.9-5.5,0.3-9.1C78.7,303,107.1,301.5,62.5,309.5z M87.9,290.7
			c-0.5,0.1-1,0.2-1.5,0.3h0.8c-7,2.4-22,6.1-32.2,8.8c-3-0.4-10.2-0.3-20,0.9c-0.1,0.5-0.2,0.9,0,1.3c6-0.4,10.6-0.5,14-0.5
			c-1.2,0.4-2.2,0.7-2.9,1c-2.6,0.3-5.7,0.5-9.4,0.7c-1-0.2-1.6-0.6-1.8-1.2c-4.7,0.3-10.2,0.7-16.6,1.3c6.1-1.1,11.7-2,16.7-2.5
			c0.9-3.4,6.9-9.4,10.4-13c3.9,0.8,10.1,1.6,21.2,1.6c0.9,1,4.2,1.5,10.5,1.3c1.3,0.1,2.8,0.2,4.3,0.3c-1.8,0.8-3.2,1.4-3.5,1.5
			c3.1-0.5,5.9-1,8.6-1.5c-1.8,0-3.5,0-5.1-0.1c0.4-0.2,0.8-0.4,1.2-0.6c2.4-0.2,5-0.4,8-0.8C89.9,289.9,89,290.2,87.9,290.7z
			 M94.1,289.5c-0.4-0.1-0.8-0.2-1.1-0.2c2.2-0.3,4.5-0.6,7-1C98.2,288.7,96.2,289.1,94.1,289.5z M129.3,325.2
			c0.1-0.1,0.2-0.2,0.3-0.3c0.1,0,0.1,0,0.2,0.1C129.7,325,129.5,325.1,129.3,325.2z M131.7,327.9c0.9,0,2-0.1,3.1-0.2
			c0,0,0.1,0,0.1,0.1C133.6,327.9,132.6,327.9,131.7,327.9z M158.8,316.7c-0.9,0.2-1.8,0.3-2.7,0.5
			C156.9,317,157.8,316.8,158.8,316.7z M149,325h0.1c-0.1,0-0.2,0-0.2,0C149,325,149,325,149,325z M311.7,310.5
			c1.5-0.3,3-0.5,4.6-0.9C314.5,310.4,313,310.6,311.7,310.5z"/>
		<path class="st3" d="M93.5,367.8c-53.9,2.5-58.5-2.1-46.8-5.8c-0.3-0.2-0.4-0.5-0.5-0.9c0.9,0,1.9,0.1,2.8,0.2
			c5-1.4,11.9-2.8,18.8-3.8c-9.8,0.6-16.7,1-21.2,1.4c0.6-2,1.2-4.4-2.5-6c12.4-0.7,18.2-5-2.5-3.2c-1.3,0.8-2.2,1.4-2.8,2
			c-2.8-0.3-6.3-0.5-11-0.4c1.8,3.4,3.6,6.8,5.6,10c3.5-0.1,7.5-0.2,12-0.3c-4.2,0.5-8,0.9-11.3,1.4c1.4,2.3,2.8,4.6,4.2,6.8
			C63.9,367.5,53.3,372.1,93.5,367.8z M38.1,352.9c-0.2-0.3,0-0.7,0.7-1.2c2.3,0.3,4,0.7,5.2,1.2C42.2,353,40.2,353,38.1,352.9z"/>
		<path class="st3" d="M479.6,238.5c-5.9,3.3-4,4.2,0,4.4c0-1,0-2,0-3C479.6,239.5,479.6,239,479.6,238.5z"/>
		<path class="st3" d="M89.2,376.6c-14.8-0.3-32.9-4.5-50.3-6.3c0.5,0.9,1.1,1.7,1.7,2.5h0c0.3,0.4,0.6,0.9,0.9,1.3
			c1.9-0.7,5.4-1.2,11.2-1.5C55.1,372.2,71.5,380.1,89.2,376.6z"/>
		<path class="st3" d="M80.1,318.8c-6.5,1.2-12.6,2.9-18,4.7C126.2,316.8,76,316.8,80.1,318.8z"/>
		<path class="st3" d="M46.7,362c0.3,0.3,0.8,0.5,1.6,0.5c16.1-0.3,8.8-0.7,0.7-1.3C48.2,361.5,47.4,361.8,46.7,362z"/>
		<path class="st3" d="M2.8,274.5c0,0.1,0,0.2,0,0.2c0.7,0,1.4-0.1,2.1-0.2C4.7,274.4,4,274.4,2.8,274.5z"/>
		<path class="st4" d="M164.1,451.6c0.2-3.4-20.9-7.1-20.1-9.3c9.7-3.1,12.9-8.6,5.9-7.9c-19.2,0.1-3.9,7-8.1,9.2
			c-16.3,0.5-5.3-2.6-12.5-1.8c-4.6,0.8,7.4,6.7-6.6,7.2c0.3,0.2,0.7,0.4,1,0.6c1.2,0.1,2.1,0.2,2.9,0.2c-0.2,0.8,1.8,2,3.3,3.2
			c0,0,0,0,0.1,0c5.6,2.9,11.4,5.6,17.3,8.1c0.3-1.3,2.5-2.4,6.4-3.1C154.7,454.9,146,453.4,164.1,451.6z"/>
		<path class="st3" d="M209.6,17.4c18.9-7.4,33.9-13.1,42.9-16.7c-1.9-0.1-3.7-0.2-5.6-0.2c-21.5,6.4-68.1,21.2-149.6,47l0,0
			c0,0,0,0,0,0C172.7,24.6,203.3,15.9,209.6,17.4z"/>
		<path class="st3" d="M6,188.2c-0.1,0.4-0.2,0.9-0.3,1.3c18.4-4.2,40.2-9,65.9-14.6C46.8,179.9,24.6,184.4,6,188.2z"/>
		<path class="st3" d="M6.8,184.8c-0.1,0.4-0.2,0.8-0.3,1.2c17.6-4,39.2-8.9,64.9-14.7C47.6,176.4,26.1,180.9,6.8,184.8z"/>
		<path class="st3" d="M61.3,165.1c2-0.5,3.9-0.9,6-1.5c4.7-1.3,10.9-4.9,17.8-9.6c-20.6,4.2-35.4,6-45.4,6.3
			c9.1-1.2,19-3.1,29.2-5.8c5.6-1.4,10.7-2.8,15.4-4.1c1.7,0.1,3.5,0.2,5.4,0.3c-1.6,1.1-3.1,2.2-4.7,3.2c4.3-0.9,8.9-1.9,13.8-3
			c3.1,0,6.1,0,8.8,0c3.1-0.5,4.9-0.7,5.8-0.9c-2.6,0.2-9.5,0.6,27.7-7.4c-15,6.1,20.6,4.6,12.4,10.8c12.9-3.9,30.1-8.9,49.1-13.7
			c31.5-12.8-8-8.7,6.4-16.5c29.5-12.1-19.6,5.1-18.2,1.3c62.4-21.6,29.6-21.6,43.1-29.1c-10.8,3-25.9,1.1-26.5-1.9
			c10.1-2.4,21.3-4.4,29.7-5.4c-5.8,0-13.2,0.7-29.8,5.3c0-0.9,1.1-1.8,4.1-2.8c13.1-4.7,28.4,2.4,110.7-26.4
			c-6.7,2.2-14.8,2.9-24.7,3.9c1-1.9-7.9-0.9-23.6,2.6c3-1.1,6.5-2.3,10.7-3.8c-5.8,1.9-11.2,3.6-16.4,5.1c0,0,0,0,0,0
			c8.9-3.4,24.1-9.3,34-13.2c-6.4,2.4-25.5,8.5-45.2,14.6c-0.5,0.5-1.9,1.2-4.6,2.2c1.9-0.7,2.3-1.1,1.6-1.2
			c-6.1,1.9-12.2,3.8-18,5.6c2.1-0.4,4.4-0.9,6.8-1.4c9.3-2.6,17.8-4.8,25.1-6.6c-0.7,0.2-1.4,0.4-2.1,0.6c-2.7,0.6-5.4,1.2-8.3,2
			c-0.4,0.1-0.8,0.2-1.3,0.3c-2.8,0.8-5.7,1.6-8.7,2.5c-1.6,0.4-3.2,0.8-4.7,1.1c-5.7,1.6-11.7,3.3-17.9,5.2c-0.3,0-0.6,0.1-0.9,0.1
			c3.7-1.2,7.8-2.5,12.1-3.9c-23.1,4.5-31.4,2.7-23.9-1.8c-7.1,1.4-13.7,3-18.6,4.6c8.4-2.5,6.4,0.9,6.3,3.9
			c-4.2-0.9-13.6-0.2-30.6,3.3c4.6,0.6,9.9,0.4,16.7-1.3c-2.4,0.8-5.2,1.7-8.5,2.6c0.3,0,0.5-0.1,0.8-0.1c-0.7,0.1-1.5,0.3-2.4,0.5
			c0.6-0.1,1.1-0.3,1.7-0.4c-7.5,0.7-16,1.5-24.4,2.4c6.1-1.4,11.5-2.7,16.2-3.6c-9.8-1.2-16.7-5.9-29.1-7.7
			c33.3-16,50.1-28.1,14.8-20.1c1.1-0.5,1.8-1,2-1.3c41.5-10,45.4-2.4,99.7-16.5c-13.8,6.5-7.1,6.2-2.6,6
			c-26.1,11,25.1-7.1,38.9-10.3c-16.3,7.4-10.8,11.1,4.5,7.4c-0.4,0.2-0.9,0.5-1.4,0.7c1.3-0.5,2.7-0.9,4-1.3
			c-0.3,0.1-0.7,0.2-1.2,0.3c0.2,0,0.4-0.1,0.5-0.2c0.6-0.1,1-0.2,1.3-0.3c8.7-2.8,15.9-4.7,20.2-5.4c-2.2-0.5-5.9-0.3-3.3-1.3
			c1.2-0.8,23.3-5.4,25.5-5.5c5.3-2.2,9-4,11-5.4c-1.4-0.8-2.7-1.5-4.1-2.2c-6.3,1.1-17.5,4.1-33.8,9.7c21.7-8.6,25.8-9.7,30.6-11.3
			c-0.8-0.4-1.7-0.9-2.6-1.3c-6.3,1.4-4.7-0.4-3.7-1.8C323.8,14.6,305.9,8.7,287.2,5h-0.1c-1.5-0.1-2.6-0.3-3.3-0.6
			c0.3,0.8,0.7,1.6,1.1,2.4c8.7-1.3,11.1-0.6,3.3,3.3c-0.8,0.2-1.9,0.4-3.1,0.7c0.7-1.5,0.4-2.8-0.2-4c-2.3,0.3-5,0.8-8.1,1.4
			c-0.7,1.5-0.9,2.9-1.3,4.2c-6.5,2.1-4.5,1.8-0.2,0.7c0,0.2-0.1,0.3-0.2,0.5c-5,2.4-5.9,3.5-4.6,3.9c-4.8,1.9-10.6,4-17.2,6.4
			c29.5-11.1,14-10.3,7.7-12.5c5.9-1.3,11.2-2.5,15.7-3.4c0.6-1.4,1.7-2.8,3.6-4.5c-0.9-0.2-1.9-0.3-2.8-0.4
			c-6.7,2.7-12.8,5.2-18.1,7.5c-0.4-0.3-0.6-0.6-0.6-1c-3.5,1.6-6.7,3.1-9.7,4.5c1.7-0.4,3.4-0.8,5-1.1
			c-18.1,8.1-27.2,13.7-29.3,17.2c1.3,2.1,11.5,1.1,32.1-4.1c-2.5,0.9-5.2,1.9-8.2,3c-6.4,1.6-13,3.3-19.9,5.1
			c8.6,0.9,28.7-2.4,54.6-10.7c0,0.5,0.4,1,0,1.8c-34.8,14.6-31.2,15.9,14.1,2c-11.4,4.5-20.3,8.1-27.2,11
			C200.4,56.8,174.8,53.4,136,60.1c3.2-1.5,6.5-3.1,9.8-4.7c-20.9,5.4-38.3,10-47.1,13c14.4-3.9,26.4-6.4,37.3-8.3
			c-3.7,1.8-7.2,3.4-10.6,5c-17.3,3.4-39.9,8-61.5,12.3c-1.3,1.4-2.5,2.8-3.8,4.2c24-2.4,41.5-1.8,45.8,2.7
			c-4.9,1-10.3,2.2-16.3,3.8C48.7,99.1,78.3,94.7,104,92c-1.8,1.8-4.5,3.7-8.2,5.9c-4.6,1.8-6.9,3.1-7.4,3.9
			c-10.7,5.3-26.5,11.6-48.4,18.6c8.7-4.1,13.5-7-6.7-2c-1.2,2-2.4,4.1-3.5,6.2c18.7-5.5,40.5-13,61.5-21.2
			c3.1,0.4,8.6,0.2,15.3-0.3c-15.8,5.3-40.3,12.6-76.9,21.9c-2.7,4.9-5.2,9.9-7.5,15c8.9-1.6,16.6-2.9,23.5-3.9
			c-6.6,1.8-12.6,3.5-17.8,5.1c-2.2,0.4-4.5,0.8-6.8,1.1c-5.7,12.9-10.4,26.3-13.8,40.2c20.8-3.8,49.7-10.2,110.1-25.4
			C106.7,159.7,86.4,162.4,61.3,165.1z M272.6,17.9c1.1,0,2.5-0.1,4.2-0.2c-4.1,2.2-10,4.9-18.5,8.2
			C266.2,22.6,270.4,20.1,272.6,17.9z M288.8,19.3c-10,2.4-23.8,5.9-39.5,9.9c3-1,5.6-2,8-3c10.4-2.6,23.4-6.4,39.3-11.5
			c0.6-0.1,1.1-0.2,1.6-0.2C293.9,16.5,290.9,18.1,288.8,19.3z M322.4,36.5c-10.8,4.1-18.9,7.9-24.8,11.1
			C291.5,48.8,282.6,50.1,322.4,36.5z M118.2,129.9c-0.4,0-0.8,0-1.2,0c0.8-0.7,1.7-1.4,2.5-2c1.1-0.2,2.2-0.4,3.3-0.6
			C121.4,128.1,119.9,129,118.2,129.9z M122.7,90.5c9.2-0.3,12.7,1,2.2,5.8c-8.1,0.4-13.4,0.3-13.3-1
			C115.3,93.7,119,92.1,122.7,90.5z M123.7,101.3c15.3-1.9,32.6-4.9,46-8c-1.8,0.5-3.8,1-6,1.6c4-1,11-2.4,18.9-4
			c0.4,0,0.8-0.1,1.2-0.1c6.9,1.7-31.6,20.5,2.9,10.8c-23.5,7.3-39.8,11.3-51.5,13.6c-1.1,0.6-2.3,1.3-3.6,1.9
			c-2.1,0.6-4.2,1.2-6.2,1.8c-2.4-0.3-4.4-0.7-6.2-1.2c4.1-0.4,9.3-1.2,16-2.5c9.9-5.7,8.6-8-23.1-0.1c-7.2-3.2-12.3-6.2-29.7-2.4
			C98,108.4,111.7,104.6,123.7,101.3z M52.2,135.2c11.6-1.5,20.8-2.4,29.6-3.1c-1.6,0.6-3.1,1.1-4.5,1.6c-10,1.3-21.1,3-33.1,4.9
			C46.8,137.4,49.5,136.3,52.2,135.2z"/>
		<path class="st3" d="M31.1,262c-4.4,2.4-9.7,4.5-14.9,5.4c9.6-1.5,17.2-2.9,23.3-4.3c3.2,0,7.3-0.1,12.4-0.6
			c0.6-0.2,1.1-0.4,1.7-0.5c-2.7-0.1-3.7-0.6-3.8-1.4c12.6-3.7,12.2-6.2,7-7.2c-0.3,0.1-0.6,0.1-0.9,0.1c0.3-0.1,0.5-0.1,0.8-0.2
			c-0.4-0.1-0.9-0.2-1.4-0.2c3.5-0.5,6.8-0.9,9.8-1.3c12.9-2.3,23.4-4.1,31.8-5.2c0.7,2.9,2.2,5.4-7,8c37-5.9,46.2-13.7,7-8
			c-0.8-3.4-0.6-7.4,20.4-13.4c34.4-10.4,59.2-13.7,7.8-5.8c0.7-4-47.8,0.9,25.1-19.9c-6.6-2.4,3.1-9.3-32.6-4.6
			c-7.2-2.6-69.6,12.8,40.6-17.4c-20.8,2.3-13.6-6.3-65,2.1c1.8,0.7-0.5,2.2-2,2.1c-19.5,4.3-35.9,6.3-46,6.6
			c-2.6,0.5-5.3,1-8.1,1.5c2.1-0.5,4.2-1.1,6.1-1.5c-2.5,0-4.6-0.1-6-0.4c1.5-0.3,2.9-0.7,4.4-1c-1.9,0.3-3.6,0.6-5.1,0.9
			c-2-0.5-2.5-1.3-1.1-2.5c-7,2.8-14.9,5.8-22,8.2c-3.6,0.8-7.1,1.6-10.4,2.4c0,0.2,0,0.3-0.1,0.4c1.5-0.3,2.8-0.5,4.2-0.8
			c-1.5,0.5-3,0.9-4.3,1.3c-1.4,9.6-2.2,19.3-2.5,29.2c-0.1,1.9-0.1,3.9-0.1,5.9c0,5.6,0.2,11.1,0.6,16.5
			c17.1-1.6,23.5-0.6,23.1,1.5c-0.3,0-0.5,0.1-0.8,0.1c0.3,0,0.5,0,0.8-0.1c-0.1,0.4-0.4,0.8-0.9,1.3c-7.5,1.1-14.8,2.1-21.8,2.9
			c0,0.2,0,0.4,0,0.6c6.8-1,14-2.1,21.5-3.3c-2.9,2.3-10.8,5.3-21,7.4c0,0.1,0,0.2,0,0.2c17-2.7,24.6-4.8,27.6-6.3
			C29.8,261.3,30.3,261.6,31.1,262z M28.5,257.3c-3.4-1.5-7.2-2.5,7.2-4.9c3.7-0.6,5.2,0,5.2,1.1c-0.6,0.1-1.2,0.2-1.7,0.3
			c-2.6,0.6-5.3,1.6-7.2,2.9c2.8-0.4,5.5-0.9,8.1-1.3c0,0.1-0.2,0.2-0.2,0.3c-2.2,0.2-4.8,0.6-7.9,1.1c-0.7,0.4-1.3,0.9-1.7,1.3
			C29.7,257.8,29.1,257.5,28.5,257.3L28.5,257.3L28.5,257.3z"/>
		<path class="st3" d="M209.6,17.4c-18.3,6.6-40.5,14.2-64.7,22c2.1-0.5,28.6-6.8,58.3-14.1C209.8,21,212.7,18,209.6,17.4z"/>
		<path class="st3" d="M283.6,4.3c0,0.1,0.2,0.1,0.2,0.1c0,0,0-0.1,0-0.1C283.7,4.3,283.7,4.3,283.6,4.3z"/>
		<path class="st3" d="M269.4,2.1c-8,3.9-10.6,6.2-10.5,7.7c4.8-2.2,10.1-4.5,15.8-7C273,2.6,271.2,2.3,269.4,2.1z"/>
		<path class="st3" d="M224.9,30.4c-1.4-2.2,7.4-7.9,24.3-16c-14.3,3.4-30.6,7.3-46,11c-12,7.8-35.8,19.8-57.4,30.1
			c25.4-6.5,55.9-14.2,83.2-21.1C225.1,33.9,223.6,32.6,224.9,30.4z"/>
	</g>
	
		<radialGradient id="SVGID_00000136413549852532502560000000806775246849032093_" cx="100.1135" cy="454.3609" r="510.6197" gradientTransform="matrix(1 0 0 -1 0 482)" gradientUnits="userSpaceOnUse">
		<stop  offset="0.1175" style="stop-color:#F9EADB"/>
		<stop  offset="0.3619" style="stop-color:#C4B0C4"/>
		<stop  offset="0.5564" style="stop-color:#A088B4"/>
		<stop  offset="0.6573" style="stop-color:#9279AE"/>
	</radialGradient>
	
		<path style="display:inline;opacity:0.66;fill:url(#SVGID_00000136413549852532502560000000806775246849032093_);enable-background:new    ;" d="
		M319.4,28.4c-7.1,9.5-4.3,10.6,1.5,6.2c5.8-4.4,6.5,0.9,0,6.9c-6.5,6-24.9,11-31.8,11.2c-6.9,0.2,0.3-3.7-18.8,0
		c-19.1,3.7-9.6,5-33.6,9.8c-24.1,4.8-5.2,6.5,17.2,4.9c22.3-1.7,6.4,5.1-11,11.2c-17.4,6.1-42.9,8.2-68,10.6s-30.6,4.3-26-4.1
		c4.6-8.4,2.6-8.1-31.8,0s-19,14.6-58.3,14.4c-5,0-9.2-0.1-12.6-0.4c4.4-6,9-11.8,14-17.4c1.3-1.4,2.5-2.8,3.8-4.2
		c10.2-11,21.3-21,33.3-30c0,0,0,0,0,0c0,0,0,0,0,0l0,0C137.1,17.8,186.5,0.3,240,0.3c2.3,0,4.6,0,6.9,0.1c1.9,0.1,3.7,0.1,5.6,0.2
		c5.7,0.3,11.4,0.8,17,1.5c1.8,0.2,3.6,0.4,5.3,0.7h0c1,0.1,2,0.3,2.9,0.5c0.9,0.1,1.9,0.3,2.8,0.4c1,0.2,2.1,0.3,3.1,0.5
		c0.1,0,0.1,0,0.2,0.1c1.1,0.2,2.2,0.4,3.3,0.6h0.1c15.4,3.1,30.3,7.6,44.5,13.6C326.3,21.8,321.6,25.4,319.4,28.4z"/>
</g>
<g class="st0">
	
		<radialGradient id="SVGID_00000147178168595891620390000007670809017082430854_" cx="109.3738" cy="108.0223" r="445.6422" gradientUnits="userSpaceOnUse">
		<stop  offset="0.142" style="stop-color:#82BAA3"/>
		<stop  offset="0.4046" style="stop-color:#4E8A82"/>
		<stop  offset="0.4866" style="stop-color:#447B75"/>
		<stop  offset="0.6358" style="stop-color:#2A5656"/>
		<stop  offset="0.8543" style="stop-color:#0F3043"/>
	</radialGradient>
	<path style="display:inline;fill:url(#SVGID_00000147178168595891620390000007670809017082430854_);" d="M479.1,240.2
		c0,8.6-0.4,17.2-1.2,25.8c-1.2,12.3-3.7,24.6-6.6,36.1c-12.3,45.5-37.3,85.6-71.3,116c-1.2,0.8-2.5,2-3.7,3.3
		c-41.8,36.1-96.3,58.2-156.1,58.2c-55.3,0-106.1-18.9-146.3-50c-16.4-12.7-31.1-27.5-43.8-43.8c-9.4-12.3-18-26.2-25-40.2
		c-3.7-7.8-7.4-15.6-10.2-23.8c-7-18.9-11.5-38.9-13.1-59.4c0-0.8,0-2-0.4-2.9l0,0v-0.4c-0.4-3.3-0.4-6.1-0.4-9c0-2.9,0-5.7,0-8.6
		c0-12.7,0.8-25,2.9-36.9c0.4-2.5,0.8-4.9,1.2-7c0.4-1.2,0.4-2.5,0.8-3.7c0.4-1.2,0.4-2.9,0.8-4.1c0.4-1.6,0.8-3.3,1.2-4.9
		c9.8-41.4,30.7-78.7,59.4-108.6c19.7-20.5,42.6-37.7,68.8-50c31.6-15.6,66.8-24.2,104.5-24.2c59,0,113.1,21.3,154.9,57
		c13.5,11.5,25.4,24.2,36.1,38.1c17.2,22.5,30.3,47.9,38.5,75.8c0.8,3.3,2,7,2.9,10.2C476.6,200.5,479.1,220.2,479.1,240.2z"/>
	<path class="st9" d="M450,179.6c1.6-4.1-18.4-11.5,2.5-10.7c5.3,0,11.1,1.2,16.8,2.9c-13.5-45.1-39.8-84.4-74.6-113.9
		c-5.7-1.2-8.6-1.6-7.8-0.8c4.5,2.9,21.7,22.9,5.3,15.6c-16.4-7.4-39.3-13.9-83.2-18c-44.3-4.1-40.2-8.2-19.3-13.5
		c20.9-4.9-68.8-5.3-118,1.6c-49.2,7-39.8,11.1-67.2,21.7c-12.7,4.9-25.8,7.4-37.7,10.7C38.5,105,17.6,142.3,7.4,183.7
		c-0.4,1.6-0.8,3.3-1.2,4.9c-0.4,2.5-1.2,4.9-1.6,7.8c-0.4,2.5-0.8,4.9-1.2,7c9,0,17.6-1.2,25.4-3.3c21.3-6.6,23.8-11.9,63.5-12.7
		c39.8-0.8,64.7,4.9,96.7,0c32-4.9,23.4,6.1,46.7,7.4c23.4,1.2,35.2,7.8,59-4.5c23.8-12.3,20.9,3.3,31.6-16.8
		c10.7-20.5,2-9.4,79.5,1.6c29.5,4.1,43,6.6,47.9,7.4C451.6,181.2,449.6,180.4,450,179.6z M209.8,114c-16.8,9.4-4.1,9.8-19.3,15.6
		c-15.2,5.7-57.8,8.2-53.7,6.6c4.1-2,35.7-6.6,26.2-12.7c-9.4-6.1-11.5-9-35.2-6.1c-23.8,2.9-46.7,6.1-46.7,6.1s26.6-9,40.6-12.3
		c25-5.7,42.2-2,36.5-7.4c-5.3-5.3-2-7,37.3-9c7-0.4,11.9-0.8,15.2-1.2c-3.3,0.8-6.6,2.9-7.4,5.7C202,108.3,226.6,104.6,209.8,114z"
		/>
	<g class="st10">
		
			<radialGradient id="SVGID_00000158008116887506362920000002535116963044550564_" cx="100.4499" cy="102.0228" r="452.9653" gradientUnits="userSpaceOnUse">
			<stop  offset="0.1175" style="stop-color:#FFE2A8"/>
			<stop  offset="0.4492" style="stop-color:#FEBD80"/>
			<stop  offset="0.4967" style="stop-color:#EFB37B"/>
			<stop  offset="0.5883" style="stop-color:#C89A6F"/>
			<stop  offset="0.7071" style="stop-color:#8C745D"/>
			<stop  offset="0.8543" style="stop-color:#443827"/>
		</radialGradient>
		<path style="fill:url(#SVGID_00000158008116887506362920000002535116963044550564_);" d="M462.7,291.9
			c-11.1,1.2-7.4-8.6-10.7-20.5c-3.3-11.9-25.8,2.9-54.9,13.9c-29.1,11.1-10.7,4.5,8.6,9.4c19.3,4.5,23.4,23.4-24.6,19.7
			c-47.9-3.7-33.6,0-55.3-9.8c-15.2-7-18.9,7.4-29.1,15.6c-16.8-0.4-40.2-9.4-57-17.2c-22.5-9.8,7.8-25-46.3-36.1
			c-54.1-11.5-72.1-15.2-78.7-11.5c-5.7,3.3,9,1.2,9,11.5c0.8,0.4,1.6,1.2,2.5,1.6c14.3,10.2-6.6,3.3,9,17.6
			c15.6,14.3,11.1,12.7,10.2,19.3c-0.4,6.6,0.8,4.1-13.5,11.5s-25.4,0.8-50,8.6c-25,7.4-30.7,4.1-45.9-0.8
			c-15.6-4.9-16.8-14.3-19.7-22.9s-7.4-13.9-1.6-22.9c5.7-9,3.3-11.5,18.4-18c5.7-6.1,14.3-11.1,14.3-11.1s-11.1,0-23.8,7.8
			c-5.3,3.3-13.1,6.1-21.7,9c4.5,38.9,18,75,38.9,106.1c8.6,0.4,15.6,1.2,19.7,3.3c14.8,6.1,17.6,26.6,70.1,40.2
			c52,13.9,84,9.4,90.6,2.9c6.6-6.6,46.7-8.6,69.3-16c22.5-7.4,60.2,13.9,87.7,6.1c10.2-2.9,21.3-2,31.1-0.8
			c32.4-32.8,55.7-75,64.7-122.1C470,289,465.5,291.5,462.7,291.9z"/>
		
			<radialGradient id="SVGID_00000169516339855744305010000008319317631939618493_" cx="100.4499" cy="102.0233" r="452.9653" gradientUnits="userSpaceOnUse">
			<stop  offset="0.1175" style="stop-color:#FFE2A8"/>
			<stop  offset="0.4492" style="stop-color:#FEBD80"/>
			<stop  offset="0.4967" style="stop-color:#EFB37B"/>
			<stop  offset="0.5883" style="stop-color:#C89A6F"/>
			<stop  offset="0.7071" style="stop-color:#8C745D"/>
			<stop  offset="0.8543" style="stop-color:#443827"/>
		</radialGradient>
		<path style="fill:url(#SVGID_00000169516339855744305010000008319317631939618493_);" d="M462.3,151.7
			c-3.7-9.4-8.2-18.4-13.1-27.5c-0.4-0.8-0.8-1.6-1.2-2.5c-1.2-2-2.5-4.1-3.7-6.1c-2.5-0.8-4.9-1.2-7.4-1.6
			c-24.2-4.5-14.3-8.2-36.1-17.6S361.4,78,342.2,73c-9.8-2.5-22.9-8.2-34.4-13.1c-9-2-20.1-3.7-34.4-4.9c-32-2-39.8-2.9-61.5,2
			s-48.8,11.9-50.8,12.3s13.1-9.8,27.5-12.3c13.1-3.3,60.2-7.4,66.4-7.4c-4.9-0.4-40.6-2.9-72.9,2.5c-34,6.1-6.6,4.9-49.2,13.5
			C95.5,75.5,95.5,68.1,57,87c-1.2,1.2-2,2.5-3.3,4.1c-4.5,5.7-9,11.5-12.7,17.6c-6.6,9.4-11.9,19.7-16.8,29.9
			c7.4-2,12.7-3.7,12.7-3.3c11.5-8.6,18.4-12.7,41.8-19.7c23.4-7,40.2-10.7,38.5-11.1c-1.6-0.4-25.4,6.6-13.9-1.6
			c11.9-7.8,32.8-7.8,53.3-11.9c20.5-3.7,11.1-7.4,58.2-8.2c47.5-0.4,102,11.1,86.5,9.4c-15.6-1.6-1.2,5.7-23.8,4.1
			c-22.5-0.8-42.2,0.4-38.9,2.5c0.4,0,0.8,0.4,1.6,0.4c-27.5-0.4,3.3,10.2,17.2,11.9c15.2,2,12.7,13.1,12.7,13.1s-47.5,0-50.4,3.3
			c-2.9,3.3-11.9,4.5-7.8,9.8c4.1,5.3,16,8.6,2.9,10.7c-13.1,2-54.1,0-80.7-1.2c-26.2-1.2-45.1-3.3-54.9-4.1s33.2-11.1,55.7-13.9
			c22.5-2.9,0,0-19.7-0.8c-19.7-0.8-34.4,4.1-54.9,9.4c-20.5,5.3-18.4,5.3-42.2,15.2c-1.2,2.9-2,5.7-3.3,8.6
			c-2,5.3-3.7,11.1-5.3,16.4c-0.8,3.3-1.6,6.1-2.5,9.4c7.4,0.4,14.8,0,21.3-0.4c27-2,23.8-11.9,50.8-17.6c27-6.1,4.5,0.8,46.7,6.6
			c9,1.2,12.3,3.7,20.9,3.3l0,0c26.2-5.3,75.4-4.1,90.6-4.5c20.9-0.4,21.3-7,44.3-12.3c22.9-5.3,4.1-4.1,34.8-9.8
			c30.7-6.1,31.6,4.9,63.5,5.3c31.6,0.4-11.9-12.3-16.8-17.2c-4.9-4.9,43.4,6.1,86.9,17.2c3.3,0.8,6.1,1.6,8.6,2.5
			c2.9,0.8,5.3,1.6,7.8,2.9C464.7,158.7,463.5,155,462.3,151.7z M250,99.3c9,0.4,23.4,0.8,40.2,2.9
			C276.2,100.9,262.3,100.1,250,99.3z M405.7,118.1c-2-0.8-3.7-1.2-4.9-2C402.4,116.5,403.7,117.3,405.7,118.1z"/>
		
			<radialGradient id="SVGID_00000026863080532173663630000010853493856249126020_" cx="100.4804" cy="49.6762" r="428.9099" gradientUnits="userSpaceOnUse">
			<stop  offset="0.1175" style="stop-color:#FFE2A8"/>
			<stop  offset="0.4492" style="stop-color:#FEBD80"/>
			<stop  offset="0.4967" style="stop-color:#EFB37B"/>
			<stop  offset="0.5883" style="stop-color:#C89A6F"/>
			<stop  offset="0.7071" style="stop-color:#8C745D"/>
			<stop  offset="0.8543" style="stop-color:#443827"/>
		</radialGradient>
		<path style="fill:url(#SVGID_00000026863080532173663630000010853493856249126020_);" d="M254.1,49.7c0.4,0,0.8,0,0.8,0
			S254.5,49.7,254.1,49.7z"/>
	</g>
	<path class="st14" d="M65.6,337.8c46.7,4.1,74.6-1.6,74.6-1.6s1.2-4.5,22.9-6.1c21.3-1.6,30.3,0.8,21.3-7c-9-7.8-9.4-7.8-5.3-13.5
		c4.1-5.7-4.5-6.6-10.2-12.7c-5.7-6.1-39.3-27.5-20.1-22.9c19.3,4.1,35.2,1.2,48.4,11.1s-4.5,2-1.6,11.1s-20.5,9.4-11.9,16.8
		c8.6,7.4,11.1,5.3,27,13.9c16,8.6,45.5,5.3,20.9,11.1c-24.6,5.7-61.9,4.5-14.8,12.7s86.5,20.9,87.7,12.7s-22.9-14.3-14.3-17.6
		c8.6-2.9,28.3,2.5,24.6-6.1c-3.7-8.6,4.5-11.9,19.3-9.4c14.8,2.5,28.7,9.4,57.8,7.8c29.1-1.6,44.3-2.5,18.9,4.9
		c-25.4,7.4-10.7,2.9-15.2,16c-4.5,13.1,0.8,20.1,0.8,20.1s-54.5,0.8-53.7-1.6c0.8-2.5,32.4-18.9,9.4-16
		c-22.9,2.9-4.1,14.3-29.1,20.5s-23.4-7.4-65.6,1.2s-96.3,11.9-70.5,4.9c25.8-7,76.2-5.3,41.4-11.9c-35.2-6.6-21.3-9.4-45.1-13.5
		c-23.8-4.1-2.9,2.9-4.9,7.4c-2,4.1-36.1,2.9-36.9,9c-0.8,6.1,2.9,16.8-16.8,13.1c-19.7-3.7,6.1-15.2-5.3-19.7
		c-11.5-4.1-6.1,0-34-7.4s-46.7-15.6-46.3-18c0.4-2.5,33.6,10.2,56.6,10.2c22.9,0.4,46.7-0.4,21.3-4.1
		C89.7,349.2,65.6,337.8,65.6,337.8z"/>
	<path class="st9" d="M470.9,302.1c-3.7,14.3-9,28.3-15.6,41.8c-5.3,2-10.7,3.7-14.8,3.7c-20.9,0.8-25,0.4-63.1-6.1
		s-14.3-0.8-37.3,0.4c0,0-7,14.3-16.8,19.7s0,0,33.2,0.8c33.2,0.8-4.9,7-37.3,12.7c-32.4,5.7,3.3,6.1,36.1,7
		c33.2,0.8,5.7,2,44.7,2.9c34,0.8,9,4.1,24.2,6.1c-8.6,10.7-18.4,20.5-28.7,29.5c-1.6-0.4-3.7-0.8-5.7-1.6
		c-14.3-4.1-21.3,9-48.8,2.5c-27.9-6.6-6.1-4.1-25-7.4c-18.9-3.7-21.3,0-45.1,5.3c-23.4,5.3-15.2,3.7-18,8.6
		c-2.9,4.9,20.1,12.7,4.9,14.8c-15.2,2.5-72.5-0.4-70.5-4.9c1.6-4.5-23.8-1.2-60.7-12.7c-36.9-11.5-34.4-16.8-61.5-31.1
		c-7.8-4.1-12.7-7-15.2-9c-9.4-12.3-18-26.2-25-40.2c0.8,0.4,1.6,0.8,2.5,0.8c4.9,1.2,55.7,3.3,52,6.6s-23.8,6.6,0,11.5
		s18.9-0.8,42.2,2.5c23.4,3.7,2.5,4.5-16.8,8.2s-0.8,13.1,46.7,16.4s59.8,9,73.8,1.2c13.9-7.4,0.8-1.6,29.5-4.9
		c28.3-3.3-0.8-4.1,12.7-12.3c13.5-8.2,17.6-6.1,12.7-8.6c-4.5-2.9-39.3-9.4-35.2-13.9c4.1-4.1,30.7-0.8,52.5-2.9s27-5.7,23.4-10.7
		c-3.7-4.9,22.1-4.5,7.4-9.8c-14.3-5.3-41.8-6.1-54.5-6.1c-7.4,0,2,3.7,10.7,7c-16.8-2.9-50-7.4-74.2-13.1c-32-7.8,9.4-7.8-7.8-16.4
		c-17.2-8.6,15.2,0.4,16-5.7c0.8-6.1-9.4-17.2-54.9-15.2c-16,0.8-8.2,10.2-11.1,13.5s0.8,3.3,13.1,11.9c12.7,8.6-8.6,7.8-28.3,12.7
		c-19.7,4.9-31.6,0.8-31.6,0.8s16.8-8.2,18.9-12.3c2-4.1-4.1-11.9-5.7-18.9c-1.6-7,0.4-10.2-16.8-12.7c-17.2-2.9-13.5,2.5-43.4,0.8
		c-29.9-1.2-20.1,2-23.8,13.5S22.9,305,47.5,315.2c25,10.2,22.5,12.7,16.4,13.5c-4.9,0.8-33.6-2-50-8.6C6.6,300.1,2,279.2,0.4,257
		c9.4-8.2,8.6-16.4,7.8-23.8c-0.8-8.6,24.2-0.8,51.6-6.6c27.5-5.7,16.4-4.5,56.1-1.6c39.8,2.9,17.2,8.6,36.5,10.2
		c19.3,1.6,16,11.5,46.7,19.7c30.3,7.8,19.3,4.5,30.3,13.5c11.1,9,2.5,7.8,4.5,18c2,10.2,9.4,7.4,24.2,13.9
		c14.8,6.1,21.3,0.8,41-6.1c19.7-7,47.5,7.8,58.6,14.8c11.1,7.4-0.8,5.3-9.4,10.2s16,4.9,38.1,6.6c22.1,1.6,11.1-0.8,38.1-8.2
		c27.5-7.4,15.2-6.6-0.4-17.2c-15.6-10.7-2-9,17.6-10.2s1.2,4.1,22.9,9.4C468,301.3,469.6,301.7,470.9,302.1z"/>
	<path class="st15" d="M176.2,78.4c-24.6-0.4-25.4,2-31.6,4.1c-6.1,2-8.2,3.7,3.7,3.3c11.9-0.4,9.8,4.5-11.5,4.9s-37.3,2-45.1,7
		c-7.8,4.9-0.4,6.6-21.7,12.3c-21.3,6.1-26.6,9-31.6,10.7c-4.9,2,16.8-16,16.8-16.8c0-0.8-6.6,1.2-15.6,4.5
		c4.1-6.1,8.2-11.9,12.7-17.6c11.1-3.7,24.2-6.1,38.1-8.2c25.4-3.7,21.7-3.3,37.7-8.2c16-4.9,21.7-8.6,20.5-7.4
		c-1.2,1.2-28.7,13.5-16,12.7c12.7-0.8,3.7-0.8,25.8-4.1c22.1-3.3,23.8-2,32.4-1.6C200.8,74.3,201.2,78.8,176.2,78.4z"/>
	<path class="st15" d="M65.6,165.2c-11.5,4.1-23.8-1.2-34.4,6.6c-8.2,6.1-11.9,7-22.1,5.7c1.6-5.7,3.3-11.1,5.3-16.4
		c6.6-0.4,9.4-2.5,21.3-7.4c17.6-7.4,32.8-6.1,30.3-5.3c-2.5,0.8,0,11.5,5.3,12.3C76.2,161.1,77,161.1,65.6,165.2z"/>
	<path class="st15" d="M109,159.9c18.4,22.5,45.1,9,45.1,9s0.8-6.1,17.2-6.1s64.7,0,63.5,0c-1.2,0-23.8-9.4-43.8-10.7
		c-20.1-1.2-18.9,0.8-47.1,1.2c-28.3,0.8-59-4.1-57-3.7C88.5,150.1,102,151.3,109,159.9z"/>
	<path class="st16" d="M462.3,151.7c-19.7-7.8-4.1-6.6-38.9-15.2c-38.1-9.4-47.1-27.9-59-25s-23.4,7.4-25.8,10.2
		c-2.9,2.9,11.9,9.8,13.5,14.8c1.6,4.9-3.3,10.7-20.1,3.7c-16.8-7-16.8-10.7-29.9-3.7c-13.1,7-45.1,9.8-47.1,10.2
		c-2.5,0.4-39.3-9-18.4-10.2c20.9-1.2,68-0.4,57.4-7c-10.7-6.1,27.5-8.2,2.9-14.8c-24.6-6.6-54.9-8.2-41.8-10.2
		c13.5-2,52.5,4.1,61.5,2.9c9-1.2,16,0.8,19.3-2.5c3.3-3.3-8.6-9,0-11.9c8.6-2.9,5.3-15.6-9.4-5.7c-14.8,9.8-30.3,16-19.7,9
		c10.7-7,28.3-13.1-0.8-16.4c-29.5-2.9-25-9-61.5-7.8c-36.5,0.8-13.1-9-13.1-9c21.7-2.5,72.9-0.8,69.7,2.9c-3.3,3.7-12.7-1.2,16,6.6
		s43.8,12.7,65.2,20.1c21.3,7.4,34.4,20.1,41.8,24.6c4.5,2.9,16,4.1,25.8,6.1C454.1,132.9,458.2,142.3,462.3,151.7z"/>
	<path class="st17" d="M479.1,240.2c0,2.9,0,5.7,0,8.6c0,5.7-0.8,11.5-1.2,17.2c-16,8.2-11.5,16-36.1,13.5
		c-26.2-2.9-20.9-4.1-7.4-12.7c13.5-8.6-0.8-12.3-19.3-8.2c-18,4.1-34.8,11.9-27.5,16.4c7.4,4.1-2.5,12.7-37.3,7.4
		c-35.2-4.9-17.2,4.5-45.1,6.1c-28.3,1.6-37.3,4.5-50.8-2.5c-13.5-7-11.9,2.9-30.3-3.7c-18-6.6-37.3-16.4-68-19.3s-32,3.3-20.9,17.2
		c11.1,13.9,0.8,16.8-5.7,13.5c-6.6-3.3-19.7-20.9-54.9-21.3c-35.2-0.4-37.7-0.8-36.9-4.5c0.8-3.7,14.3-6.1,0.4-12.3
		c-11.1-4.9-19.3-0.4-37.3,2.5v-0.4c-0.4-3.3-0.4-6.1-0.4-9c0-0.8,0-2,0-2.9c0-2,0-3.7,0-5.7c0-12.7,0.8-25,2.9-36.9
		c0.4-2.5,0.8-4.5,1.2-7c0,0,0,0,0-0.4c0.4-1.2,0.4-2.5,0.8-3.7c9-2,9.8-1.6,23.8,0c16.8,1.6,18.4-9.8,35.2-7.8
		c16.8,2,20.5,10.7,46.7,8.2s19.3,2.9,35.2,2c16-1.2,20.5-7,46.7-12.3s37.7,2.5,53.7,8.2c16,6.1-11.1,9.8,4.5,12.7
		c15.6,2.9,39.3-8.6,50.8-14.3s-2.9-11.5,9.4-16c12.3-4.5,18.9-3.7,29.9,0c11.1,3.7,10.7-2.5,32.4-10.2c21.7-7.8,10.7,5.7,32,3.3
		c21.3-2.5,9.8,4.1,16.4,14.8c6.6,10.7,31.1,11.1,38.5,6.1c7.4-4.9-5.7-6.6,1.6-5.7c3.7,0.4,7,0.4,9.8,0.8c1.6,7,3.3,13.9,4.5,21.3
		C478.2,215.2,479.1,227.5,479.1,240.2z"/>
	<path class="st18" d="M311.5,254.2c-25,9-27.5-6.6-61.9-6.6s-69.3,2.9-57.8,11.5c11.5,8.6,27.9,13.1,1.6,7.8
		c-26.2-5.3-37.3-11.1-33.2-22.1c4.5-11.1-42.2-2.9-35.2,8.6c7,11.5-11.1,16.4-5.7,22.1c5.7,6.1-18-11.9-30.3-19.7
		c-12.3-7.8-28.7,4.1-31.1,1.6c-2.5-2.5,5.3-14.8,2.9-16.8c-2.5-2.5-4.1-1.6-29.5,4.1C13.5,248.8,8.6,248,0,246.4c0-2,0-3.7,0-5.7
		c0-12.7,0.8-25,2.9-36.9c0.4-2.5,0.8-4.5,1.2-7c4.9-2.9,11.1-2,21.7,4.5c22.9,14.3,36.1-10.2,53.3-0.8s26.2,29.5,45.1,29.9
		c18.4,0.8,39.3-7,24.2-14.3c-15.6-7.4-39.8-3.7-30.7-9.8c9.4-6.1,24.2,0,41.8-2.9c17.6-2.9,22.9-20.9,52-11.5
		c29.1,9.4,11.9,24.6-12.7,40.2c-24.6,15.2,6.6,3.7,27.9-4.1c20.9-7.8,27.5-22.5,68-20.1C335.6,209.9,336.9,245.2,311.5,254.2z"/>
	<path class="st19" d="M243,262c36.1,11.5,74.2,5.7,55.7,11.1s-17.2,0-47.5,0S222.1,255.4,243,262z"/>
	<path class="st20" d="M334.4,183.7c-20.5-4.1-24.6,8.2-5.7,19.7s20.5,15.6,28.3,29.5c7.4,13.9,18.9,8.2,31.1-11.1
		c12.3-19.3,24.6-12.3,30.3-18.4c5.7-6.1,11.1-11.5-12.3-20.9c-23.4-9.4-24.6-13.5-34.8-2.9C360.6,189.8,348.7,186.6,334.4,183.7z"
		/>
	<path class="st19" d="M479.1,240.2c0,2.9,0,5.7,0,8.6c-6.1,2-12.7,3.7-16.8,6.6c-12.7,8.2-21.3-0.8-15.2-13.1
		c6.1-12.3-4.9-3.3-29.5,5.7c-24.6,9-24.6,9.8-53.7,11.1c-28.7,1.2-33.2-8.6-29.1-9c4.1-0.4,35.7,3.3,57-7
		c21.3-10.2,15.2-9.4,41-27.9c10.7-7.4,25.4-3.7,43-12.3C478.2,215.2,479.1,227.5,479.1,240.2z"/>
	<path class="st21" d="M128.3,201.3c11.5-2.5,24.2,7.4,33.6,5.3c9.4-2-3.3-11.1,19.7-13.9c22.9-2.9,44.3,4.1,44.3,10.2
		c0,6.6-15.2-4.1-24.6,7.8c-9.4,11.9-19.3,20.9-29.1,12.3s-14.8-11.9-31.6-14.3C123.8,206.2,117.6,203.8,128.3,201.3z"/>
	<path class="st21" d="M45.9,214.4c14.8,18,20.5,8.6,22.9,25.8c2.5,17.2,6.6,1.2,16.4-3.3s21.3-0.8,23.4,0
		c2.5,0.8-10.7-19.3-27-29.9C65.2,196,41.4,208.7,45.9,214.4z"/>
	<path class="st21" d="M270.1,215.6c-11.9,1.6-4.5-2.5-29.9,11.1c-25.8,13.5-62.3,16-63.9,15.6c-1.6-0.4,43,2,66-2
		s20.5-9.8,35.7-15.2S279.5,214.4,270.1,215.6z"/>
	<path class="st21" d="M118.8,242.7c15.2-2.5,18.9-1.6,37.7,4.9c18.9,6.6,42.2,4.9,61.5,13.9c19.3,9.4,13.1,10.2,5.3,11.1
		c-7.8,0.8-7,6.1-20.1,1.6c-13.5-4.5-35.2-11.5-56.1-11.9s-32.4-1.2-34-0.8c-1.6,0.4-3.7-0.4-3.7-5.7
		C109.4,250.5,112.3,243.9,118.8,242.7z"/>
	<path class="st21" d="M129.5,137.8c31.6,4.9,70.5,8.6,66,0.8c-4.1-7.4-5.7-5.7,7.4-14.3c13.5-8.6,26.6-6.1,31.6-8.2
		s-22.9-9.8-4.9-14.3c18-4.5,57.8-2,69.7-4.9c11.5-3.3,22.1-9-1.2-17.2c-23.8-8.2-61.1-7.4-102.9-5.3s-71.7,10.2-67.6,16.4
		c4.1,6.1,24.6,2,2.9,11.5c-22.1,9.4-39.8,13.9-46.3,18.4c-6.6,4.5-3.7,2,26.2,3.7C140.2,125.9,113.1,135.3,129.5,137.8z"/>
	<path class="st21" d="M102.9,54.6c29.5-13.5,13.1-8.6,50.8-15.2c37.7-6.6,50.8-13.1,94.3-7.8s86.9,7,47.1,10.2
		c-39.8,3.3-8.6,8.6-15.2,11.1c-6.6,2.5-15.2-4.5-56.6-0.4c-41.4,3.7-47.5-4.9-74.6,5.3s-45.1,4.9-48.4,5.3
		C96.7,63.2,80.3,64.8,102.9,54.6z"/>
	<path class="st19" d="M430.7,96c-1.2-0.8-2.5-1.6-4.1-2.5c-24.6-15.2-63.1-25.8-73.4-27c-10.2-0.8-25-9.8-25-9.8s32.8,4.1,41.4,3.3
		c8.6-0.4-21.7-4.5-27-13.5c-5.3-9-6.6-13.5-27.9-17.2c-21.3-3.7-28.3-10.2-57.4-11.5c-29.1-0.8,7.8-8.6-2.5-9.8
		c-10.2-1.6-95.9,4.5-84.8,7.4c11.1,2.9,26.6,4.9,6.1,6.6c-9.4,0.8-25.4,2-40.6,2.9C167.2,9.1,202.4,0.5,240.1,0.5
		c59,0,113.1,21.3,154.9,57C408.2,69.3,420,82.1,430.7,96z"/>
	<path class="st22" d="M179.5,29.6c16.4-2.9,49.2-1.6,42.2,2.9s-8.2,4.5-14.8,9.4c-6.6,4.9-6.6-1.6-27.5,0
		c-20.9,1.6-33.6,7-38.5,7.8c-4.9,0.8-20.1,4.1-17.6-4.5C125.4,36.2,159,32.9,179.5,29.6z"/>
	<path class="st22" d="M150.8,96c17.2-2,14.8-2.5,37.7-2.5s49.2,0.8,30.3,5.7c-19.3,4.9-4.5,0.8-17.6,9.8
		c-13.1,8.6-17.6,1.2-40.2,3.3s-59.4,12.3-42.6,2.9C134.8,105.8,129.9,98.4,150.8,96z"/>
	<path class="st22" d="M182,120.6c20.1-21.3,83.2-4.5,61.9-1.6s-20.1-0.8-28.3,6.6c-8.2,7.4-7,7.4-32.8,8.6
		c-25.8,1.2-52.5-2.9-48.8-3.3c3.7-0.4,8.6,0.4,32.4-3.7C190.1,123,174.2,128.8,182,120.6z"/>
	<path class="st18" d="M399.6,418.1c-1.2,0.8-2.5,2-3.7,3.3c-41.8,36.1-96.3,58.2-156.1,58.2c-55.3,0-106.1-18.9-146.3-50
		c10.2,4.9,18,9.4,18,9.4s13.9,0.4,49.2,5.3s26.2,12.7,82.8,9.8c56.6-2.9,23.8-2.5,41.4-9.8c17.6-7.4,47.5-4.1,34.4-11.5
		c-12.7-7.4,7-14.8,35.7-14.3C375.8,418.9,387.3,416.9,399.6,418.1z"/>
	<path class="st23" d="M93,107c-14.3-0.8-10.2,0-18-5.3c-7.8-5.3-25.4,1.6-7.4-8.6c18-10.2,18.4-9.8,34-14.8s33.6-6.1,59-16.4
		c25.4-10.2,13.5-16,49.2-11.9s63.5,9,73.4,18s22.5,10.2,20.9,15.2c-1.6,4.9,17.2,3.3-36.1-1.2c-53.3-4.5-59.4-14.8-91.4-4.5
		c-32,9.8-13.1,10.2-25.4,15.2c-12.3,5.3-16.4,0.8-36.1,11.1C95.5,114.8,104.9,107.9,93,107z"/>
	<path class="st23" d="M81.6,131.2c-35.7,4.9-33.6,16.8-14.3,21.3c19.3,4.5-9.8,3.3,24.2,7.4s19.7,6.6,51.2,8.6
		c31.6,2,60.7,2,45.5-4.5c-15.6-6.6-19.3-4.5,32.4-6.6c51.6-2,77,1.6,56.1-6.6s-28.7-8.6-13.1-15.2c15.6-6.6,45.5-2.5,38.1-12.3
		c-7.8-9.8,11.1-15.6-21.7-14.3c-33.2,1.2-26.2,1.2-35.7,10.7c-9.4,9.4-19.3,2.5-38.1,9.8c-19.3,7.4-36.9,8.6-68.4,8.2
		C105.3,138.2,108.6,127.9,81.6,131.2z"/>
	<path class="st23" d="M141.8,305.4c23.8-9,63.5,5.7,80.7,7c17.2,1.2-0.4-4.9-5.7-22.1c-5.3-17.2-14.3-21.7-61.1-26.2
		c-46.7-4.5-9-2.9-50-7.4c-41.4-4.1-61.1-2.9-76.6,12.3c-15.6,14.8-16.4,32.4,4.5,38.9s53.7,12.7,36.5-4.1
		c-16.8-16.4-55.7-20.5-10.7-23.4c45.1-2.9,80.7-5.7,63.5,7.8c-17.2,13.5-17.2,27-4.9,24.6C130.3,309.5,130.7,309.5,141.8,305.4z"/>
	<path class="st14" d="M466.4,162.4c-2.5-0.8-4.9-1.6-7.8-2.9c-9-5.3-19.7-11.9-30.7-16.8c-28.3-13.1-52-7-57.8-12.3
		c-5.7-5.3,11.1-13.5,0-20.5c-11.1-7.4-6.6-16.4,4.5-11.1c11.1,5.3,22.9,27.9,34.4,26.6s-12.7-13.1,9-11.9
		c15.6,0.8,21.7,5.3,30.3,7.8c0.4,0.8,0.8,1.6,1.2,2.5c4.9,8.6,9.4,18,13.1,27.5C463.5,155,464.7,158.7,466.4,162.4z"/>
</g>
<g>
	
		<radialGradient id="SVGID_00000126295300453730610770000006749036807403201168_" cx="168.1729" cy="157.5731" r="232.8032" gradientUnits="userSpaceOnUse">
		<stop  offset="4.300000e-02" style="stop-color:#FFD360"/>
		<stop  offset="0.3876" style="stop-color:#FF9217"/>
		<stop  offset="0.4526" style="stop-color:#FF8322"/>
		<stop  offset="0.5774" style="stop-color:#FF5B40"/>
		<stop  offset="0.6408" style="stop-color:#FF4551"/>
		<stop  offset="0.8208" style="stop-color:#AB153B"/>
	</radialGradient>
	<path style="fill:url(#SVGID_00000126295300453730610770000006749036807403201168_);" d="M356.8,236.3c0,50-31.4,92.5-75.5,109.1
		l0,0c-1.2,0.5-5,2.8-8.6,6c-2.8,2.6-8.7,4.5-13.6,5.6c-0.9-0.2-1.8-0.4-2.5-0.6c-4.3-1.2-6.5-2-7.7-2.6c-0.7-0.4-1.3-0.7-1.9-1.1
		c-1.6-1.2-3.6-3.9-6.7-5.9c-3-2-9-4.7-18.4-6.1s-15.7-2.5-20.4-1.2c-4.7,1.3-7,2.9-7.4,3.3c0,0,0,0.1-0.1,0.1l-0.1,0.1
		c-0.9,1.1-4.6,4.8-7.2,5.6c-0.2-0.1-0.4-0.2-0.6-0.2c-1.9-1.1-4-5.4-5.5-7c-0.6-0.6-1.5-2-2.6-3.5c-1.5-2.3-3.3-5.2-4.3-5.9l0,0
		c-0.2-0.1-0.4-0.2-0.6-0.5c-9.3-6.6-17.5-14.4-24.5-23.2c-15.6-19.8-24.9-44.8-24.9-71.9c0-13.6,2.3-26.6,6.6-38.7v-0.1
		c0.6-1.5-0.1-5.5,0.5-14.2c0.2-2.8,0.2-4.6,0.2-5.9c0-2.7-0.2-3,0.9-5.4c0.2-0.4,0.4-0.8,0.5-1.3c2.7,0.5,4.9,1.1,6.6,1.5
		c1.3,0.5,2.1,0.7,2.3,0.8c0.5,0.2,2.3,0.1,4.6-0.2c2-0.2,4.3-0.7,6.2-1.2c4-1.2,2.8-6.3,6.1-9c3.3-2.6,2.8-6.3,2.5-8.8
		c-0.1-0.8-0.7-2-1.4-3.3c-0.8-1.3-1.9-2.8-2.9-4.1c2.8,0,4.6,0.1,11-4.1c3.9-2.6,9.1-4.7,12.9-6.1c4.3-2.6,8.9-5,13.7-7
		c7.4-5.3,16.7-12.2,24-14.3c11.1-3,13.7-5.5,34.2-2.3c9.4,1.4,15.1,2.7,18.8,4.1c4.3,1.6,5.9,3.5,7.4,6.2c0.7,1.2,1.9,2.7,3.4,4.3
		c1.9,0.7,3.6,1.4,5.5,2.2c1.1,0.5,2.2,0.9,3.3,1.5c0.1,0,0.2,0.1,0.4,0.1c0.1,0.1,0.2,0.1,0.4,0.2c10.4,5,20.1,11.7,28.4,19.6
		c6,5.6,11.5,11.8,16.2,18.5C349.1,188.5,356.8,211.4,356.8,236.3z"/>
	
		<radialGradient id="SVGID_00000172420246744583265190000007239357059252545974_" cx="235.2627" cy="265.6785" r="99.1035" gradientUnits="userSpaceOnUse">
		<stop  offset="0.1734" style="stop-color:#FFD360"/>
		<stop  offset="0.6625" style="stop-color:#FF9217"/>
		<stop  offset="0.7199" style="stop-color:#F78322"/>
		<stop  offset="0.83" style="stop-color:#E25B40"/>
		<stop  offset="0.8859" style="stop-color:#D64551"/>
	</radialGradient>
	<path style="fill:url(#SVGID_00000172420246744583265190000007239357059252545974_);" d="M174.3,191.3
		c-12.8,11.6-19.4,7.5-14.5,46.4s35.8,30.3,51.3,15c15.4-15.4,0-36.2,3.2-56.6C217.3,175.6,178.3,187.8,174.3,191.3z"/>
	
		<radialGradient id="SVGID_00000058567058758103812820000013687030288956439196_" cx="282.3449" cy="217.574" r="80.5475" gradientUnits="userSpaceOnUse">
		<stop  offset="0.3876" style="stop-color:#FF9217"/>
		<stop  offset="0.4331" style="stop-color:#FF8322"/>
		<stop  offset="0.5203" style="stop-color:#FF5B40"/>
		<stop  offset="0.5647" style="stop-color:#FF4551"/>
		<stop  offset="0.7771" style="stop-color:#D22B45"/>
	</radialGradient>
	<path style="fill:url(#SVGID_00000058567058758103812820000013687030288956439196_);" d="M230.4,182.2c4.9-7,12.3-11.4,22.5-7.9
		c10.2,3.5,10,10.6,10.6,13.1c0.6,2.6-17.8-1.2-23.1-0.2C235.1,188.1,230.4,182.2,230.4,182.2z"/>
	
		<radialGradient id="SVGID_00000093896944451763539240000000568905686958143142_" cx="249.2778" cy="178.8862" r="78.9807" gradientUnits="userSpaceOnUse">
		<stop  offset="0.4734" style="stop-color:#FFD360"/>
		<stop  offset="0.758" style="stop-color:#FF9217"/>
		<stop  offset="0.7908" style="stop-color:#F78322"/>
		<stop  offset="0.8539" style="stop-color:#E25B40"/>
		<stop  offset="0.8859" style="stop-color:#D64551"/>
	</radialGradient>
	<path style="fill:url(#SVGID_00000093896944451763539240000000568905686958143142_);" d="M241.5,114.2
		c-37.5,5.7-56.1,29.7-56.9,35.4c-0.8,5.7,48.2-9,76.8-5.4c28.6,3.8,22,3.3,15-13.6C269.6,113.7,241.5,114.2,241.5,114.2z"/>
	
		<radialGradient id="SVGID_00000145018872771667674980000015913313584892662667_" cx="293.0755" cy="321.0099" r="109.3235" gradientUnits="userSpaceOnUse">
		<stop  offset="0.3876" style="stop-color:#FF9217"/>
		<stop  offset="0.4188" style="stop-color:#FF8322"/>
		<stop  offset="0.4786" style="stop-color:#FF5B40"/>
		<stop  offset="0.509" style="stop-color:#FF4551"/>
		<stop  offset="0.7658" style="stop-color:#AB153B"/>
	</radialGradient>
	<path style="fill:url(#SVGID_00000145018872771667674980000015913313584892662667_);" d="M252.3,246.2c-14.1,5-19.9,23.2-18.5,36
		c1.4,12.8,17,13,29.8,0.5c12.8-12.5,18.9-14.1,12-24.7C268.6,247.2,252.3,246.2,252.3,246.2z"/>
	
		<radialGradient id="SVGID_00000012452717783953736170000017809428623895765156_" cx="257.5994" cy="395.9035" r="79.5291" gradientUnits="userSpaceOnUse">
		<stop  offset="0.3823" style="stop-color:#FF4551"/>
		<stop  offset="0.5545" style="stop-color:#AB153B"/>
		<stop  offset="0.7293" style="stop-color:#851233"/>
		<stop  offset="0.8759" style="stop-color:#6C112E"/>
		<stop  offset="0.9649" style="stop-color:#63102C"/>
	</radialGradient>
	<path style="fill:url(#SVGID_00000012452717783953736170000017809428623895765156_);" d="M248.8,353.7c-0.7-0.4-1.3-0.7-1.9-1.1
		c-1.6-1.2-3.6-3.9-6.7-5.9c-3-2-9-4.7-18.4-6.1c-9.4-1.4-15.7-2.5-20.4-1.2c-4.7,1.3-7,2.9-7.4,3.3c0,0,0,0.1-0.1,0.1
		c2.5-3.2,8.3-6.6,23.6-10.2c29.9-7.2,47.3-0.8,48.8,7.3C267.3,345.2,257.8,350.7,248.8,353.7z"/>
	
		<radialGradient id="SVGID_00000078752089484699804030000014249716329843068095_" cx="200.2244" cy="360.2084" r="63.21" gradientUnits="userSpaceOnUse">
		<stop  offset="0.4548" style="stop-color:#FF4551"/>
		<stop  offset="0.7933" style="stop-color:#AB153B"/>
	</radialGradient>
	<path style="fill:url(#SVGID_00000078752089484699804030000014249716329843068095_);" d="M188.1,299.2c-4.2,0-12.9,4.3-12.5,8.8
		c0.2,4.3,7.3,14.9,11.7,18.4c4.3,3.5,13.4-3.5,17.4-5.3c4-1.8-4.2-8.4-10.1-13.7C188.6,302.1,193.6,299.2,188.1,299.2z"/>
	
		<radialGradient id="SVGID_00000139295478126847500170000002295909338445600650_" cx="389.3576" cy="239.0348" r="117.3078" gradientUnits="userSpaceOnUse">
		<stop  offset="0.5446" style="stop-color:#FF4551"/>
		<stop  offset="0.8003" style="stop-color:#AB153B"/>
		<stop  offset="0.8935" style="stop-color:#9C153B"/>
		<stop  offset="0.9649" style="stop-color:#8D153B"/>
	</radialGradient>
	<path style="fill:url(#SVGID_00000139295478126847500170000002295909338445600650_);" d="M303.1,151c8.4,15.7,7.6,25.5,0,40.8
		c-7.6,15.4,7.9,22.2,12.8,25.1c4.9,2.9,16.9-11.7,21.3-19.6s-4.3-21-14.3-29.4C313,159.5,303.1,151,303.1,151z"/>
	
		<radialGradient id="SVGID_00000000224432895197951690000017872638618499943325_" cx="460.7478" cy="382.9831" r="201.9823" gradientUnits="userSpaceOnUse">
		<stop  offset="0.3823" style="stop-color:#FF4551"/>
		<stop  offset="0.7707" style="stop-color:#AB153B"/>
		<stop  offset="0.8534" style="stop-color:#851233"/>
		<stop  offset="0.9228" style="stop-color:#6C112E"/>
		<stop  offset="0.9649" style="stop-color:#63102C"/>
	</radialGradient>
	<path style="fill:url(#SVGID_00000000224432895197951690000017872638618499943325_);" d="M330.2,231.3
		c-21.7,4.2-11.5,22.5-12.1,33.4c-0.6,10.8,10.6,17-1.5,28.4c-12.1,11.5-39.9,6.2-41.9,17.7s18.1,27.4,30.1,13.3
		c12.1-14.2,5.3-22.3,16.7-29.7c11.4-7.4,20.1-15.5,24.7-29.7C350.9,250.5,341.2,229.2,330.2,231.3z"/>
	
		<radialGradient id="SVGID_00000178197180631196482460000015234257089764808072_" cx="168.033" cy="309.4032" r="75.3021" gradientUnits="userSpaceOnUse">
		<stop  offset="4.300000e-02" style="stop-color:#FFD360"/>
		<stop  offset="0.3876" style="stop-color:#FF9217"/>
		<stop  offset="0.4526" style="stop-color:#FF8322"/>
		<stop  offset="0.5774" style="stop-color:#FF5B40"/>
		<stop  offset="0.6408" style="stop-color:#FF4551"/>
		<stop  offset="0.8208" style="stop-color:#AB153B"/>
	</radialGradient>
	<path style="fill:url(#SVGID_00000178197180631196482460000015234257089764808072_);" d="M138.1,247.9c9.4,7.6,0.9,6,9.6,22.5
		c8.8,16.5,13.7,26.9,3.5,24.2s-17.8-11.4-21-29.4C127.1,247.1,132.6,243.3,138.1,247.9z"/>
	
		<radialGradient id="SVGID_00000183241769250034593760000003884060295647540112_" cx="163.6533" cy="184.1417" r="71.1051" gradientUnits="userSpaceOnUse">
		<stop  offset="4.300000e-02" style="stop-color:#F5CF26"/>
		<stop  offset="0.1494" style="stop-color:#FFA917"/>
		<stop  offset="0.4816" style="stop-color:#FF4430"/>
		<stop  offset="0.8017" style="stop-color:#EB1C29"/>
	</radialGradient>
	<path style="fill:url(#SVGID_00000183241769250034593760000003884060295647540112_);" d="M164.4,174.6c-7,3.5-12.3,8.8-13.1,4.9
		c-0.6-2.6-8.1-4.2-12.3-7.3c1.3,0.5,2.1,0.7,2.3,0.8c0.8,0.4,6.8-0.4,10.8-1.4c4-1.2,2.8-6.3,6.1-9c3.3-2.6,2.8-6.3,2.5-8.8
		c-0.1-0.8-0.7-2-1.4-3.3c2.3,0.4,4.6,1.3,6.6,2.7C177.9,162.4,171.4,171.1,164.4,174.6z"/>
	<path class="st35" d="M220.2,191.4c6.6-1.3,16,0.1,16.7,0.2c0.7,0.1-1.4,4.2-4.3,6.1c-2.9,1.9-3.8,6-5.4,12.4
		c-1.6,6.5,4.1,20.8,3.4,25.2c-0.7,4.6-5.6,3.3-4.3,10.7s5.4,8.3,0.7,10.8c-4.7,2.5-23.1,11.1-29,11.3s-8.3-1.3-14.9-0.7
		c-6.6,0.6-9.5-0.9-11.7-1.8c-2.2-0.8-9.1-10.8-9.1-10.8s5.9,1.8,6.8,1.9c1.1,0.1,7.2,2.9,9.6,3.4s9,0.7,12-0.9
		c2.9-1.6,5.7-7.2,5.7-7.2s2.8-6,6-9.6c3.2-3.6,10.1,0,12.4-2.3s-1.5-9.3-0.1-15.1c1.4-5.9-4.1-21.2-4.1-24.6c0-3.4,2.5-8.4,3.5-9.6
		c1.2-1.2-0.5-4.2-0.6-5.7c-0.1-1.4-10.1-8.4-10.1-8.4s0.5-4.6,2.3-7.9c1.9-3.3,6.7-6.6,8.8-7.6c2.1-1.1,14.8,1.3,13.5,2.5
		c-1.3,1.2-7.2,6-7.2,9.4c0,3.4,3.6,10.3,2.9,11C222.8,184.8,220.2,191.4,220.2,191.4z"/>
	<path class="st35" d="M259.6,149.6c0,0-6,0.9-6.1,2.3c-0.1,1.4-2.2,7.2-2.6,7c-0.5-0.1-11.6-4.3-17.2-4.5s-18.4,0-19.4,0.2
		c-0.9,0.2-6.5,4.5-6.5,4.5l-4.6,1.6c-2.9,2.1-4.2,9.6-5.2,12.2c-0.8,2.6,2.6,6.9,2.6,6.9s-21.2-0.2-22.8,0.9
		c-1.4,1.2-2.5,5.5-2.5,5.5l-10-1.2l3.5-10.1l-7.9,10.6c0,0,4.1,1.9,4.3,2.7c0.2,0.8,4.2-0.1-0.1,3.3c-4.3,3.4-9.6,4.2-9.1,7.3
		c0.5,3-2,11.1-2.5,13c-0.5,1.9-0.1,18.2,0,20.4c0.1,2.2-7.3-4.5-10.8-4.2s-13.4-4.9-13.8-6.2c-0.5-1.3-1.4-6.2-1.2-7.4
		c0.1-1.2,8.6-6.6,9.5-9c0.9-2.5,9.4-9.4,9.4-9.4s6-6.8,4.9-7.9c-1.1-1.1,0-3.3,1.9-4.9c1.9-1.6-6.9,1.1-10.6,0.9
		c-3.8-0.2-8.3-3.4-8.9-4.2c-0.2-0.4-1.6-1.4-3.2-2.8c0-2.7-0.2-3,0.9-5.4c0.2-0.4,0.4-0.8,0.5-1.3c2.7,0.5,4.9,1.1,6.6,1.5
		c1.3,0.5,2.1,0.7,2.3,0.8c0.5,0.2,2.3,0.1,4.6-0.2c2.5,1.4,4.5,2.5,4.8,2.5c1.1,0.1,12.3-7.9,12.3-7.9s4,1.2,4.8-0.4
		c0.9-1.4-2.9-0.8-1.4-4.2c1.4-3.4,1.3-2.9-0.1-5.6c-1.4-2.7-3.8-6.3-3.4-6.6c0.5-0.2,10.6,4.2,12,3.9c1.4-0.5,7.3,5.6,7.7,5.5
		c0.5-0.1-3.2,9.7-3.2,9.7s6.8-5.9,7.6-7c0.7-1.2,4.5-3.6,1.9-5.2c-2.6-1.4-6-3.4-6-3.4s11.7-4.6,14-5.4c2.3-0.9,11.1-0.6,14.9-1.9
		c3.8-1.3,11.1-3.8,14.7-4.1c3.5-0.2,12.9-1.2,14.9-1.3c2.1-0.1,8.3,0.8,9.6,2C252.1,144.8,259.6,149.6,259.6,149.6z"/>
	<path class="st35" d="M145.8,250.2c-0.8,1.6-3,7.2-2.7,8.2c0.4,1.1,4.9,5,5.3,5.2c0.5,0.1,2.9-3.6,7.3-2.6
		c4.5,1.1,10.6,3.5,10.6,3.5s-5.4-6-7-8.9C157.7,252.7,145.8,250.2,145.8,250.2z"/>
	<path class="st36" d="M171.5,260.5c3.2,2.5,8.6,6,8.6,6s6.5,0.9,10.3,0.2c4-0.6,12.3-1.4,13.8-2.2c1.6-0.8,0.1-2.1,3.6-6.2
		c3.5-4.1,4.3-6.2,6.7-8.1c2.3-2,4.6-4.7,5.3-6.8c0.7-2-1.4-4.2-0.7-6.1c0.7-1.9-1.1-8.4-1.3-10.1c-0.2-1.6-1.6-4.9-1.6-4.9
		s0.2,6-0.1,10.7c-0.5,4.7,2.2,6.1-1.3,9.7c-3.5,3.6-9.6,5.4-11.8,6.7c-2.2,1.3-3.4,2-4.3,4s-2,1.2-7,4c-4.9,2.8-10.2,4.6-10.9,4
		C180,260.8,171.5,260.5,171.5,260.5z"/>
	<path class="st36" d="M215,189.4c-1.1,1.5-2.6,5.6-2.9,7c-0.4,1.4,2,9.4,2,9.4s5.3-6.8,6.1-7.2c0.8-0.4-3.8-2.6-3.9-3.4
		C216.2,194.6,215,189.4,215,189.4z"/>
	<path class="st36" d="M136.8,175.1c1.2,0.9,4.5,4.3,6.3,4.2c1.8-0.1,5,3.3,6.3,3.2c1.2-0.1,9.9-0.4,11.4-1.1
		c1.5-0.8,2.8-1.6,6.5-3.5c3.6-1.9,5-3.9,5.3-4.7c0.2-0.9-4.1-2.8-4.1-2.8s-3.2,0.2-3.9,1.1c-0.7,0.9-5.4,3.5-6.9,4.1
		c-1.5,0.6-6.8,1.8-9.6,1.5C145.1,176.8,136.8,175.1,136.8,175.1z"/>
	<path class="st36" d="M159.3,150.7c2,1.5,5.6,3.6,8,5.7c2.3,2.1,2.6,4.8,2.8,6s1.9,5.6,1.9,5.6s3.8-2.1,4.2-3.8
		c0.6-1.6,0.5-4.6-0.7-6.3s0.9-1.9-2.2-3.8c-3.3-1.9-3.4-2.6-6.1-2.8C164.6,151.3,159.3,150.7,159.3,150.7z"/>
	<path class="st36" d="M183.7,168.2c-0.8,1.1-12.2,8.2-12.2,8.8s0.2,8.2,0.9,8.8c0.7,0.5,7.3,0.7,8.2-0.1s4.8-5.4,6.1-5.4
		c1.3,0,12.7-0.1,12.7-0.1s-6.2-4.7-7.2-4.9c-0.9-0.2,10-13.1,10-13.1l-4.6-7.4l-5.2,11.3L183.7,168.2z"/>
	<path class="st36" d="M156.2,195.1c0,0.4-4,6.3-4,6.3v9.3l-9.1-4.9c0,0-4.1-4.5-3.4-4.6c0.7-0.1,12.3-4,12.4-4.2
		c0.1-0.2-2-7.7-0.9-7.5c1.1,0.2,12.2,0,12.2,0L156.2,195.1z"/>
	<path class="st35" d="M248.5,128.8c-29.8,0.6-42.7,10.4-43.2,12.9c-0.5,2.5,2.3,5.5,21,2.3c18.6-3,41.6-0.4,44.3-0.2
		c2.7,0.2,9.7-8-1.9-11.3C257.1,129.3,257.4,128.5,248.5,128.8z"/>
	<polygon class="st36" points="218,161 218.4,169.6 207.1,174 207.1,165.8 	"/>
	<path class="st35" d="M237.8,189.4c1.2,0.5,4.7,0.5,13.1,1.2c8.4,0.7,13.6,1.1,13.6,1.1s3.5-2.8,4.1-5.5c0.6-2.7-0.2-9.4-2.6-10.4
		c-2.3-1.1-6.1-3-10.7-3.4c-4.6-0.2-7.3-1.4-8.4,0c-1.2,1.4-0.7,1.8,1.2,2.6c1.9,0.8,5.3,4.1,3.4,5.9c-1.9,1.8-3.3,1.3-9,3.6
		C236.6,186.8,237.8,189.4,237.8,189.4z"/>
	<path class="st37" d="M287.3,129.6c1.1,6.6,2.5,14.1,3.8,18.4c2.8,9.1-4.3,10.9-14.4,10.6c-10.1-0.5,5.6,10.6,4.3,14.7
		c-1.3,4.1-4.6,26.4-13.4,29.9s-16.4,7-23.5,22.1c-7,15.1,0.2,16.4-12.1,30.8c-12.3,14.4-4,20.8-10.1,33.9
		c-6.1,13.1-7.4,12.7-26.3,3.3c-18.8-9.4-25.5-8.8-32.4,4.1c-3.5,6.3-8.7,9.7-14.8,10.9c7.2,9.1,15.6,17.1,25.1,23.7l0,0
		c1.1,0.7,2.7,3.4,4.3,5.9c1.6-0.4,3.9-0.7,6.6-1.5c12.5-3.5,12.3-4.1,22.4-9c10.1-4.9-9.1-6.3,14.2-12.7c23.5-6.3,34-3.8,49.5-7.6
		c15.5-4,28.4-8.1,37.9-24.5c9.5-16.4,8.6-32.3-9-36.4c-17.5-4-26.3,8.7-27.2-2.5c-0.8-11.1,0.5-21.9,18.2-23.2
		c17.7-1.3,10.3-2.2,4.1-12.1c-6.1-9.9,0.2-15.7,3.8-24.3c3.5-8.6,4.6-8.9,0.5-18.4c-4.2-9.5,0.9-15.6,2-17.4
		c1.1-1.8,13.5,7.4,15.5,8.6c1.2,0.7,2.7-2,3.2-6C310.3,142.2,299.2,135,287.3,129.6z M204.4,315.1c-2.8,4.8,3.2,3.4,2.6,8
		c-0.6,4.7-5.4,4.6-16.5,7.7c-11.1,3.2-17.2-2.9-19-5.6s5.9-6.1-3.4-14.9c-9.1-8.8,4.5-10.4,14.8-13.5c2.6-0.8,5.3-1.4,9.4,0.8
		c4.1,2.3,7.4,3.4,13.3,8.6C211.4,311.3,207.2,310.3,204.4,315.1z M286.7,267c-1.6,8.3-4.9,3.9-14.1,12.2c-9,8.3-12.4,7.9-21.1,12.7
		c-8.8,4.8-17.7,7.3-23.2,4.8c-5.5-2.5,1.8-4.5,3.6-17.8c1.9-13.3,3-20.9,10.7-26.9c7.6-6,4.7-12.7,14.4-15.7
		c8.3-2.6,5.3-0.1,6.3,4.7c1.1,4.8,3.3,8.4,8.9,12C277.8,256.4,288.3,258.6,286.7,267z"/>
	<path class="st38" d="M276.4,266.5c2,2,1.1,2.8,0.9,5.3s-6.2,6.5-10,8.7c-3.6,2.2-4.9,8.2-11.3,10.3s-12.2,2-13.3,1.9
		c-1.1-0.1-0.9-0.9,5.5-4c6.5-3,8.4-3.6,11.3-7.3c2.8-3.6,7-4.8,10.6-7.3C273.6,271.6,276.4,266.5,276.4,266.5z"/>
	<path class="st38" d="M334.1,202.3c-0.7,5.6-1.9,9.5-7.7,13.8c-5.9,4.3-12,1.6-16.5,0c-4.6-1.6-7.6-5.7-7.6-5.7s4,1.2,11.1,2.1
		c7.2,0.9,12.3,2,14.2-2.1C329.4,206.3,334.1,202.3,334.1,202.3z"/>
	<path class="st35" d="M304.1,157c3.4,7.4,2,16.5-0.7,22.8c-2.7,6.2-5.2,12.3-4.9,14.7c0.1,2.3,0,3.5-3.2-1.2
		c-3.2-4.7-4.2-6,0.6-12.3s6.9-10.1,5.3-15.1C299.2,160.8,304.1,157,304.1,157z"/>
	<path class="st35" d="M230.4,282.9c2-12.3,16.8-28.5,21.7-31.6c4.9-3,8.8-3.6,16.7,1.3c7.9,4.9,11.6,8.6,12,7.6
		c0.2-1.1-3.3-7.4-7.9-14.1c-4.6-6.7-6.5-7.3-18.4-13.3c-12-6-23.8-0.5-21.6,8.4c2.2,8.9,8.6,9-0.9,16.7
		c-9.5,7.6-20.5,17.5-21.5,18.1c-0.9,0.6,3.9,3.2,8.6,6C223.8,285,230.4,282.9,230.4,282.9z"/>
	<path class="st36" d="M248,250.7c-8,2.8-15,20.8-15.4,21.2c-0.4,0.5-2-1.4,0.9-9c2.9-7.5-3.8-5.6,5-12.8c8.8-7.2,15.8-5.3,16.2-4.9
		C255.1,245.6,248,250.7,248,250.7z"/>
	<path class="st36" d="M205.4,150.7c3,1.8,5.4,2.3,15.7-1.3c10.3-3.6,17.8-3.4,23.2-3.6c5.4-0.2,11.4,0.5,11.4,0.5s-1.2-2.1-6.6-3.3
		c-5.4-1.2-7.7-2-16.3-1.3c-8.6,0.7-9.4,2.6-15.6,3.5c-6.2,0.9-14.4,4-16.4,3.6s-2.6,0.4-1.3,0.9
		C200.8,150.2,205.4,150.7,205.4,150.7z"/>
	<path class="st36" d="M225.8,135.8c15.2-2.6,7.6-3.8,22.6-1.9c15,1.9,27,6.8,27,6.8s2.6,4.2-4.8,3c-7.4-1.2-13.6-3-19.9-4.1
		c-6.5-1.1-13.6,1.1-18.6,1.1c-5.2,0-11.1,0.8-11.1,0.8S223.6,136.1,225.8,135.8z"/>
	<path class="st35" d="M199.6,131.8c5.2,0.9-0.4-0.1,12.5-4.3c12.8-4.2,19.1-6.7,26.4-8.3c7.3-1.6,21.1-0.5,22.3,0s3.5-0.7-4.9-3.2
		c-8.4-2.5-16.5-3.8-23.2-3c-6.7,0.7,2.6-2.3-8-1.1c-10.7,1.3-13,0.9-15.7,3.4c-2.8,2.5-6.8,5.9-10,7.9c-3.3,2-5,6.3-8,7.6
		c-2.8,1.4-9.9,6.7-9.9,6.7s7.6,0.5,6.1,2.5c-1.5,2-3.8,8-3.8,8s7.2-1.8,10.6-7.4C197.2,134.9,199.6,131.8,199.6,131.8z"/>
	<path class="st36" d="M224.4,120c-2.2,0.7-6.1,0.9-13,4.9c-6.8,4.1-9.5,3.6-12,4.8c-2.3,1.3-9.3,13.1-9.3,13.1s-2.1-5.4-2.1-6.2
		c0-0.9,1.1-3.8,5.7-7.2s11.8-4.7,16.1-7c4.2-2.3,9.7-4.7,10.9-4.7S224.4,120,224.4,120z"/>
	<path class="st39" d="M293.1,137.9c-1.6,2.3-1.8,11.4-1.8,16.1c-0.1,4.7-9.7,4.6-9.7,4.6s3.8-6.7,4.2-7.9c0.5-1.2-0.9-4.9-2.6-9
		s0.5-4.5-1.9-8.7c-2.3-4.1-5.4-11-9.5-13.3c0,0-0.5-1.2-0.7-2.9c4.3,1.6,5.9,3.5,7.4,6.2c0.7,1.2,1.9,2.7,3.4,4.3
		c1.9,0.7,3.6,1.4,5.5,2.2c1.1,0.5,2.2,0.9,3.3,1.5c0.1,0,0.2,0.1,0.4,0.1c0.1,0.1,0.2,0.1,0.4,0.2
		C294.4,133.1,294.7,135.6,293.1,137.9z"/>
	<path class="st40" d="M306.1,304.9c-6.6,10-5,12.9-5,12.9s1.2,2.9,0,5.3c-1.2,2.3-6.9,4.3-6.9,4.3s10.8-0.2,15.7-6.1
		c4.9-5.9,5.2-12.9,8.4-17.8c3.3-4.9,0.6-3.2,13.5-12.9c12.9-9.7,16.7-13.6,18.6-21.6c2-8-4.1-21.2-4.1-21.2s-4.7,22.6-12.1,30
		c-7.4,7.3-8.4,9.6-11.7,14.2C319.2,296.4,306.1,304.9,306.1,304.9z"/>
	<path class="st35" d="M202.4,215.7c-11.3-7-19,1.1-22.6,18.1c-3.8,17-4.7,19.7,3,22c7.7,2.2,16.2,7.3,24.3-6.3
		C215.2,235.7,207.3,218.7,202.4,215.7z"/>
	<path class="st41" d="M356.8,236.3c0,50-31.4,92.5-75.5,109.1l0,0c-1.2,0.5-5,2.8-8.6,6c-2.8,2.6-8.7,4.5-13.6,5.6
		c-0.9-0.2-1.8-0.4-2.5-0.6c-4.3-1.2-6.5-2-7.7-2.6c-0.7-0.4-1.3-0.7-1.9-1.1c-1.6-1.2-3.6-3.9-6.7-5.9c-3-2-9-4.7-18.4-6.1
		s-15.7-2.5-20.4-1.2c-4.7,1.3-7,2.9-7.4,3.3c0,0,0,0.1-0.1,0.1l-0.1,0.1c-0.9,1.1-4.6,4.8-7.2,5.6c-0.2-0.1-0.4-0.2-0.6-0.2
		c-1.9-1.1-4-5.4-5.5-7c-0.6-0.6-1.5-2-2.6-3.5c-1.5-2.3-3.3-5.2-4.3-5.9l0,0c-0.2-0.1-0.4-0.2-0.6-0.5c1.3-4.1,1.1-5.6,3.5-6.1
		c3.5-0.7-0.2-9.6,6.9-12.1c7.3-2.6,14.2-0.5,18.8,0.7c4.6,1.2,8.1-9.7,8.1-9.7c11.3,4.1,10,5,14,8.3s26.6,5,17.9-4.1
		c-8.7-9.1-10.4-15.6-10.4-15.6s6.3-1.9,15-3.3c8.7-1.4,12.4-5.9,21-16.1c8.6-10.3,7.4-12.3,7.7-15.4c0.4-3,6.1,2,11.3,2.5
		c5.3,0.5-2-8.1,0-17.7c2-9.6,5.5-5.6,15.5-9.7c10-4.1,11.8-7.2,3.8-11.7c-7.7-4.5-13.3-14.7-13.6-15.2c0.5,0.5,11.8,11.3,20.1,7.3
		c8.3-4.1,18.9-10.8,16.4-23.7c-2.3-12.5-11.3-25.7-11.8-26.4c0.4,0.4,4.7,4.2,12.2,6.3c3.5,0.9,5,0.4,6.6,0.4
		C349.1,188.5,356.8,211.4,356.8,236.3z"/>
	
		<radialGradient id="SVGID_00000173877130099850729540000009722509853129549498_" cx="91.2492" cy="243.5606" r="452.1442" gradientUnits="userSpaceOnUse">
		<stop  offset="0.406" style="stop-color:#FFE260"/>
		<stop  offset="0.6992" style="stop-color:#C24551"/>
	</radialGradient>
	<path style="fill:url(#SVGID_00000173877130099850729540000009722509853129549498_);" d="M458.1,224.9c-12-2.3-29.1-4.5-50.8-6.3
		c-15.7-1.3-33.3-2.5-52.3-3.3c0.2,0.9,0.4,1.8,0.5,2.7c72,3.4,120.7,9.9,120.7,17.4c0,7.4-48.6,14-120.3,17.4
		c-34.1,1.6-73.5,2.6-115.4,2.6s-81.3-0.9-115.4-2.6c-71.9-3.4-120.3-9.9-120.3-17.4c0-7.4,48.7-14,120.7-17.4
		c0.1-0.9,0.2-1.8,0.5-2.7c-19,0.9-36.6,2-52.3,3.3c-21.7,1.9-38.8,4-50.8,6.3C8,227.9,2,230.8,2,235.3c0,4.5,6,7.4,20.6,10.3
		c12,2.3,29.1,4.5,50.8,6.3c15.6,1.3,33.1,2.5,52,3.3c34.7,1.6,74.1,2.6,115.1,2.6s80.2-0.9,115.1-2.6c18.8-0.9,36.2-2,52-3.3
		c21.7-1.9,38.8-4,50.8-6.3c14.7-2.9,20.6-5.9,20.6-10.3C478.7,230.8,472.7,227.9,458.1,224.9z"/>
	
		<radialGradient id="SVGID_00000092448841931898508290000005668468664757530281_" cx="423.5278" cy="241.5166" r="28.4443" gradientUnits="userSpaceOnUse">
		<stop  offset="0.1262" style="stop-color:#FFD360"/>
		<stop  offset="0.1842" style="stop-color:#FDCD5F"/>
		<stop  offset="0.259" style="stop-color:#F8BD5D"/>
		<stop  offset="0.3431" style="stop-color:#EFA359"/>
		<stop  offset="0.4331" style="stop-color:#E47E54"/>
		<stop  offset="0.5191" style="stop-color:#D6544E"/>
		<stop  offset="0.793" style="stop-color:#7E153B"/>
	</radialGradient>
	<path style="fill:url(#SVGID_00000092448841931898508290000005668468664757530281_);" d="M450.1,244.5c2.8,14.2-6.1,20.5-18.9,19.9
		c-19-0.9-18.9-4.9-18.6-10c0.7-16,14.3-25.5,17.7-23.1C433.5,233.4,442.3,228.1,450.1,244.5z"/>
</g>
</svg>
